SplineFontDB: 3.2
FontName: Kilroy5-8ptBold
FullName: Kilroy5 8pt Bold
FamilyName: Kilroy5 8pt
Weight: Bold
Copyright: Copyright 2020 The Roboto Serif Project Authors (https://github.com/googlefonts/RobotoSerif) OFL
Version: 1.008
ItalicAngle: 0
UnderlinePosition: -200
UnderlineWidth: 100
Ascent: 800
Descent: 200
InvalidEm: 0
sfntRevision: 0x0001020c
LayerCount: 2
Layer: 0 1 "Back" 1
Layer: 1 1 "Fore" 0
XUID: [1021 1018 -1064020043 32690]
StyleMap: 0x0040
FSType: 0
OS2Version: 4
OS2_WeightWidthSlopeOnly: 0
OS2_UseTypoMetrics: 1
CreationTime: 1586430965
ModificationTime: 1751911888
PfmFamily: 81
TTFWeight: 700
TTFWidth: 5
LineGap: 0
VLineGap: 0
Panose: 0 0 0 0 0 0 0 0 0 0
OS2TypoAscent: 927
OS2TypoAOffset: 0
OS2TypoDescent: -244
OS2TypoDOffset: 0
OS2TypoLinegap: 0
OS2WinAscent: 1048
OS2WinAOffset: 0
OS2WinDescent: 251
OS2WinDOffset: 0
HheadAscent: 927
HheadAOffset: 0
HheadDescent: -244
HheadDOffset: 0
OS2SubXSize: 650
OS2SubYSize: 600
OS2SubXOff: 0
OS2SubYOff: 75
OS2SupXSize: 650
OS2SupYSize: 600
OS2SupXOff: 0
OS2SupYOff: 350
OS2StrikeYSize: 100
OS2StrikeYPos: 311
OS2CapHeight: 710
OS2XHeight: 518
OS2Vendor: 'COMM'
OS2CodePages: 20000193.00000000
OS2UnicodeRanges: a10000ef.4000267a.00000000.00000000
Lookup: 5 0 0 "'locl' Localized Forms in Latin lookup 0" { "'locl' Localized Forms in Latin lookup 0 subtable"  } ['locl' ('latn' <'AZE ' 'CRT ' 'TRK ' > ) ]
Lookup: 1 0 0 "Single Substitution lookup 1" { "Single Substitution lookup 1 subtable"  } []
Lookup: 5 0 0 "'locl' Localized Forms in Latin lookup 2" { "'locl' Localized Forms in Latin lookup 2 subtable"  } ['locl' ('latn' <'PLK ' > ) ]
Lookup: 1 0 0 "Single Substitution lookup 3" { "Single Substitution lookup 3 subtable"  } []
Lookup: 6 0 0 "'locl' Localized Forms in Latin lookup 4" { "'locl' Localized Forms in Latin lookup 4 subtable"  } ['locl' ('latn' <'CAT ' > ) ]
Lookup: 4 0 0 "Ligature Substitution lookup 5" { "Ligature Substitution lookup 5 subtable"  } []

StartChar: .notdef
Encoding: 65536 -1 0
Width: 400
GlyphClass: 1
Flags: W
LayerCount: 2
Fore
SplineSet
0 0 m 1,0,-1
 0 700 l 1,1,-1
 400 700 l 1,2,-1
 400 0 l 1,3,-1
 0 0 l 1,0,-1
50 650 m 1,4,-1
 50 50 l 1,5,-1
 350 50 l 1,6,-1
 350 650 l 1,7,-1
 50 650 l 1,4,-1
EndSplineSet
EndChar

StartChar: A
Encoding: 65 65 6
Width: 770
GlyphClass: 2
Flags: W
AnchorPoint: "Anchor-2" 609 0 basechar 0
AnchorPoint: "Anchor-1" 384 0 basechar 0
AnchorPoint: "Anchor-0" 384 721 basechar 0
LayerCount: 2
Fore
SplineSet
201 297 m 1,0,-1
 474 297 l 1,1,-1
 486 200 l 1,2,-1
 190 200 l 1,3,-1
 201 297 l 1,0,-1
330 658 m 1,4,-1
 362 656 l 1,5,-1
 200 130 l 2,6,7
 200 124 200 124 205 118.5 c 128,-1,8
 210 113 210 113 221.5 110 c 128,-1,9
 233 107 233 107 253 107 c 2,10,-1
 262 107 l 1,11,-1
 262 0 l 1,12,-1
 25 0 l 1,13,-1
 25 107 l 1,14,-1
 31 107 l 2,15,16
 52 107 52 107 70.5 120 c 128,-1,17
 89 133 89 133 100 171 c 2,18,-1
 271 718 l 1,19,-1
 490 718 l 1,20,-1
 662 171 l 2,21,22
 674 133 674 133 694.5 120 c 128,-1,23
 715 107 715 107 740 107 c 2,24,-1
 746 107 l 1,25,-1
 746 0 l 1,26,-1
 421 0 l 1,27,-1
 421 107 l 1,28,-1
 430 107 l 2,29,30
 454 107 454 107 468 108.5 c 128,-1,31
 482 110 482 110 487.5 112.5 c 128,-1,32
 493 115 493 115 493 118 c 2,33,-1
 330 658 l 1,4,-1
EndSplineSet
EndChar

StartChar: Aogonek
Encoding: 260 260 15
Width: 770
GlyphClass: 1
Flags: W
LayerCount: 2
Fore
SplineSet
199 295 m 1,0,-1
 473 295 l 1,1,-1
 485 215 l 1,2,-1
 188 215 l 1,3,-1
 199 295 l 1,0,-1
582 47 m 1,4,-1
 618 7 l 1,5,6
 562 -32 562 -32 533.5 -54.5 c 128,-1,7
 505 -77 505 -77 495 -92.5 c 128,-1,8
 485 -108 485 -108 485 -127 c 256,9,10
 485 -146 485 -146 497 -157.5 c 128,-1,11
 509 -169 509 -169 534 -169 c 0,12,13
 558 -169 558 -169 578 -156 c 128,-1,14
 598 -143 598 -143 613 -129 c 1,15,-1
 662 -181 l 1,16,17
 633 -213 633 -213 594 -232.5 c 128,-1,18
 555 -252 555 -252 487 -252 c 0,19,20
 416 -252 416 -252 372.5 -228.5 c 128,-1,21
 329 -205 329 -205 329 -148 c 0,22,23
 329 -119 329 -119 340 -97.5 c 128,-1,24
 351 -76 351 -76 378.5 -56 c 128,-1,25
 406 -36 406 -36 456 -11.5 c 128,-1,26
 506 13 506 13 582 47 c 1,4,-1
746 0 m 1,27,-1
 528 0 l 1,28,-1
 328 661 l 1,29,-1
 359 653 l 1,30,-1
 200 130 l 2,31,32
 200 124 200 124 204.5 118.5 c 128,-1,33
 209 113 209 113 221 110 c 128,-1,34
 233 107 233 107 253 107 c 2,35,-1
 262 107 l 1,36,-1
 262 0 l 1,37,-1
 25 0 l 1,38,-1
 25 107 l 1,39,-1
 31 107 l 2,40,41
 52 107 52 107 70 120.5 c 128,-1,42
 88 134 88 134 99 172 c 2,43,-1
 270 722 l 1,44,-1
 489 722 l 1,45,-1
 661 171 l 2,46,47
 673 133 673 133 694 120 c 128,-1,48
 715 107 715 107 740 107 c 2,49,-1
 746 107 l 1,50,-1
 746 0 l 1,27,-1
EndSplineSet
EndChar

StartChar: Acaron
Encoding: 461 461 16
Width: 770
GlyphClass: 1
Flags: W
LayerCount: 2
Fore
SplineSet
320 792 m 1,0,-1
 439 792 l 1,1,-1
 584 948 l 1,2,-1
 584 995 l 1,3,-1
 511 995 l 1,4,-1
 340 883 l 1,5,-1
 427 885 l 1,6,-1
 253 995 l 1,7,-1
 175 995 l 1,8,-1
 175 948 l 1,9,-1
 320 792 l 1,0,-1
201 297 m 1,10,-1
 474 297 l 1,11,-1
 486 200 l 1,12,-1
 190 200 l 1,13,-1
 201 297 l 1,10,-1
330 658 m 1,14,-1
 362 656 l 1,15,-1
 200 130 l 2,16,17
 200 124 200 124 205 118.5 c 128,-1,18
 210 113 210 113 221.5 110 c 128,-1,19
 233 107 233 107 253 107 c 2,20,-1
 262 107 l 1,21,-1
 262 0 l 1,22,-1
 25 0 l 1,23,-1
 25 107 l 1,24,-1
 31 107 l 2,25,26
 52 107 52 107 70 120 c 128,-1,27
 88 133 88 133 100 171 c 2,28,-1
 271 718 l 1,29,-1
 490 718 l 1,30,-1
 662 171 l 2,31,32
 674 133 674 133 694.5 120 c 128,-1,33
 715 107 715 107 740 107 c 2,34,-1
 746 107 l 1,35,-1
 746 0 l 1,36,-1
 421 0 l 1,37,-1
 421 107 l 1,38,-1
 430 107 l 2,39,40
 454 107 454 107 468 108.5 c 128,-1,41
 482 110 482 110 487.5 112.5 c 128,-1,42
 493 115 493 115 493 118 c 2,43,-1
 330 658 l 1,14,-1
EndSplineSet
EndChar

StartChar: Adblgrave
Encoding: 512 512 18
Width: 770
GlyphClass: 1
Flags: W
LayerCount: 2
Fore
SplineSet
527 927 m 2,0,-1
 572 833 l 1,1,-1
 572 785 l 1,2,-1
 511 785 l 1,3,-1
 429 835 l 2,4,5
 398 854 398 854 376 878.5 c 128,-1,6
 354 903 354 903 354 937 c 0,7,8
 354 966 354 966 374.5 984.5 c 128,-1,9
 395 1003 395 1003 430 1003 c 0,10,11
 455 1003 455 1003 473.5 993 c 128,-1,12
 492 983 492 983 505 966 c 128,-1,13
 518 949 518 949 527 927 c 2,0,-1
296 927 m 2,14,-1
 339 833 l 1,15,-1
 339 785 l 1,16,-1
 279 785 l 1,17,-1
 196 835 l 2,18,19
 165 854 165 854 143 878.5 c 128,-1,20
 121 903 121 903 121 937 c 0,21,22
 121 966 121 966 141.5 984.5 c 128,-1,23
 162 1003 162 1003 197 1003 c 0,24,25
 222 1003 222 1003 241 993 c 128,-1,26
 260 983 260 983 273 966 c 128,-1,27
 286 949 286 949 296 927 c 2,14,-1
201 297 m 1,28,-1
 474 297 l 1,29,-1
 486 200 l 1,30,-1
 190 200 l 1,31,-1
 201 297 l 1,28,-1
330 658 m 1,32,-1
 362 656 l 1,33,-1
 200 130 l 2,34,35
 200 124 200 124 205 118.5 c 128,-1,36
 210 113 210 113 221.5 110 c 128,-1,37
 233 107 233 107 253 107 c 2,38,-1
 262 107 l 1,39,-1
 262 0 l 1,40,-1
 25 0 l 1,41,-1
 25 107 l 1,42,-1
 31 107 l 2,43,44
 52 107 52 107 70 120 c 128,-1,45
 88 133 88 133 100 171 c 2,46,-1
 271 718 l 1,47,-1
 490 718 l 1,48,-1
 662 171 l 2,49,50
 674 133 674 133 694.5 120 c 128,-1,51
 715 107 715 107 740 107 c 2,52,-1
 746 107 l 1,53,-1
 746 0 l 1,54,-1
 421 0 l 1,55,-1
 421 107 l 1,56,-1
 430 107 l 2,57,58
 454 107 454 107 468 108.5 c 128,-1,59
 482 110 482 110 487.5 112.5 c 128,-1,60
 493 115 493 115 493 118 c 2,61,-1
 330 658 l 1,32,-1
EndSplineSet
EndChar

StartChar: Ainvertedbreve
Encoding: 514 514 19
Width: 770
GlyphClass: 1
Flags: W
LayerCount: 2
Fore
SplineSet
372 968 m 0,0,1
 300 968 300 968 254 947.5 c 128,-1,2
 208 927 208 927 186.5 883.5 c 128,-1,3
 165 840 165 840 165 769 c 1,4,-1
 268 769 l 1,5,6
 270 802 270 802 279 819.5 c 128,-1,7
 288 837 288 837 309.5 844 c 128,-1,8
 331 851 331 851 370 851 c 256,9,10
 409 851 409 851 430 844 c 128,-1,11
 451 837 451 837 460 819.5 c 128,-1,12
 469 802 469 802 471 769 c 1,13,-1
 580 769 l 1,14,15
 580 840 580 840 557.5 883.5 c 128,-1,16
 535 927 535 927 489 947.5 c 128,-1,17
 443 968 443 968 372 968 c 0,0,1
201 297 m 1,18,-1
 474 297 l 1,19,-1
 486 200 l 1,20,-1
 190 200 l 1,21,-1
 201 297 l 1,18,-1
330 658 m 1,22,-1
 362 656 l 1,23,-1
 200 130 l 2,24,25
 200 124 200 124 205 118.5 c 128,-1,26
 210 113 210 113 221.5 110 c 128,-1,27
 233 107 233 107 253 107 c 2,28,-1
 262 107 l 1,29,-1
 262 0 l 1,30,-1
 25 0 l 1,31,-1
 25 107 l 1,32,-1
 31 107 l 2,33,34
 52 107 52 107 70 120 c 128,-1,35
 88 133 88 133 100 171 c 2,36,-1
 271 718 l 1,37,-1
 490 718 l 1,38,-1
 662 171 l 2,39,40
 674 133 674 133 694.5 120 c 128,-1,41
 715 107 715 107 740 107 c 2,42,-1
 746 107 l 1,43,-1
 746 0 l 1,44,-1
 421 0 l 1,45,-1
 421 107 l 1,46,-1
 430 107 l 2,47,48
 454 107 454 107 468 108.5 c 128,-1,49
 482 110 482 110 487.5 112.5 c 128,-1,50
 493 115 493 115 493 118 c 2,51,-1
 330 658 l 1,22,-1
EndSplineSet
EndChar

StartChar: B
Encoding: 66 66 32
Width: 769
GlyphClass: 2
Flags: W
AnchorPoint: "Anchor-0" 319 741 basechar 0
LayerCount: 2
Fore
SplineSet
451 710 m 2,0,1
 509 710 509 710 553.5 700.5 c 128,-1,2
 598 691 598 691 627.5 670.5 c 128,-1,3
 657 650 657 650 672 617.5 c 128,-1,4
 687 585 687 585 687 540 c 0,5,6
 687 488 687 488 663.5 453.5 c 128,-1,7
 640 419 640 419 594 401 c 128,-1,8
 548 383 548 383 481 379 c 1,9,-1
 488 406 l 1,10,-1
 488 335 l 1,11,-1
 480 370 l 1,12,13
 556 363 556 363 608 344 c 128,-1,14
 660 325 660 325 687.5 289.5 c 128,-1,15
 715 254 715 254 715 197 c 0,16,17
 715 145 715 145 698.5 107.5 c 128,-1,18
 682 70 682 70 649 46.5 c 128,-1,19
 616 23 616 23 568 11.5 c 128,-1,20
 520 0 520 0 458 0 c 2,21,-1
 46 0 l 1,22,-1
 46 107 l 1,23,-1
 57 107 l 2,24,25
 82 107 82 107 99.5 114 c 128,-1,26
 117 121 117 121 117 143 c 2,27,-1
 117 567 l 2,28,29
 117 589 117 589 99.5 596 c 128,-1,30
 82 603 82 603 57 603 c 2,31,-1
 46 603 l 1,32,-1
 46 710 l 1,33,-1
 451 710 l 2,0,1
246 420 m 1,34,-1
 412 420 l 2,35,36
 445 420 445 420 465 430 c 128,-1,37
 485 440 485 440 495 461.5 c 128,-1,38
 505 483 505 483 505 519 c 0,39,40
 505 546 505 546 495.5 565.5 c 128,-1,41
 486 585 486 585 466 595.5 c 128,-1,42
 446 606 446 606 415 606 c 2,43,-1
 298 606 l 1,44,-1
 298 104 l 1,45,-1
 420 104 l 2,46,47
 457 104 457 104 481 116 c 128,-1,48
 505 128 505 128 517 152.5 c 128,-1,49
 529 177 529 177 529 213 c 0,50,51
 529 250 529 250 516 274 c 128,-1,52
 503 298 503 298 476.5 310 c 128,-1,53
 450 322 450 322 408 322 c 2,54,-1
 246 322 l 1,55,-1
 246 420 l 1,34,-1
EndSplineSet
EndChar

StartChar: C
Encoding: 67 67 33
Width: 780
GlyphClass: 2
Flags: W
AnchorPoint: "Anchor-1" 412 0 basechar 0
AnchorPoint: "Anchor-0" 412 741 basechar 0
LayerCount: 2
Fore
SplineSet
419 624 m 0,0,1
 370 624 370 624 336 610 c 128,-1,2
 302 596 302 596 280.5 564.5 c 128,-1,3
 259 533 259 533 249 481.5 c 128,-1,4
 239 430 239 430 239 355 c 0,5,6
 239 278 239 278 250 226 c 128,-1,7
 261 174 261 174 283.5 143 c 128,-1,8
 306 112 306 112 341 98.5 c 128,-1,9
 376 85 376 85 425 85 c 0,10,11
 488 85 488 85 528 105.5 c 128,-1,12
 568 126 568 126 593 163.5 c 128,-1,13
 618 201 618 201 634 253 c 1,14,-1
 727 212 l 1,15,16
 705 136 705 136 664 83.5 c 128,-1,17
 623 31 623 31 559.5 3 c 128,-1,18
 496 -25 496 -25 406 -25 c 0,19,20
 325 -25 325 -25 260 -2 c 128,-1,21
 195 21 195 21 148 68.5 c 128,-1,22
 101 116 101 116 75.5 187.5 c 128,-1,23
 50 259 50 259 50 355 c 0,24,25
 50 454 50 454 76 525.5 c 128,-1,26
 102 597 102 597 149 643 c 128,-1,27
 196 689 196 689 259.5 712 c 128,-1,28
 323 735 323 735 398 735 c 256,29,30
 473 735 473 735 523.5 705.5 c 128,-1,31
 574 676 574 676 603 621 c 128,-1,32
 632 566 632 566 640 488 c 1,33,-1
 600 539 l 1,34,-1
 619 720 l 1,35,-1
 716 720 l 1,36,-1
 716 460 l 1,37,-1
 603 460 l 1,38,39
 590 509 590 509 566 546 c 128,-1,40
 542 583 542 583 506 603.5 c 128,-1,41
 470 624 470 624 419 624 c 0,0,1
EndSplineSet
EndChar

StartChar: Ccaron
Encoding: 268 268 38
Width: 780
GlyphClass: 1
Flags: W
LayerCount: 2
Fore
SplineSet
343 792 m 1,0,-1
 462 792 l 1,1,-1
 607 948 l 1,2,-1
 607 995 l 1,3,-1
 534 995 l 1,4,-1
 363 883 l 1,5,-1
 450 885 l 1,6,-1
 276 995 l 1,7,-1
 198 995 l 1,8,-1
 198 948 l 1,9,-1
 343 792 l 1,0,-1
419 624 m 0,10,11
 370 624 370 624 336 610 c 128,-1,12
 302 596 302 596 280.5 564.5 c 128,-1,13
 259 533 259 533 249 481.5 c 128,-1,14
 239 430 239 430 239 355 c 0,15,16
 239 278 239 278 250 226 c 128,-1,17
 261 174 261 174 283.5 143 c 128,-1,18
 306 112 306 112 341 98.5 c 128,-1,19
 376 85 376 85 425 85 c 0,20,21
 488 85 488 85 528 105.5 c 128,-1,22
 568 126 568 126 593 163.5 c 128,-1,23
 618 201 618 201 634 253 c 1,24,-1
 727 212 l 1,25,26
 705 136 705 136 664 83.5 c 128,-1,27
 623 31 623 31 559.5 3 c 128,-1,28
 496 -25 496 -25 406 -25 c 0,29,30
 325 -25 325 -25 260 -2 c 128,-1,31
 195 21 195 21 148 68.5 c 128,-1,32
 101 116 101 116 75.5 187.5 c 128,-1,33
 50 259 50 259 50 355 c 0,34,35
 50 454 50 454 76 525.5 c 128,-1,36
 102 597 102 597 149 643 c 128,-1,37
 196 689 196 689 259.5 712 c 128,-1,38
 323 735 323 735 398 735 c 256,39,40
 473 735 473 735 523.5 705.5 c 128,-1,41
 574 676 574 676 603 621 c 128,-1,42
 632 566 632 566 640 488 c 1,43,-1
 600 539 l 1,44,-1
 619 720 l 1,45,-1
 716 720 l 1,46,-1
 716 460 l 1,47,-1
 603 460 l 1,48,49
 590 509 590 509 566 546 c 128,-1,50
 542 583 542 583 506 603.5 c 128,-1,51
 470 624 470 624 419 624 c 0,10,11
EndSplineSet
EndChar

StartChar: D
Encoding: 68 68 40
Width: 837
GlyphClass: 2
Flags: W
AnchorPoint: "Anchor-1" 421 0 basechar 0
AnchorPoint: "Anchor-0" 421 741 basechar 0
LayerCount: 2
Fore
SplineSet
46 603 m 1,0,-1
 46 710 l 1,1,-1
 418 710 l 2,2,3
 501 710 501 710 569 689.5 c 128,-1,4
 637 669 637 669 685.5 626 c 128,-1,5
 734 583 734 583 760.5 516.5 c 128,-1,6
 787 450 787 450 787 359 c 0,7,8
 787 269 787 269 760.5 201 c 128,-1,9
 734 133 734 133 685.5 88.5 c 128,-1,10
 637 44 637 44 569 22 c 128,-1,11
 501 0 501 0 418 0 c 2,12,-1
 46 0 l 1,13,-1
 46 107 l 1,14,-1
 57 107 l 2,15,16
 82 107 82 107 99.5 114 c 128,-1,17
 117 121 117 121 117 143 c 2,18,-1
 117 567 l 2,19,20
 117 589 117 589 99.5 596 c 128,-1,21
 82 603 82 603 57 603 c 2,22,-1
 46 603 l 1,0,-1
397 604 m 2,23,-1
 298 604 l 1,24,-1
 298 106 l 1,25,-1
 397 106 l 2,26,27
 449 106 449 106 486.5 120.5 c 128,-1,28
 524 135 524 135 548.5 165.5 c 128,-1,29
 573 196 573 196 585 244 c 128,-1,30
 597 292 597 292 597 359 c 256,31,32
 597 426 597 426 585 472.5 c 128,-1,33
 573 519 573 519 548.5 548 c 128,-1,34
 524 577 524 577 486.5 590.5 c 128,-1,35
 449 604 449 604 397 604 c 2,23,-1
EndSplineSet
EndChar

StartChar: Dcaron
Encoding: 270 270 41
Width: 837
GlyphClass: 1
Flags: W
LayerCount: 2
Fore
SplineSet
342 792 m 1,0,-1
 462 792 l 1,1,-1
 607 948 l 1,2,-1
 607 995 l 1,3,-1
 533 995 l 1,4,-1
 363 883 l 1,5,-1
 450 885 l 1,6,-1
 275 995 l 1,7,-1
 198 995 l 1,8,-1
 198 948 l 1,9,-1
 342 792 l 1,0,-1
46 603 m 1,10,-1
 46 710 l 1,11,-1
 418 710 l 2,12,13
 501 710 501 710 569 689.5 c 128,-1,14
 637 669 637 669 685.5 626 c 128,-1,15
 734 583 734 583 760.5 516.5 c 128,-1,16
 787 450 787 450 787 359 c 0,17,18
 787 269 787 269 760.5 201 c 128,-1,19
 734 133 734 133 685.5 88.5 c 128,-1,20
 637 44 637 44 569 22 c 128,-1,21
 501 0 501 0 418 0 c 2,22,-1
 46 0 l 1,23,-1
 46 107 l 1,24,-1
 57 107 l 2,25,26
 82 107 82 107 99.5 114 c 128,-1,27
 117 121 117 121 117 143 c 2,28,-1
 117 567 l 2,29,30
 117 589 117 589 99.5 596 c 128,-1,31
 82 603 82 603 57 603 c 2,32,-1
 46 603 l 1,10,-1
397 604 m 2,33,-1
 298 604 l 1,34,-1
 298 106 l 1,35,-1
 397 106 l 2,36,37
 449 106 449 106 486.5 120.5 c 128,-1,38
 524 135 524 135 548.5 165.5 c 128,-1,39
 573 196 573 196 585 244 c 128,-1,40
 597 292 597 292 597 359 c 256,41,42
 597 426 597 426 585 472.5 c 128,-1,43
 573 519 573 519 548.5 548 c 128,-1,44
 524 577 524 577 486.5 590.5 c 128,-1,45
 449 604 449 604 397 604 c 2,33,-1
EndSplineSet
EndChar

StartChar: E
Encoding: 69 69 44
Width: 724
GlyphClass: 2
Flags: W
AnchorPoint: "Anchor-2" 501 0 basechar 0
AnchorPoint: "Anchor-1" 428 0 basechar 0
AnchorPoint: "Anchor-0" 428 741 basechar 0
LayerCount: 2
Fore
SplineSet
665 225 m 1,0,-1
 665 0 l 1,1,-1
 46 0 l 1,2,-1
 46 107 l 1,3,-1
 57 107 l 2,4,5
 81 107 81 107 99 114 c 128,-1,6
 117 121 117 121 117 143 c 2,7,-1
 117 567 l 2,8,9
 117 589 117 589 99 596 c 128,-1,10
 81 603 81 603 57 603 c 2,11,-1
 46 603 l 1,12,-1
 46 710 l 1,13,-1
 648 710 l 1,14,-1
 648 510 l 1,15,-1
 540 510 l 1,16,-1
 532 559 l 2,17,18
 529 577 529 577 519.5 586.5 c 128,-1,19
 510 596 510 596 491 600 c 128,-1,20
 472 604 472 604 441 604 c 2,21,-1
 298 604 l 1,22,-1
 298 106 l 1,23,-1
 440 106 l 2,24,25
 468 106 468 106 487 108 c 128,-1,26
 506 110 506 110 517.5 115 c 128,-1,27
 529 120 529 120 534.5 129 c 128,-1,28
 540 138 540 138 543 151 c 2,29,-1
 555 225 l 1,30,-1
 665 225 l 1,0,-1
282 411 m 1,31,32
 328 415 328 415 373.5 418.5 c 128,-1,33
 419 422 419 422 464.5 426.5 c 128,-1,34
 510 431 510 431 555 434 c 1,35,-1
 555 296 l 1,36,37
 510 301 510 301 464.5 304.5 c 128,-1,38
 419 308 419 308 373.5 311.5 c 128,-1,39
 328 315 328 315 282 318 c 1,40,-1
 282 411 l 1,31,32
EndSplineSet
Substitution2: "'ss01' Style Set 1 lookup 61 subtable" E.alt
EndChar

StartChar: Ecaron
Encoding: 282 282 53
Width: 724
GlyphClass: 1
Flags: W
LayerCount: 2
Fore
SplineSet
311 792 m 1,0,-1
 431 792 l 1,1,-1
 575 948 l 1,2,-1
 575 995 l 1,3,-1
 502 995 l 1,4,-1
 331 883 l 1,5,-1
 418 885 l 1,6,-1
 244 995 l 1,7,-1
 167 995 l 1,8,-1
 167 948 l 1,9,-1
 311 792 l 1,0,-1
665 225 m 1,10,-1
 665 0 l 1,11,-1
 46 0 l 1,12,-1
 46 107 l 1,13,-1
 57 107 l 2,14,15
 81 107 81 107 99 114 c 128,-1,16
 117 121 117 121 117 143 c 2,17,-1
 117 567 l 2,18,19
 117 589 117 589 99 596 c 128,-1,20
 81 603 81 603 57 603 c 2,21,-1
 46 603 l 1,22,-1
 46 710 l 1,23,-1
 648 710 l 1,24,-1
 648 510 l 1,25,-1
 540 510 l 1,26,-1
 532 559 l 2,27,28
 529 577 529 577 519.5 586.5 c 128,-1,29
 510 596 510 596 491 600 c 128,-1,30
 472 604 472 604 441 604 c 2,31,-1
 298 604 l 1,32,-1
 298 106 l 1,33,-1
 440 106 l 2,34,35
 468 106 468 106 487 108 c 128,-1,36
 506 110 506 110 517.5 115 c 128,-1,37
 529 120 529 120 534.5 129 c 128,-1,38
 540 138 540 138 543 151 c 2,39,-1
 555 225 l 1,40,-1
 665 225 l 1,10,-1
282 411 m 1,41,42
 328 415 328 415 373.5 418.5 c 128,-1,43
 419 422 419 422 464.5 426.5 c 128,-1,44
 510 431 510 431 555 434 c 1,45,-1
 555 296 l 1,46,47
 510 301 510 301 464.5 304.5 c 128,-1,48
 419 308 419 308 373.5 311.5 c 128,-1,49
 328 315 328 315 282 318 c 1,50,-1
 282 411 l 1,41,42
EndSplineSet
Substitution2: "'ss01' Style Set 1 lookup 61 subtable" Ecaron.alt
EndChar

StartChar: Edblgrave
Encoding: 516 516 54
Width: 724
GlyphClass: 1
Flags: W
LayerCount: 2
Fore
SplineSet
501 927 m 2,0,-1
 546 833 l 1,1,-1
 546 785 l 1,2,-1
 485 785 l 1,3,-1
 403 835 l 2,4,5
 371 854 371 854 349 878.5 c 128,-1,6
 327 903 327 903 327 937 c 0,7,8
 327 966 327 966 347.5 984.5 c 128,-1,9
 368 1003 368 1003 403 1003 c 0,10,11
 429 1003 429 1003 447 993 c 128,-1,12
 465 983 465 983 478.5 966 c 128,-1,13
 492 949 492 949 501 927 c 2,0,-1
270 927 m 2,14,-1
 313 833 l 1,15,-1
 313 785 l 1,16,-1
 253 785 l 1,17,-1
 170 835 l 2,18,19
 139 854 139 854 117 878.5 c 128,-1,20
 95 903 95 903 95 937 c 0,21,22
 95 966 95 966 115.5 984.5 c 128,-1,23
 136 1003 136 1003 171 1003 c 0,24,25
 196 1003 196 1003 215 993 c 128,-1,26
 234 983 234 983 247 966 c 128,-1,27
 260 949 260 949 270 927 c 2,14,-1
665 225 m 1,28,-1
 665 0 l 1,29,-1
 46 0 l 1,30,-1
 46 107 l 1,31,-1
 57 107 l 2,32,33
 82 107 82 107 99.5 114 c 128,-1,34
 117 121 117 121 117 143 c 2,35,-1
 117 567 l 2,36,37
 117 589 117 589 99.5 596 c 128,-1,38
 82 603 82 603 57 603 c 2,39,-1
 46 603 l 1,40,-1
 46 710 l 1,41,-1
 648 710 l 1,42,-1
 648 510 l 1,43,-1
 540 510 l 1,44,-1
 532 559 l 2,45,46
 529 577 529 577 519.5 586.5 c 128,-1,47
 510 596 510 596 491 600 c 128,-1,48
 472 604 472 604 441 604 c 2,49,-1
 298 604 l 1,50,-1
 298 106 l 1,51,-1
 440 106 l 2,52,53
 468 106 468 106 487 108 c 128,-1,54
 506 110 506 110 517.5 115 c 128,-1,55
 529 120 529 120 534.5 129 c 128,-1,56
 540 138 540 138 543 151 c 2,57,-1
 555 225 l 1,58,-1
 665 225 l 1,28,-1
282 411 m 1,59,60
 328 415 328 415 373.5 418.5 c 128,-1,61
 419 422 419 422 464.5 426.5 c 128,-1,62
 510 431 510 431 555 434 c 1,63,-1
 555 296 l 1,64,65
 510 300 510 300 464.5 304 c 128,-1,66
 419 308 419 308 373.5 311.5 c 128,-1,67
 328 315 328 315 282 318 c 1,68,-1
 282 411 l 1,59,60
EndSplineSet
Substitution2: "'ss01' Style Set 1 lookup 61 subtable" Edblgrave.alt
EndChar

StartChar: Einvertedbreve
Encoding: 518 518 55
Width: 724
GlyphClass: 1
Flags: W
LayerCount: 2
Fore
SplineSet
357 968 m 0,0,1
 285 968 285 968 239 947.5 c 128,-1,2
 193 927 193 927 171.5 883.5 c 128,-1,3
 150 840 150 840 150 769 c 1,4,-1
 253 769 l 1,5,6
 255 802 255 802 264 819.5 c 128,-1,7
 273 837 273 837 294 844 c 128,-1,8
 315 851 315 851 355 851 c 0,9,10
 394 851 394 851 415 844 c 128,-1,11
 436 837 436 837 445 819.5 c 128,-1,12
 454 802 454 802 456 769 c 1,13,-1
 564 769 l 1,14,15
 565 840 565 840 542.5 883.5 c 128,-1,16
 520 927 520 927 474 947.5 c 128,-1,17
 428 968 428 968 357 968 c 0,0,1
665 225 m 1,18,-1
 665 0 l 1,19,-1
 46 0 l 1,20,-1
 46 107 l 1,21,-1
 57 107 l 2,22,23
 82 107 82 107 99.5 114 c 128,-1,24
 117 121 117 121 117 143 c 2,25,-1
 117 567 l 2,26,27
 117 589 117 589 99.5 596 c 128,-1,28
 82 603 82 603 57 603 c 2,29,-1
 46 603 l 1,30,-1
 46 710 l 1,31,-1
 648 710 l 1,32,-1
 648 510 l 1,33,-1
 540 510 l 1,34,-1
 532 559 l 2,35,36
 529 577 529 577 519.5 586.5 c 128,-1,37
 510 596 510 596 491 600 c 128,-1,38
 472 604 472 604 441 604 c 2,39,-1
 298 604 l 1,40,-1
 298 106 l 1,41,-1
 440 106 l 2,42,43
 468 106 468 106 487 108 c 128,-1,44
 506 110 506 110 517.5 115 c 128,-1,45
 529 120 529 120 534.5 129 c 128,-1,46
 540 138 540 138 543 151 c 2,47,-1
 555 225 l 1,48,-1
 665 225 l 1,18,-1
282 411 m 1,49,50
 328 415 328 415 373.5 418.5 c 128,-1,51
 419 422 419 422 464.5 426.5 c 128,-1,52
 510 431 510 431 555 434 c 1,53,-1
 555 296 l 1,54,55
 510 300 510 300 464.5 304 c 128,-1,56
 419 308 419 308 373.5 311.5 c 128,-1,57
 328 315 328 315 282 318 c 1,58,-1
 282 411 l 1,49,50
EndSplineSet
Substitution2: "'ss01' Style Set 1 lookup 61 subtable" Einvertedbreve.alt
EndChar

StartChar: F
Encoding: 70 70 67
Width: 703
GlyphClass: 2
Flags: W
AnchorPoint: "Anchor-0" 312 741 basechar 0
LayerCount: 2
Fore
SplineSet
298 604 m 1,0,-1
 298 117 l 2,1,2
 298 114 298 114 304 112.5 c 128,-1,3
 310 111 310 111 320.5 109.5 c 128,-1,4
 331 108 331 108 345 107.5 c 128,-1,5
 359 107 359 107 374 107 c 2,6,-1
 393 107 l 1,7,-1
 393 0 l 1,8,-1
 46 0 l 1,9,-1
 46 107 l 1,10,-1
 56 107 l 2,11,12
 82 107 82 107 99.5 114 c 128,-1,13
 117 121 117 121 117 143 c 2,14,-1
 117 567 l 2,15,16
 117 589 117 589 99.5 596 c 128,-1,17
 82 603 82 603 56 603 c 2,18,-1
 46 603 l 1,19,-1
 46 710 l 1,20,-1
 648 710 l 1,21,-1
 648 508 l 1,22,-1
 538 508 l 1,23,-1
 528 559 l 2,24,25
 525 577 525 577 515 586.5 c 128,-1,26
 505 596 505 596 485 600 c 128,-1,27
 465 604 465 604 434 604 c 2,28,-1
 298 604 l 1,0,-1
282 396 m 1,29,30
 328 400 328 400 373.5 404 c 128,-1,31
 419 408 419 408 464 412 c 128,-1,32
 509 416 509 416 555 419 c 1,33,-1
 555 281 l 1,34,35
 510 285 510 285 464.5 288.5 c 128,-1,36
 419 292 419 292 373.5 296 c 128,-1,37
 328 300 328 300 282 303 c 1,38,-1
 282 396 l 1,29,30
EndSplineSet
Substitution2: "'ss01' Style Set 1 lookup 61 subtable" F.alt
EndChar

StartChar: G
Encoding: 71 71 68
Width: 840
GlyphClass: 2
Flags: W
AnchorPoint: "Anchor-1" 428 0 basechar 0
AnchorPoint: "Anchor-0" 428 741 basechar 0
LayerCount: 2
Fore
SplineSet
725 208 m 2,0,-1
 725 91 l 1,1,2
 710 75 710 75 681 54.5 c 128,-1,3
 652 34 652 34 611 16 c 128,-1,4
 570 -2 570 -2 520 -13.5 c 128,-1,5
 470 -25 470 -25 412 -25 c 0,6,7
 330 -25 330 -25 263 -1.5 c 128,-1,8
 196 22 196 22 148.5 69.5 c 128,-1,9
 101 117 101 117 75.5 188.5 c 128,-1,10
 50 260 50 260 50 355 c 0,11,12
 50 451 50 451 76.5 522.5 c 128,-1,13
 103 594 103 594 151 641 c 128,-1,14
 199 688 199 688 263.5 711.5 c 128,-1,15
 328 735 328 735 405 735 c 0,16,17
 478 735 478 735 527.5 707.5 c 128,-1,18
 577 680 577 680 606 629.5 c 128,-1,19
 635 579 635 579 645 509 c 1,20,-1
 608 561 l 1,21,-1
 623 720 l 1,22,-1
 719 720 l 1,23,-1
 719 482 l 1,24,-1
 610 482 l 1,25,26
 595 521 595 521 569.5 553.5 c 128,-1,27
 544 586 544 586 508.5 605.5 c 128,-1,28
 473 625 473 625 424 625 c 0,29,30
 376 625 376 625 341 609.5 c 128,-1,31
 306 594 306 594 283.5 561 c 128,-1,32
 261 528 261 528 250 477 c 128,-1,33
 239 426 239 426 239 355 c 0,34,35
 239 281 239 281 251 229.5 c 128,-1,36
 263 178 263 178 286.5 146.5 c 128,-1,37
 310 115 310 115 345 100 c 128,-1,38
 380 85 380 85 426 85 c 0,39,40
 462 85 462 85 488 92 c 128,-1,41
 514 99 514 99 531.5 109 c 128,-1,42
 549 119 549 119 560 128 c 1,43,-1
 560 208 l 2,44,45
 560 233 560 233 537.5 240.5 c 128,-1,46
 515 248 515 248 485 248 c 2,47,-1
 455 248 l 1,48,-1
 455 355 l 1,49,-1
 803 355 l 1,50,-1
 803 248 l 1,51,-1
 779 248 l 2,52,53
 751 248 751 248 738 240.5 c 128,-1,54
 725 233 725 233 725 208 c 2,0,-1
EndSplineSet
EndChar

StartChar: Gcaron
Encoding: 486 486 73
Width: 840
GlyphClass: 1
Flags: W
LayerCount: 2
Fore
SplineSet
357 792 m 1,0,-1
 476 792 l 1,1,-1
 621 948 l 1,2,-1
 621 995 l 1,3,-1
 548 995 l 1,4,-1
 377 883 l 1,5,-1
 464 885 l 1,6,-1
 290 995 l 1,7,-1
 212 995 l 1,8,-1
 212 948 l 1,9,-1
 357 792 l 1,0,-1
725 208 m 2,10,-1
 725 91 l 1,11,12
 710 75 710 75 681 54.5 c 128,-1,13
 652 34 652 34 611 16 c 128,-1,14
 570 -2 570 -2 520 -13.5 c 128,-1,15
 470 -25 470 -25 412 -25 c 0,16,17
 330 -25 330 -25 263 -1.5 c 128,-1,18
 196 22 196 22 148.5 69.5 c 128,-1,19
 101 117 101 117 75.5 188.5 c 128,-1,20
 50 260 50 260 50 355 c 0,21,22
 50 451 50 451 76.5 522.5 c 128,-1,23
 103 594 103 594 151 641 c 128,-1,24
 199 688 199 688 263.5 711.5 c 128,-1,25
 328 735 328 735 405 735 c 0,26,27
 478 735 478 735 527.5 707.5 c 128,-1,28
 577 680 577 680 606 629.5 c 128,-1,29
 635 579 635 579 645 509 c 1,30,-1
 608 561 l 1,31,-1
 623 720 l 1,32,-1
 719 720 l 1,33,-1
 719 482 l 1,34,-1
 610 482 l 1,35,36
 595 521 595 521 569.5 553.5 c 128,-1,37
 544 586 544 586 508.5 605.5 c 128,-1,38
 473 625 473 625 424 625 c 0,39,40
 376 625 376 625 341 609.5 c 128,-1,41
 306 594 306 594 283.5 561 c 128,-1,42
 261 528 261 528 250 477 c 128,-1,43
 239 426 239 426 239 355 c 0,44,45
 239 281 239 281 251 229.5 c 128,-1,46
 263 178 263 178 286.5 146.5 c 128,-1,47
 310 115 310 115 345 100 c 128,-1,48
 380 85 380 85 426 85 c 0,49,50
 462 85 462 85 488 92 c 128,-1,51
 514 99 514 99 531.5 109 c 128,-1,52
 549 119 549 119 560 128 c 1,53,-1
 560 208 l 2,54,55
 560 233 560 233 537.5 240.5 c 128,-1,56
 515 248 515 248 485 248 c 2,57,-1
 455 248 l 1,58,-1
 455 355 l 1,59,-1
 803 355 l 1,60,-1
 803 248 l 1,61,-1
 779 248 l 2,62,63
 751 248 751 248 738 240.5 c 128,-1,64
 725 233 725 233 725 208 c 2,10,-1
EndSplineSet
EndChar

StartChar: H
Encoding: 72 72 75
Width: 863
GlyphClass: 2
Flags: W
AnchorPoint: "Anchor-1" 432 0 basechar 0
AnchorPoint: "Anchor-0" 432 741 basechar 0
LayerCount: 2
Fore
SplineSet
210 419 m 1,0,-1
 627 419 l 1,1,-1
 627 312 l 1,2,-1
 210 312 l 1,3,-1
 210 419 l 1,0,-1
46 0 m 1,4,-1
 46 107 l 1,5,-1
 56 107 l 2,6,7
 82 107 82 107 99.5 114 c 128,-1,8
 117 121 117 121 117 143 c 2,9,-1
 117 567 l 2,10,11
 117 589 117 589 99.5 596 c 128,-1,12
 82 603 82 603 56 603 c 2,13,-1
 46 603 l 1,14,-1
 46 710 l 1,15,-1
 368 710 l 1,16,-1
 368 604 l 1,17,-1
 359 604 l 2,18,19
 350 604 350 604 339 603 c 128,-1,20
 328 602 328 602 318.5 600.5 c 128,-1,21
 309 599 309 599 303.5 597.5 c 128,-1,22
 298 596 298 596 298 593 c 2,23,-1
 298 116 l 2,24,25
 298 113 298 113 303.5 112 c 128,-1,26
 309 111 309 111 318.5 109.5 c 128,-1,27
 328 108 328 108 339 107.5 c 128,-1,28
 350 107 350 107 359 107 c 2,29,-1
 368 107 l 1,30,-1
 368 0 l 1,31,-1
 46 0 l 1,4,-1
495 0 m 1,32,-1
 495 106 l 1,33,-1
 503 106 l 2,34,35
 513 106 513 106 524 107 c 128,-1,36
 535 108 535 108 544 109.5 c 128,-1,37
 553 111 553 111 559 112.5 c 128,-1,38
 565 114 565 114 565 117 c 2,39,-1
 565 594 l 2,40,41
 565 597 565 597 559 598 c 128,-1,42
 553 599 553 599 544 600.5 c 128,-1,43
 535 602 535 602 524 602.5 c 128,-1,44
 513 603 513 603 503 603 c 2,45,-1
 495 603 l 1,46,-1
 495 710 l 1,47,-1
 817 710 l 1,48,-1
 817 603 l 1,49,-1
 806 603 l 2,50,51
 781 603 781 603 763.5 596 c 128,-1,52
 746 589 746 589 746 567 c 2,53,-1
 746 143 l 2,54,55
 746 121 746 121 763.5 114 c 128,-1,56
 781 107 781 107 806 107 c 2,57,-1
 817 107 l 1,58,-1
 817 0 l 1,59,-1
 495 0 l 1,32,-1
EndSplineSet
EndChar

StartChar: I
Encoding: 73 73 79
Width: 436
GlyphClass: 2
Flags: W
AnchorPoint: "Anchor-2" 287 0 basechar 0
AnchorPoint: "Anchor-1" 219 0 basechar 0
AnchorPoint: "Anchor-0" 219 741 basechar 0
LayerCount: 2
Fore
SplineSet
128 143 m 2,0,-1
 128 567 l 2,1,2
 128 589 128 589 110 596 c 128,-1,3
 92 603 92 603 65 603 c 2,4,-1
 46 603 l 1,5,-1
 46 710 l 1,6,-1
 391 710 l 1,7,-1
 391 603 l 1,8,-1
 371 603 l 2,9,10
 344 603 344 603 326.5 596 c 128,-1,11
 309 589 309 589 309 567 c 2,12,-1
 309 143 l 2,13,14
 309 121 309 121 326.5 114 c 128,-1,15
 344 107 344 107 371 107 c 2,16,-1
 391 107 l 1,17,-1
 391 0 l 1,18,-1
 46 0 l 1,19,-1
 46 107 l 1,20,-1
 65 107 l 2,21,22
 92 107 92 107 110 114 c 128,-1,23
 128 121 128 121 128 143 c 2,0,-1
EndSplineSet
EndChar

StartChar: Icaron
Encoding: 463 463 89
Width: 436
GlyphClass: 1
Flags: W
LayerCount: 2
Fore
SplineSet
158 792 m 1,0,-1
 278 792 l 1,1,-1
 422 948 l 1,2,-1
 422 995 l 1,3,-1
 349 995 l 1,4,-1
 178 883 l 1,5,-1
 265 885 l 1,6,-1
 91 995 l 1,7,-1
 14 995 l 1,8,-1
 14 948 l 1,9,-1
 158 792 l 1,0,-1
128 143 m 2,10,-1
 128 567 l 2,11,12
 128 589 128 589 110 596 c 128,-1,13
 92 603 92 603 65 603 c 2,14,-1
 46 603 l 1,15,-1
 46 710 l 1,16,-1
 391 710 l 1,17,-1
 391 603 l 1,18,-1
 371 603 l 2,19,20
 344 603 344 603 326.5 596 c 128,-1,21
 309 589 309 589 309 567 c 2,22,-1
 309 143 l 2,23,24
 309 121 309 121 326.5 114 c 128,-1,25
 344 107 344 107 371 107 c 2,26,-1
 391 107 l 1,27,-1
 391 0 l 1,28,-1
 46 0 l 1,29,-1
 46 107 l 1,30,-1
 65 107 l 2,31,32
 92 107 92 107 110 114 c 128,-1,33
 128 121 128 121 128 143 c 2,10,-1
EndSplineSet
EndChar

StartChar: Idblgrave
Encoding: 520 520 90
Width: 436
GlyphClass: 1
Flags: W
LayerCount: 2
Fore
SplineSet
358 927 m 2,0,-1
 402 833 l 1,1,-1
 402 785 l 1,2,-1
 342 785 l 1,3,-1
 259 835 l 2,4,5
 228 854 228 854 206 878.5 c 128,-1,6
 184 903 184 903 184 937 c 0,7,8
 184 966 184 966 204.5 984.5 c 128,-1,9
 225 1003 225 1003 260 1003 c 0,10,11
 285 1003 285 1003 303.5 993 c 128,-1,12
 322 983 322 983 335 966 c 128,-1,13
 348 949 348 949 358 927 c 2,0,-1
126 927 m 2,14,-1
 170 833 l 1,15,-1
 170 785 l 1,16,-1
 109 785 l 1,17,-1
 27 835 l 2,18,19
 -5 854 -5 854 -26.5 878.5 c 128,-1,20
 -48 903 -48 903 -48 937 c 0,21,22
 -48 966 -48 966 -27.5 984.5 c 128,-1,23
 -7 1003 -7 1003 28 1003 c 0,24,25
 53 1003 53 1003 71.5 993 c 128,-1,26
 90 983 90 983 103.5 966 c 128,-1,27
 117 949 117 949 126 927 c 2,14,-1
128 143 m 2,28,-1
 128 567 l 2,29,30
 128 589 128 589 110 596 c 128,-1,31
 92 603 92 603 66 603 c 2,32,-1
 46 603 l 1,33,-1
 46 710 l 1,34,-1
 391 710 l 1,35,-1
 391 603 l 1,36,-1
 371 603 l 2,37,38
 344 603 344 603 326.5 596 c 128,-1,39
 309 589 309 589 309 567 c 2,40,-1
 309 143 l 2,41,42
 309 121 309 121 326.5 114 c 128,-1,43
 344 107 344 107 371 107 c 2,44,-1
 391 107 l 1,45,-1
 391 0 l 1,46,-1
 46 0 l 1,47,-1
 46 107 l 1,48,-1
 66 107 l 2,49,50
 92 107 92 107 110 114 c 128,-1,51
 128 121 128 121 128 143 c 2,28,-1
EndSplineSet
EndChar

StartChar: Iinvertedbreve
Encoding: 522 522 91
Width: 436
GlyphClass: 1
Flags: W
LayerCount: 2
Fore
SplineSet
218 968 m 256,0,1
 146 968 146 968 100 947.5 c 128,-1,2
 54 927 54 927 32.5 883.5 c 128,-1,3
 11 840 11 840 11 769 c 1,4,-1
 115 769 l 1,5,6
 117 802 117 802 125.5 819.5 c 128,-1,7
 134 837 134 837 155.5 844 c 128,-1,8
 177 851 177 851 217 851 c 0,9,10
 255 851 255 851 276 844 c 128,-1,11
 297 837 297 837 306 819.5 c 128,-1,12
 315 802 315 802 317 769 c 1,13,-1
 426 769 l 1,14,15
 426 840 426 840 403.5 883.5 c 128,-1,16
 381 927 381 927 335.5 947.5 c 128,-1,17
 290 968 290 968 218 968 c 256,0,1
128 143 m 2,18,-1
 128 567 l 2,19,20
 128 589 128 589 110 596 c 128,-1,21
 92 603 92 603 66 603 c 2,22,-1
 46 603 l 1,23,-1
 46 710 l 1,24,-1
 391 710 l 1,25,-1
 391 603 l 1,26,-1
 371 603 l 2,27,28
 345 603 345 603 327 596 c 128,-1,29
 309 589 309 589 309 567 c 2,30,-1
 309 143 l 2,31,32
 309 121 309 121 327 114 c 128,-1,33
 345 107 345 107 371 107 c 2,34,-1
 391 107 l 1,35,-1
 391 0 l 1,36,-1
 46 0 l 1,37,-1
 46 107 l 1,38,-1
 66 107 l 2,39,40
 92 107 92 107 110 114 c 128,-1,41
 128 121 128 121 128 143 c 2,18,-1
EndSplineSet
EndChar

StartChar: J
Encoding: 74 74 94
Width: 701
GlyphClass: 2
Flags: W
AnchorPoint: "Anchor-0" 471 741 basechar 0
LayerCount: 2
Fore
SplineSet
301 710 m 1,0,-1
 660 710 l 1,1,-1
 660 603 l 1,2,-1
 640 603 l 2,3,4
 615 603 615 603 597.5 596 c 128,-1,5
 580 589 580 589 580 567 c 2,6,-1
 580 233 l 2,7,8
 580 164 580 164 559 115 c 128,-1,9
 538 66 538 66 499.5 35 c 128,-1,10
 461 4 461 4 407 -10.5 c 128,-1,11
 353 -25 353 -25 287 -25 c 0,12,13
 223 -25 223 -25 173.5 -12 c 128,-1,14
 124 1 124 1 91.5 18 c 128,-1,15
 59 35 59 35 45 47 c 1,16,-1
 45 256 l 1,17,-1
 208 256 l 1,18,-1
 208 46 l 1,19,20
 189 52 189 52 174 63.5 c 128,-1,21
 159 75 159 75 150 88 c 128,-1,22
 141 101 141 101 138.5 112.5 c 128,-1,23
 136 124 136 124 142 129 c 1,24,25
 153 120 153 120 173.5 110 c 128,-1,26
 194 100 194 100 220.5 92.5 c 128,-1,27
 247 85 247 85 279 85 c 0,28,29
 319 85 319 85 345 99 c 128,-1,30
 371 113 371 113 384.5 147.5 c 128,-1,31
 398 182 398 182 398 245 c 2,32,-1
 398 567 l 2,33,34
 398 582 398 582 388.5 589.5 c 128,-1,35
 379 597 379 597 363 600 c 128,-1,36
 347 603 347 603 329 603 c 2,37,-1
 301 603 l 1,38,-1
 301 710 l 1,0,-1
EndSplineSet
EndChar

StartChar: K
Encoding: 75 75 96
Width: 846
GlyphClass: 2
Flags: W
AnchorPoint: "Anchor-1" 436 0 basechar 0
AnchorPoint: "Anchor-0" 436 741 basechar 0
LayerCount: 2
Fore
SplineSet
46 0 m 1,0,-1
 46 107 l 1,1,-1
 57 107 l 2,2,3
 82 107 82 107 99.5 114 c 128,-1,4
 117 121 117 121 117 143 c 2,5,-1
 117 567 l 2,6,7
 117 589 117 589 99.5 596 c 128,-1,8
 82 603 82 603 57 603 c 2,9,-1
 46 603 l 1,10,-1
 46 710 l 1,11,-1
 374 710 l 1,12,-1
 374 603 l 1,13,-1
 362 603 l 2,14,15
 350 603 350 603 338.5 602.5 c 128,-1,16
 327 602 327 602 318 600.5 c 128,-1,17
 309 599 309 599 303.5 597.5 c 128,-1,18
 298 596 298 596 298 593 c 2,19,-1
 298 116 l 2,20,21
 298 114 298 114 303.5 112.5 c 128,-1,22
 309 111 309 111 317 109.5 c 128,-1,23
 325 108 325 108 335 107.5 c 128,-1,24
 345 107 345 107 353 107 c 2,25,-1
 361 107 l 1,26,-1
 361 0 l 1,27,-1
 46 0 l 1,0,-1
470 0 m 1,28,-1
 470 107 l 1,29,-1
 480 107 l 2,30,31
 495 107 495 107 507 108 c 128,-1,32
 519 109 519 109 527 111.5 c 128,-1,33
 535 114 535 114 535 117 c 2,34,-1
 333 348 l 1,35,-1
 333 372 l 1,36,-1
 571 592 l 2,37,38
 571 596 571 596 562.5 598 c 128,-1,39
 554 600 554 600 540.5 601.5 c 128,-1,40
 527 603 527 603 511 603 c 2,41,-1
 496 603 l 1,42,-1
 496 710 l 1,43,-1
 786 710 l 1,44,-1
 786 603 l 1,45,-1
 767 603 l 2,46,47
 753 603 753 603 741 600 c 128,-1,48
 729 597 729 597 717.5 591 c 128,-1,49
 706 585 706 585 694 573 c 2,50,-1
 457 355 l 1,51,-1
 477 443 l 1,52,-1
 753 128 l 2,53,54
 761 120 761 120 769.5 115 c 128,-1,55
 778 110 778 110 787 108.5 c 128,-1,56
 796 107 796 107 806 107 c 2,57,-1
 819 107 l 1,58,-1
 819 0 l 1,59,-1
 470 0 l 1,28,-1
EndSplineSet
EndChar

StartChar: L
Encoding: 76 76 98
Width: 696
GlyphClass: 2
Flags: W
AnchorPoint: "Anchor-2" 530 710 basechar 0
AnchorPoint: "Anchor-1" 427 0 basechar 0
AnchorPoint: "Anchor-0" 427 741 basechar 0
LayerCount: 2
Fore
SplineSet
389 710 m 1,0,-1
 46 710 l 1,1,-1
 46 603 l 1,2,-1
 56 603 l 2,3,4
 82 603 82 603 99.5 596 c 128,-1,5
 117 589 117 589 117 567 c 2,6,-1
 117 143 l 2,7,8
 117 121 117 121 99.5 114 c 128,-1,9
 82 107 82 107 56 107 c 2,10,-1
 46 107 l 1,11,-1
 46 0 l 1,12,-1
 653 0 l 1,13,-1
 653 261 l 1,14,-1
 541 261 l 1,15,-1
 527 151 l 2,16,17
 525 133 525 133 516 123 c 128,-1,18
 507 113 507 113 485.5 109.5 c 128,-1,19
 464 106 464 106 426 106 c 2,20,-1
 298 106 l 1,21,-1
 298 567 l 2,22,23
 298 589 298 589 318 596 c 128,-1,24
 338 603 338 603 370 603 c 2,25,-1
 389 603 l 1,26,-1
 389 710 l 1,0,-1
EndSplineSet
EndChar

StartChar: M
Encoding: 77 77 104
Width: 1027
GlyphClass: 2
Flags: W
AnchorPoint: "Anchor-1" 501 0 basechar 0
LayerCount: 2
Fore
SplineSet
46 0 m 1,0,-1
 46 107 l 1,1,-1
 57 107 l 2,2,3
 73 107 73 107 84 110 c 128,-1,4
 95 113 95 113 102 121 c 128,-1,5
 109 129 109 129 109 143 c 2,6,-1
 109 567 l 2,7,8
 109 582 109 582 102 589.5 c 128,-1,9
 95 597 95 597 83.5 600 c 128,-1,10
 72 603 72 603 57 603 c 2,11,-1
 46 603 l 1,12,-1
 46 710 l 1,13,-1
 381 710 l 1,14,-1
 542 197 l 1,15,-1
 485 221 l 1,16,-1
 650 710 l 1,17,-1
 980 710 l 1,18,-1
 980 603 l 1,19,-1
 970 603 l 2,20,21
 945 603 945 603 927 596 c 128,-1,22
 909 589 909 589 909 567 c 2,23,-1
 909 143 l 2,24,25
 909 121 909 121 927 114 c 128,-1,26
 945 107 945 107 970 107 c 2,27,-1
 980 107 l 1,28,-1
 980 0 l 1,29,-1
 659 0 l 1,30,-1
 659 107 l 1,31,-1
 668 107 l 2,32,33
 679 107 679 107 693 108 c 128,-1,34
 707 109 707 109 718 111.5 c 128,-1,35
 729 114 729 114 729 117 c 2,36,-1
 729 690 l 1,37,-1
 749 691 l 1,38,-1
 517 -6 l 1,39,-1
 428 -6 l 1,40,-1
 200 690 l 1,41,-1
 221 692 l 1,42,-1
 221 117 l 2,43,44
 221 114 221 114 228 111.5 c 128,-1,45
 235 109 235 109 245 108 c 128,-1,46
 255 107 255 107 262 107 c 2,47,-1
 268 107 l 1,48,-1
 268 0 l 1,49,-1
 46 0 l 1,0,-1
EndSplineSet
EndChar

StartChar: N
Encoding: 78 78 106
Width: 834
GlyphClass: 2
Flags: W
AnchorPoint: "Anchor-1" 427 0 basechar 0
AnchorPoint: "Anchor-0" 427 741 basechar 0
LayerCount: 2
Fore
SplineSet
46 0 m 1,0,-1
 46 107 l 1,1,-1
 57 107 l 2,2,3
 74 107 74 107 86.5 110 c 128,-1,4
 99 113 99 113 106 121 c 128,-1,5
 113 129 113 129 113 143 c 2,6,-1
 113 567 l 2,7,8
 113 582 113 582 106 589.5 c 128,-1,9
 99 597 99 597 86.5 600 c 128,-1,10
 74 603 74 603 57 603 c 2,11,-1
 46 603 l 1,12,-1
 46 710 l 1,13,-1
 356 710 l 1,14,-1
 644 149 l 1,15,-1
 619 146 l 1,16,-1
 619 593 l 2,17,18
 619 597 619 597 611 599 c 128,-1,19
 603 601 603 601 592 602 c 128,-1,20
 581 603 581 603 570 603 c 2,21,-1
 557 603 l 1,22,-1
 557 710 l 1,23,-1
 793 710 l 1,24,-1
 793 603 l 1,25,-1
 783 603 l 2,26,27
 766 603 766 603 754.5 600.5 c 128,-1,28
 743 598 743 598 737 591.5 c 128,-1,29
 731 585 731 585 731 570 c 2,30,-1
 731 0 l 1,31,-1
 527 0 l 1,32,-1
 185 666 l 1,33,-1
 225 657 l 1,34,-1
 225 117 l 2,35,36
 225 114 225 114 233 111.5 c 128,-1,37
 241 109 241 109 252.5 108 c 128,-1,38
 264 107 264 107 274 107 c 2,39,-1
 287 107 l 1,40,-1
 287 0 l 1,41,-1
 46 0 l 1,0,-1
EndSplineSet
EndChar

StartChar: Ncaron
Encoding: 327 327 110
Width: 834
GlyphClass: 1
Flags: W
LayerCount: 2
Fore
SplineSet
368 792 m 1,0,-1
 487 792 l 1,1,-1
 632 948 l 1,2,-1
 632 995 l 1,3,-1
 559 995 l 1,4,-1
 388 883 l 1,5,-1
 475 885 l 1,6,-1
 301 995 l 1,7,-1
 223 995 l 1,8,-1
 223 948 l 1,9,-1
 368 792 l 1,0,-1
46 0 m 1,10,-1
 46 107 l 1,11,-1
 57 107 l 2,12,13
 74 107 74 107 86.5 110 c 128,-1,14
 99 113 99 113 106 121 c 128,-1,15
 113 129 113 129 113 143 c 2,16,-1
 113 567 l 2,17,18
 113 582 113 582 106 589.5 c 128,-1,19
 99 597 99 597 86.5 600 c 128,-1,20
 74 603 74 603 57 603 c 2,21,-1
 46 603 l 1,22,-1
 46 710 l 1,23,-1
 356 710 l 1,24,-1
 644 149 l 1,25,-1
 619 146 l 1,26,-1
 619 593 l 2,27,28
 619 597 619 597 611 599 c 128,-1,29
 603 601 603 601 592 602 c 128,-1,30
 581 603 581 603 570 603 c 2,31,-1
 557 603 l 1,32,-1
 557 710 l 1,33,-1
 793 710 l 1,34,-1
 793 603 l 1,35,-1
 783 603 l 2,36,37
 766 603 766 603 754.5 600.5 c 128,-1,38
 743 598 743 598 737 591.5 c 128,-1,39
 731 585 731 585 731 570 c 2,40,-1
 731 0 l 1,41,-1
 527 0 l 1,42,-1
 185 666 l 1,43,-1
 225 657 l 1,44,-1
 225 117 l 2,45,46
 225 114 225 114 233 111.5 c 128,-1,47
 241 109 241 109 252.5 108 c 128,-1,48
 264 107 264 107 274 107 c 2,49,-1
 287 107 l 1,50,-1
 287 0 l 1,51,-1
 46 0 l 1,10,-1
EndSplineSet
EndChar

StartChar: O
Encoding: 79 79 114
Width: 837
GlyphClass: 2
Flags: W
AnchorPoint: "Anchor-2" 461 0 basechar 0
AnchorPoint: "Anchor-1" 419 0 basechar 0
AnchorPoint: "Anchor-0" 419 741 basechar 0
LayerCount: 2
Fore
SplineSet
419 -25 m 256,0,1
 335 -25 335 -25 267.5 -1 c 128,-1,2
 200 23 200 23 151 70.5 c 128,-1,3
 102 118 102 118 76 189.5 c 128,-1,4
 50 261 50 261 50 355 c 0,5,6
 50 450 50 450 76 521 c 128,-1,7
 102 592 102 592 151 639.5 c 128,-1,8
 200 687 200 687 267.5 711 c 128,-1,9
 335 735 335 735 419 735 c 256,10,11
 503 735 503 735 571 711 c 128,-1,12
 639 687 639 687 687 639.5 c 128,-1,13
 735 592 735 592 761 521 c 128,-1,14
 787 450 787 450 787 355 c 0,15,16
 787 261 787 261 761 189.5 c 128,-1,17
 735 118 735 118 687 70.5 c 128,-1,18
 639 23 639 23 571 -1 c 128,-1,19
 503 -25 503 -25 419 -25 c 256,0,1
419 87 m 256,20,21
 465 87 465 87 499 101 c 128,-1,22
 533 115 533 115 554.5 146 c 128,-1,23
 576 177 576 177 587 228 c 128,-1,24
 598 279 598 279 598 355 c 0,25,26
 598 430 598 430 587 481.5 c 128,-1,27
 576 533 576 533 554.5 564 c 128,-1,28
 533 595 533 595 499 609 c 128,-1,29
 465 623 465 623 419 623 c 256,30,31
 373 623 373 623 339.5 609 c 128,-1,32
 306 595 306 595 283.5 564 c 128,-1,33
 261 533 261 533 250 481.5 c 128,-1,34
 239 430 239 430 239 355 c 256,35,36
 239 280 239 280 250 228.5 c 128,-1,37
 261 177 261 177 283 146 c 128,-1,38
 305 115 305 115 339 101 c 128,-1,39
 373 87 373 87 419 87 c 256,20,21
EndSplineSet
EndChar

StartChar: Ohorn
Encoding: 416 416 123
Width: 931
GlyphClass: 2
Flags: W
AnchorPoint: "Anchor-1" 462 -35 basechar 0
AnchorPoint: "Anchor-0" 462 742 basechar 0
LayerCount: 2
Fore
SplineSet
419 87 m 256,0,1
 465 87 465 87 499 100.5 c 128,-1,2
 533 114 533 114 555 145 c 128,-1,3
 577 176 577 176 587.5 227.5 c 128,-1,4
 598 279 598 279 598 355 c 256,5,6
 598 431 598 431 587.5 482.5 c 128,-1,7
 577 534 577 534 555 565 c 128,-1,8
 533 596 533 596 499 609.5 c 128,-1,9
 465 623 465 623 419 623 c 256,10,11
 373 623 373 623 339 609.5 c 128,-1,12
 305 596 305 596 283 565 c 128,-1,13
 261 534 261 534 250 482.5 c 128,-1,14
 239 431 239 431 239 355 c 256,15,16
 239 279 239 279 250 227.5 c 128,-1,17
 261 176 261 176 283 145 c 128,-1,18
 305 114 305 114 339 100.5 c 128,-1,19
 373 87 373 87 419 87 c 256,0,1
653 561 m 1,20,-1
 614 625 l 1,21,22
 652 602 652 602 683.5 575.5 c 128,-1,23
 715 549 715 549 738.5 516.5 c 128,-1,24
 762 484 762 484 774.5 443 c 128,-1,25
 787 402 787 402 787 350 c 0,26,27
 787 258 787 258 761 188 c 128,-1,28
 735 118 735 118 687 70.5 c 128,-1,29
 639 23 639 23 571 -1 c 128,-1,30
 503 -25 503 -25 419 -25 c 256,31,32
 335 -25 335 -25 267.5 -1 c 128,-1,33
 200 23 200 23 151 70.5 c 128,-1,34
 102 118 102 118 76 189.5 c 128,-1,35
 50 261 50 261 50 355 c 0,36,37
 50 450 50 450 76 521 c 128,-1,38
 102 592 102 592 151 639.5 c 128,-1,39
 200 687 200 687 267.5 711 c 128,-1,40
 335 735 335 735 419 735 c 0,41,42
 468 735 468 735 506.5 729 c 128,-1,43
 545 723 545 723 577 716 c 128,-1,44
 609 709 609 709 636.5 703.5 c 128,-1,45
 664 698 664 698 690 698 c 0,46,47
 712 698 712 698 727.5 708.5 c 128,-1,48
 743 719 743 719 753 742 c 128,-1,49
 763 765 763 765 770 802.5 c 128,-1,50
 777 840 777 840 780 893 c 1,51,-1
 931 893 l 1,52,53
 930 810 930 810 916 750 c 128,-1,54
 902 690 902 690 878 651.5 c 128,-1,55
 854 613 854 613 822.5 594.5 c 128,-1,56
 791 576 791 576 755 576 c 0,57,58
 737 576 737 576 718 579.5 c 128,-1,59
 699 583 699 583 678.5 589 c 128,-1,60
 658 595 658 595 637 604 c 128,-1,61
 616 613 616 613 595 625 c 1,62,-1
 653 615 l 1,63,-1
 653 561 l 1,20,-1
EndSplineSet
EndChar

StartChar: Ocaron
Encoding: 465 465 124
Width: 832
GlyphClass: 1
Flags: W
LayerCount: 2
Fore
SplineSet
356 792 m 1,0,-1
 476 792 l 1,1,-1
 620 948 l 1,2,-1
 620 995 l 1,3,-1
 547 995 l 1,4,-1
 376 883 l 1,5,-1
 463 885 l 1,6,-1
 289 995 l 1,7,-1
 212 995 l 1,8,-1
 212 948 l 1,9,-1
 356 792 l 1,0,-1
419 -25 m 0,10,11
 335 -25 335 -25 267.5 -1 c 128,-1,12
 200 23 200 23 151 70.5 c 128,-1,13
 102 118 102 118 76 189.5 c 128,-1,14
 50 261 50 261 50 355 c 0,15,16
 50 450 50 450 76 521 c 128,-1,17
 102 592 102 592 151 639.5 c 128,-1,18
 200 687 200 687 267.5 711 c 128,-1,19
 335 735 335 735 419 735 c 0,20,21
 502 735 502 735 570 711 c 128,-1,22
 638 687 638 687 686.5 639.5 c 128,-1,23
 735 592 735 592 761 521 c 128,-1,24
 787 450 787 450 787 355 c 0,25,26
 787 261 787 261 761 189.5 c 128,-1,27
 735 118 735 118 686.5 70.5 c 128,-1,28
 638 23 638 23 570 -1 c 128,-1,29
 502 -25 502 -25 419 -25 c 0,10,11
419 87 m 256,30,31
 465 87 465 87 498.5 101 c 128,-1,32
 532 115 532 115 554 146 c 128,-1,33
 576 177 576 177 587 228.5 c 128,-1,34
 598 280 598 280 598 355 c 256,35,36
 598 430 598 430 587 481.5 c 128,-1,37
 576 533 576 533 554 564 c 128,-1,38
 532 595 532 595 498.5 609 c 128,-1,39
 465 623 465 623 419 623 c 256,40,41
 373 623 373 623 339 609 c 128,-1,42
 305 595 305 595 283 564 c 128,-1,43
 261 533 261 533 250 481.5 c 128,-1,44
 239 430 239 430 239 355 c 256,45,46
 239 280 239 280 250 228.5 c 128,-1,47
 261 177 261 177 283 146 c 128,-1,48
 305 115 305 115 339 101 c 128,-1,49
 373 87 373 87 419 87 c 256,30,31
EndSplineSet
EndChar

StartChar: Oogonek
Encoding: 490 490 125
Width: 837
GlyphClass: 1
Flags: W
LayerCount: 2
Fore
SplineSet
419 87 m 256,0,1
 465 87 465 87 499 100.5 c 128,-1,2
 533 114 533 114 555 145 c 128,-1,3
 577 176 577 176 587.5 227.5 c 128,-1,4
 598 279 598 279 598 355 c 256,5,6
 598 431 598 431 587.5 482.5 c 128,-1,7
 577 534 577 534 555 565 c 128,-1,8
 533 596 533 596 499 609.5 c 128,-1,9
 465 623 465 623 419 623 c 256,10,11
 373 623 373 623 339 609.5 c 128,-1,12
 305 596 305 596 283 565 c 128,-1,13
 261 534 261 534 250 482.5 c 128,-1,14
 239 431 239 431 239 355 c 256,15,16
 239 279 239 279 250 227.5 c 128,-1,17
 261 176 261 176 283 145 c 128,-1,18
 305 114 305 114 339 100.5 c 128,-1,19
 373 87 373 87 419 87 c 256,0,1
687 71 m 0,20,21
 664 48 664 48 635 27.5 c 128,-1,22
 606 7 606 7 577.5 -13 c 128,-1,23
 549 -33 549 -33 524.5 -51.5 c 128,-1,24
 500 -70 500 -70 485.5 -89.5 c 128,-1,25
 471 -109 471 -109 471 -129 c 0,26,27
 471 -148 471 -148 482.5 -158.5 c 128,-1,28
 494 -169 494 -169 519 -169 c 256,29,30
 544 -169 544 -169 564.5 -155.5 c 128,-1,31
 585 -142 585 -142 599 -128 c 1,32,-1
 646 -183 l 1,33,34
 630 -200 630 -200 606 -216 c 128,-1,35
 582 -232 582 -232 549.5 -242 c 128,-1,36
 517 -252 517 -252 471 -252 c 256,37,38
 425 -252 425 -252 389 -241 c 128,-1,39
 353 -230 353 -230 332.5 -207 c 128,-1,40
 312 -184 312 -184 312 -151 c 0,41,42
 312 -125 312 -125 323 -105 c 128,-1,43
 334 -85 334 -85 361 -65.5 c 128,-1,44
 388 -46 388 -46 436.5 -21.5 c 128,-1,45
 485 3 485 3 561 38 c 1,46,-1
 557 -6 l 1,47,48
 536 -12 536 -12 514 -16 c 128,-1,49
 492 -20 492 -20 468 -22.5 c 128,-1,50
 444 -25 444 -25 419 -25 c 0,51,52
 335 -25 335 -25 267.5 -1 c 128,-1,53
 200 23 200 23 151 70.5 c 128,-1,54
 102 118 102 118 76 189.5 c 128,-1,55
 50 261 50 261 50 355 c 0,56,57
 50 450 50 450 76 521 c 128,-1,58
 102 592 102 592 151 639.5 c 128,-1,59
 200 687 200 687 267.5 711 c 128,-1,60
 335 735 335 735 419 735 c 256,61,62
 503 735 503 735 571 711 c 128,-1,63
 639 687 639 687 687 639.5 c 128,-1,64
 735 592 735 592 761 521 c 128,-1,65
 787 450 787 450 787 355 c 0,66,67
 787 293 787 293 775.5 240.5 c 128,-1,68
 764 188 764 188 741.5 146 c 128,-1,69
 719 104 719 104 687 71 c 0,20,21
EndSplineSet
EndChar

StartChar: Odblgrave
Encoding: 524 524 126
Width: 837
GlyphClass: 1
Flags: W
LayerCount: 2
Fore
SplineSet
565 927 m 2,0,-1
 609 833 l 1,1,-1
 609 785 l 1,2,-1
 549 785 l 1,3,-1
 466 835 l 2,4,5
 435 854 435 854 413 878.5 c 128,-1,6
 391 903 391 903 391 937 c 0,7,8
 391 966 391 966 411.5 984.5 c 128,-1,9
 432 1003 432 1003 467 1003 c 0,10,11
 492 1003 492 1003 510.5 993 c 128,-1,12
 529 983 529 983 542 966 c 128,-1,13
 555 949 555 949 565 927 c 2,0,-1
333 927 m 2,14,-1
 377 833 l 1,15,-1
 377 785 l 1,16,-1
 316 785 l 1,17,-1
 234 835 l 2,18,19
 202 854 202 854 180.5 878.5 c 128,-1,20
 159 903 159 903 159 937 c 0,21,22
 159 966 159 966 179 984.5 c 128,-1,23
 199 1003 199 1003 235 1003 c 0,24,25
 260 1003 260 1003 278.5 993 c 128,-1,26
 297 983 297 983 310.5 966 c 128,-1,27
 324 949 324 949 333 927 c 2,14,-1
419 -25 m 256,28,29
 335 -25 335 -25 267.5 -1 c 128,-1,30
 200 23 200 23 151 70.5 c 128,-1,31
 102 118 102 118 76 189.5 c 128,-1,32
 50 261 50 261 50 355 c 0,33,34
 50 450 50 450 76 521 c 128,-1,35
 102 592 102 592 151 639.5 c 128,-1,36
 200 687 200 687 267.5 711 c 128,-1,37
 335 735 335 735 419 735 c 256,38,39
 503 735 503 735 571 711 c 128,-1,40
 639 687 639 687 687 639.5 c 128,-1,41
 735 592 735 592 761 521 c 128,-1,42
 787 450 787 450 787 355 c 0,43,44
 787 261 787 261 761 189.5 c 128,-1,45
 735 118 735 118 687 70.5 c 128,-1,46
 639 23 639 23 571 -1 c 128,-1,47
 503 -25 503 -25 419 -25 c 256,28,29
419 87 m 256,48,49
 465 87 465 87 499 101 c 128,-1,50
 533 115 533 115 554.5 146 c 128,-1,51
 576 177 576 177 587 228.5 c 128,-1,52
 598 280 598 280 598 355 c 256,53,54
 598 430 598 430 587 481.5 c 128,-1,55
 576 533 576 533 554.5 564 c 128,-1,56
 533 595 533 595 499 609 c 128,-1,57
 465 623 465 623 419 623 c 256,58,59
 373 623 373 623 339 609 c 128,-1,60
 305 595 305 595 283 564 c 128,-1,61
 261 533 261 533 250 481.5 c 128,-1,62
 239 430 239 430 239 355 c 256,63,64
 239 280 239 280 250 228.5 c 128,-1,65
 261 177 261 177 283 146 c 128,-1,66
 305 115 305 115 339 101 c 128,-1,67
 373 87 373 87 419 87 c 256,48,49
EndSplineSet
EndChar

StartChar: Oinvertedbreve
Encoding: 526 526 127
Width: 837
GlyphClass: 1
Flags: W
LayerCount: 2
Fore
SplineSet
419 968 m 0,0,1
 346 968 346 968 300.5 947.5 c 128,-1,2
 255 927 255 927 233.5 883.5 c 128,-1,3
 212 840 212 840 211 769 c 1,4,-1
 315 769 l 1,5,6
 317 802 317 802 325.5 819.5 c 128,-1,7
 334 837 334 837 355.5 844 c 128,-1,8
 377 851 377 851 417 851 c 0,9,10
 456 851 456 851 477 844 c 128,-1,11
 498 837 498 837 507 819.5 c 128,-1,12
 516 802 516 802 517 769 c 1,13,-1
 626 769 l 1,14,15
 626 840 626 840 603.5 883.5 c 128,-1,16
 581 927 581 927 535.5 947.5 c 128,-1,17
 490 968 490 968 419 968 c 0,0,1
419 -25 m 256,18,19
 335 -25 335 -25 267.5 -1 c 128,-1,20
 200 23 200 23 151 70.5 c 128,-1,21
 102 118 102 118 76 189.5 c 128,-1,22
 50 261 50 261 50 355 c 0,23,24
 50 450 50 450 76 521 c 128,-1,25
 102 592 102 592 151 639.5 c 128,-1,26
 200 687 200 687 267.5 711 c 128,-1,27
 335 735 335 735 419 735 c 256,28,29
 503 735 503 735 571 711 c 128,-1,30
 639 687 639 687 687 639.5 c 128,-1,31
 735 592 735 592 761 521 c 128,-1,32
 787 450 787 450 787 355 c 0,33,34
 787 261 787 261 761 189.5 c 128,-1,35
 735 118 735 118 687 70.5 c 128,-1,36
 639 23 639 23 571 -1 c 128,-1,37
 503 -25 503 -25 419 -25 c 256,18,19
419 87 m 256,38,39
 465 87 465 87 499 101 c 128,-1,40
 533 115 533 115 554.5 146 c 128,-1,41
 576 177 576 177 587 228.5 c 128,-1,42
 598 280 598 280 598 355 c 256,43,44
 598 430 598 430 587 481.5 c 128,-1,45
 576 533 576 533 554.5 564 c 128,-1,46
 533 595 533 595 499 609 c 128,-1,47
 465 623 465 623 419 623 c 256,48,49
 373 623 373 623 339 609 c 128,-1,50
 305 595 305 595 283 564 c 128,-1,51
 261 533 261 533 250 481.5 c 128,-1,52
 239 430 239 430 239 355 c 256,53,54
 239 280 239 280 250 228.5 c 128,-1,55
 261 177 261 177 283 146 c 128,-1,56
 305 115 305 115 339 101 c 128,-1,57
 373 87 373 87 419 87 c 256,38,39
EndSplineSet
EndChar

StartChar: P
Encoding: 80 80 147
Width: 733
GlyphClass: 2
Flags: W
AnchorPoint: "Anchor-0" 319 741 basechar 0
LayerCount: 2
Fore
SplineSet
298 117 m 2,0,-1
 298 604 l 1,1,-1
 411 604 l 2,2,3
 446 604 446 604 469 592 c 128,-1,4
 492 580 492 580 503.5 555 c 128,-1,5
 515 530 515 530 515 492 c 0,6,7
 515 452 515 452 503.5 426 c 128,-1,8
 492 400 492 400 468.5 388 c 128,-1,9
 445 376 445 376 409 376 c 2,10,-1
 273 376 l 1,11,-1
 273 270 l 1,12,-1
 440 270 l 2,13,14
 516 270 516 270 573 296 c 128,-1,15
 630 322 630 322 662 372.5 c 128,-1,16
 694 423 694 423 694 496 c 0,17,18
 694 603 694 603 626.5 656.5 c 128,-1,19
 559 710 559 710 443 710 c 2,20,-1
 46 710 l 1,21,-1
 46 609 l 1,22,-1
 56 609 l 2,23,24
 81 609 81 609 98.5 602 c 128,-1,25
 116 595 116 595 116 573 c 2,26,-1
 116 137 l 2,27,28
 116 115 116 115 98.5 108 c 128,-1,29
 81 101 81 101 56 101 c 2,30,-1
 46 101 l 1,31,-1
 46 0 l 1,32,-1
 390 0 l 1,33,-1
 390 107 l 1,34,-1
 367 107 l 2,35,36
 353 107 353 107 340.5 107.5 c 128,-1,37
 328 108 328 108 318.5 109.5 c 128,-1,38
 309 111 309 111 303.5 112.5 c 128,-1,39
 298 114 298 114 298 117 c 2,0,-1
EndSplineSet
EndChar

StartChar: Q
Encoding: 81 81 148
Width: 837
GlyphClass: 1
Flags: W
LayerCount: 2
Fore
SplineSet
358 -3 m 1,0,-1
 478 19 l 1,1,2
 480 -36 480 -36 492 -69 c 128,-1,3
 504 -102 504 -102 535 -116.5 c 128,-1,4
 566 -131 566 -131 622 -131 c 0,5,6
 655 -131 655 -131 684 -126.5 c 128,-1,7
 713 -122 713 -122 739.5 -115 c 128,-1,8
 766 -108 766 -108 789 -101 c 1,9,-1
 789 -252 l 1,10,11
 758 -258 758 -258 715 -262.5 c 128,-1,12
 672 -267 672 -267 630 -267 c 0,13,14
 542 -267 542 -267 481 -240 c 128,-1,15
 420 -213 420 -213 389 -154.5 c 128,-1,16
 358 -96 358 -96 358 -3 c 1,0,-1
419 -25 m 256,17,18
 335 -25 335 -25 267.5 -1 c 128,-1,19
 200 23 200 23 151 70.5 c 128,-1,20
 102 118 102 118 76 189.5 c 128,-1,21
 50 261 50 261 50 355 c 0,22,23
 50 450 50 450 76 521 c 128,-1,24
 102 592 102 592 151 639.5 c 128,-1,25
 200 687 200 687 267.5 711 c 128,-1,26
 335 735 335 735 419 735 c 256,27,28
 503 735 503 735 571 711 c 128,-1,29
 639 687 639 687 687 639.5 c 128,-1,30
 735 592 735 592 761 521 c 128,-1,31
 787 450 787 450 787 355 c 0,32,33
 787 261 787 261 761 189.5 c 128,-1,34
 735 118 735 118 687 70.5 c 128,-1,35
 639 23 639 23 571 -1 c 128,-1,36
 503 -25 503 -25 419 -25 c 256,17,18
419 87 m 256,37,38
 465 87 465 87 499 101 c 128,-1,39
 533 115 533 115 555.5 146 c 128,-1,40
 578 177 578 177 589.5 228 c 128,-1,41
 601 279 601 279 601 355 c 0,42,43
 602 430 602 430 590.5 481.5 c 128,-1,44
 579 533 579 533 556.5 564 c 128,-1,45
 534 595 534 595 499.5 609 c 128,-1,46
 465 623 465 623 419 623 c 256,47,48
 373 623 373 623 339.5 609 c 128,-1,49
 306 595 306 595 283.5 564 c 128,-1,50
 261 533 261 533 250 481.5 c 128,-1,51
 239 430 239 430 239 355 c 256,52,53
 239 280 239 280 250 228.5 c 128,-1,54
 261 177 261 177 283 146 c 128,-1,55
 305 115 305 115 339 101 c 128,-1,56
 373 87 373 87 419 87 c 256,37,38
EndSplineSet
EndChar

StartChar: R
Encoding: 82 82 149
Width: 809
GlyphClass: 2
Flags: W
AnchorPoint: "Anchor-1" 453 0 basechar 0
AnchorPoint: "Anchor-0" 453 741 basechar 0
LayerCount: 2
Fore
SplineSet
400 320 m 1,0,-1
 559 0 l 1,1,-1
 777 0 l 1,2,-1
 777 107 l 1,3,-1
 767 107 l 2,4,5
 747 107 747 107 731 111.5 c 128,-1,6
 715 116 715 116 701 129.5 c 128,-1,7
 687 143 687 143 672 168 c 2,8,-1
 555 379 l 1,9,-1
 400 320 l 1,0,-1
298 117 m 2,10,-1
 298 607 l 1,11,-1
 422 607 l 2,12,13
 458 607 458 607 480.5 595 c 128,-1,14
 503 583 503 583 513.5 560.5 c 128,-1,15
 524 538 524 538 524 507 c 0,16,17
 524 472 524 472 512.5 444 c 128,-1,18
 501 416 501 416 477 400 c 128,-1,19
 453 384 453 384 416 384 c 2,20,-1
 271 384 l 1,21,-1
 271 282 l 1,22,-1
 478 282 l 1,23,24
 483 287 483 287 485 291.5 c 128,-1,25
 487 296 487 296 490 301.5 c 128,-1,26
 493 307 493 307 500 316 c 1,27,28
 565 328 565 328 611.5 354 c 128,-1,29
 658 380 658 380 683 422 c 128,-1,30
 708 464 708 464 708 520 c 0,31,32
 708 585 708 585 678 627 c 128,-1,33
 648 669 648 669 591 689.5 c 128,-1,34
 534 710 534 710 451 710 c 2,35,-1
 46 710 l 1,36,-1
 46 603 l 1,37,-1
 57 603 l 2,38,39
 81 603 81 603 99 596 c 128,-1,40
 117 589 117 589 117 567 c 2,41,-1
 117 143 l 2,42,43
 117 121 117 121 99 114 c 128,-1,44
 81 107 81 107 57 107 c 2,45,-1
 46 107 l 1,46,-1
 46 0 l 1,47,-1
 383 0 l 1,48,-1
 383 107 l 1,49,-1
 367 107 l 2,50,51
 353 107 353 107 340.5 107.5 c 128,-1,52
 328 108 328 108 318.5 109.5 c 128,-1,53
 309 111 309 111 303.5 112.5 c 128,-1,54
 298 114 298 114 298 117 c 2,10,-1
EndSplineSet
EndChar

StartChar: Rcaron
Encoding: 344 344 152
Width: 809
GlyphClass: 1
Flags: W
LayerCount: 2
Fore
SplineSet
330 792 m 1,0,-1
 449 792 l 1,1,-1
 594 948 l 1,2,-1
 594 995 l 1,3,-1
 521 995 l 1,4,-1
 350 883 l 1,5,-1
 437 885 l 1,6,-1
 263 995 l 1,7,-1
 185 995 l 1,8,-1
 185 948 l 1,9,-1
 330 792 l 1,0,-1
400 320 m 1,10,-1
 559 0 l 1,11,-1
 777 0 l 1,12,-1
 777 107 l 1,13,-1
 767 107 l 2,14,15
 747 107 747 107 731 111.5 c 128,-1,16
 715 116 715 116 701 129.5 c 128,-1,17
 687 143 687 143 672 168 c 2,18,-1
 555 379 l 1,19,-1
 400 320 l 1,10,-1
298 117 m 2,20,-1
 298 607 l 1,21,-1
 422 607 l 2,22,23
 458 607 458 607 480.5 595 c 128,-1,24
 503 583 503 583 513.5 560.5 c 128,-1,25
 524 538 524 538 524 507 c 0,26,27
 524 472 524 472 512.5 444 c 128,-1,28
 501 416 501 416 477.5 400 c 128,-1,29
 454 384 454 384 416 384 c 2,30,-1
 271 384 l 1,31,-1
 271 282 l 1,32,-1
 478 282 l 1,33,34
 483 287 483 287 485 291.5 c 128,-1,35
 487 296 487 296 490 301.5 c 128,-1,36
 493 307 493 307 500 316 c 1,37,38
 565 328 565 328 611.5 354 c 128,-1,39
 658 380 658 380 683 422 c 128,-1,40
 708 464 708 464 708 520 c 0,41,42
 708 585 708 585 678 627 c 128,-1,43
 648 669 648 669 591 689.5 c 128,-1,44
 534 710 534 710 451 710 c 2,45,-1
 46 710 l 1,46,-1
 46 603 l 1,47,-1
 57 603 l 2,48,49
 82 603 82 603 99.5 596 c 128,-1,50
 117 589 117 589 117 567 c 2,51,-1
 117 143 l 2,52,53
 117 121 117 121 99.5 114 c 128,-1,54
 82 107 82 107 57 107 c 2,55,-1
 46 107 l 1,56,-1
 46 0 l 1,57,-1
 383 0 l 1,58,-1
 383 107 l 1,59,-1
 367 107 l 2,60,61
 353 107 353 107 340.5 107.5 c 128,-1,62
 328 108 328 108 318.5 109.5 c 128,-1,63
 309 111 309 111 303.5 112.5 c 128,-1,64
 298 114 298 114 298 117 c 2,20,-1
EndSplineSet
EndChar

StartChar: Rdblgrave
Encoding: 528 528 153
Width: 809
GlyphClass: 1
Flags: W
LayerCount: 2
Fore
SplineSet
525 927 m 2,0,-1
 569 833 l 1,1,-1
 569 785 l 1,2,-1
 509 785 l 1,3,-1
 426 835 l 2,4,5
 395 854 395 854 373 878.5 c 128,-1,6
 351 903 351 903 351 937 c 0,7,8
 351 966 351 966 371.5 984.5 c 128,-1,9
 392 1003 392 1003 427 1003 c 0,10,11
 452 1003 452 1003 470.5 993 c 128,-1,12
 489 983 489 983 502 966 c 128,-1,13
 515 949 515 949 525 927 c 2,0,-1
293 927 m 2,14,-1
 336 833 l 1,15,-1
 336 785 l 1,16,-1
 276 785 l 1,17,-1
 194 835 l 2,18,19
 162 854 162 854 140 878.5 c 128,-1,20
 118 903 118 903 118 937 c 0,21,22
 118 966 118 966 138.5 984.5 c 128,-1,23
 159 1003 159 1003 194 1003 c 0,24,25
 220 1003 220 1003 238.5 993 c 128,-1,26
 257 983 257 983 270.5 966 c 128,-1,27
 284 949 284 949 293 927 c 2,14,-1
400 320 m 1,28,-1
 559 0 l 1,29,-1
 777 0 l 1,30,-1
 777 107 l 1,31,-1
 767 107 l 2,32,33
 747 107 747 107 731 111.5 c 128,-1,34
 715 116 715 116 701 129.5 c 128,-1,35
 687 143 687 143 672 168 c 2,36,-1
 555 379 l 1,37,-1
 400 320 l 1,28,-1
298 117 m 2,38,-1
 298 607 l 1,39,-1
 422 607 l 2,40,41
 458 607 458 607 480.5 595 c 128,-1,42
 503 583 503 583 513.5 560.5 c 128,-1,43
 524 538 524 538 524 507 c 0,44,45
 524 472 524 472 512.5 444 c 128,-1,46
 501 416 501 416 477.5 400 c 128,-1,47
 454 384 454 384 416 384 c 2,48,-1
 271 384 l 1,49,-1
 271 282 l 1,50,-1
 478 282 l 1,51,52
 483 287 483 287 485 291.5 c 128,-1,53
 487 296 487 296 490 301.5 c 128,-1,54
 493 307 493 307 500 316 c 1,55,56
 565 328 565 328 611.5 354 c 128,-1,57
 658 380 658 380 683 422 c 128,-1,58
 708 464 708 464 708 520 c 0,59,60
 708 585 708 585 678 627 c 128,-1,61
 648 669 648 669 591 689.5 c 128,-1,62
 534 710 534 710 451 710 c 2,63,-1
 46 710 l 1,64,-1
 46 603 l 1,65,-1
 57 603 l 2,66,67
 82 603 82 603 99.5 596 c 128,-1,68
 117 589 117 589 117 567 c 2,69,-1
 117 143 l 2,70,71
 117 121 117 121 99.5 114 c 128,-1,72
 82 107 82 107 57 107 c 2,73,-1
 46 107 l 1,74,-1
 46 0 l 1,75,-1
 383 0 l 1,76,-1
 383 107 l 1,77,-1
 367 107 l 2,78,79
 353 107 353 107 340.5 107.5 c 128,-1,80
 328 108 328 108 318.5 109.5 c 128,-1,81
 309 111 309 111 303.5 112.5 c 128,-1,82
 298 114 298 114 298 117 c 2,38,-1
EndSplineSet
EndChar

StartChar: Rinvertedbreve
Encoding: 530 530 154
Width: 809
GlyphClass: 1
Flags: W
LayerCount: 2
Fore
SplineSet
394 968 m 0,0,1
 322 968 322 968 276 947.5 c 128,-1,2
 230 927 230 927 208.5 883.5 c 128,-1,3
 187 840 187 840 186 769 c 1,4,-1
 290 769 l 1,5,6
 292 802 292 802 301 819.5 c 128,-1,7
 310 837 310 837 331 844 c 128,-1,8
 352 851 352 851 392 851 c 0,9,10
 431 851 431 851 452 844 c 128,-1,11
 473 837 473 837 482 819.5 c 128,-1,12
 491 802 491 802 492 769 c 1,13,-1
 601 769 l 1,14,15
 601 840 601 840 579 883.5 c 128,-1,16
 557 927 557 927 511 947.5 c 128,-1,17
 465 968 465 968 394 968 c 0,0,1
400 320 m 1,18,-1
 559 0 l 1,19,-1
 777 0 l 1,20,-1
 777 107 l 1,21,-1
 767 107 l 2,22,23
 747 107 747 107 731 111.5 c 128,-1,24
 715 116 715 116 701 129.5 c 128,-1,25
 687 143 687 143 672 168 c 2,26,-1
 555 379 l 1,27,-1
 400 320 l 1,18,-1
298 117 m 2,28,-1
 298 607 l 1,29,-1
 422 607 l 2,30,31
 458 607 458 607 480.5 595 c 128,-1,32
 503 583 503 583 513.5 560.5 c 128,-1,33
 524 538 524 538 524 507 c 0,34,35
 524 472 524 472 512.5 444 c 128,-1,36
 501 416 501 416 477.5 400 c 128,-1,37
 454 384 454 384 416 384 c 2,38,-1
 271 384 l 1,39,-1
 271 282 l 1,40,-1
 478 282 l 1,41,42
 483 287 483 287 485 291.5 c 128,-1,43
 487 296 487 296 490 301.5 c 128,-1,44
 493 307 493 307 500 316 c 1,45,46
 565 328 565 328 611.5 354 c 128,-1,47
 658 380 658 380 683 422 c 128,-1,48
 708 464 708 464 708 520 c 0,49,50
 708 585 708 585 678 627 c 128,-1,51
 648 669 648 669 591 689.5 c 128,-1,52
 534 710 534 710 451 710 c 2,53,-1
 46 710 l 1,54,-1
 46 603 l 1,55,-1
 57 603 l 2,56,57
 82 603 82 603 99.5 596 c 128,-1,58
 117 589 117 589 117 567 c 2,59,-1
 117 143 l 2,60,61
 117 121 117 121 99.5 114 c 128,-1,62
 82 107 82 107 57 107 c 2,63,-1
 46 107 l 1,64,-1
 46 0 l 1,65,-1
 383 0 l 1,66,-1
 383 107 l 1,67,-1
 367 107 l 2,68,69
 353 107 353 107 340.5 107.5 c 128,-1,70
 328 108 328 108 318.5 109.5 c 128,-1,71
 309 111 309 111 303.5 112.5 c 128,-1,72
 298 114 298 114 298 117 c 2,28,-1
EndSplineSet
EndChar

StartChar: S
Encoding: 83 83 157
Width: 693
GlyphClass: 2
Flags: W
AnchorPoint: "Anchor-1" 381 0 basechar 0
AnchorPoint: "Anchor-0" 381 741 basechar 0
LayerCount: 2
Fore
SplineSet
364 70 m 0,0,1
 409 70 409 70 436 77.5 c 128,-1,2
 463 85 463 85 475 103.5 c 128,-1,3
 487 122 487 122 487 156 c 0,4,5
 487 185 487 185 474.5 205 c 128,-1,6
 462 225 462 225 438.5 238.5 c 128,-1,7
 415 252 415 252 379.5 263 c 128,-1,8
 344 274 344 274 298 284 c 0,9,10
 250 295 250 295 208 310 c 128,-1,11
 166 325 166 325 134.5 349.5 c 128,-1,12
 103 374 103 374 85.5 414 c 128,-1,13
 68 454 68 454 68 517 c 0,14,15
 68 591 68 591 97 639.5 c 128,-1,16
 126 688 126 688 182.5 711.5 c 128,-1,17
 239 735 239 735 323 735 c 0,18,19
 397 735 397 735 441.5 713.5 c 128,-1,20
 486 692 486 692 508.5 647 c 128,-1,21
 531 602 531 602 537 533 c 1,22,-1
 504 594 l 1,23,-1
 521 720 l 1,24,-1
 613 720 l 1,25,-1
 613 502 l 1,26,-1
 507 502 l 1,27,28
 496 544 496 544 474 575.5 c 128,-1,29
 452 607 452 607 418 624 c 128,-1,30
 384 641 384 641 333 641 c 0,31,32
 297 641 297 641 273.5 632 c 128,-1,33
 250 623 250 623 239.5 605 c 128,-1,34
 229 587 229 587 229 557 c 0,35,36
 229 529 229 529 239 512 c 128,-1,37
 249 495 249 495 270 484 c 128,-1,38
 291 473 291 473 324 464.5 c 128,-1,39
 357 456 357 456 402 446 c 0,40,41
 451 436 451 436 496 422 c 128,-1,42
 541 408 541 408 576 383.5 c 128,-1,43
 611 359 611 359 631.5 318.5 c 128,-1,44
 652 278 652 278 652 216 c 0,45,46
 652 132 652 132 621 79 c 128,-1,47
 590 26 590 26 529.5 0.5 c 128,-1,48
 469 -25 469 -25 381 -25 c 0,49,50
 305 -25 305 -25 251.5 -5 c 128,-1,51
 198 15 198 15 168.5 64 c 128,-1,52
 139 113 139 113 132 198 c 1,53,-1
 165 142 l 1,54,-1
 145 -4 l 1,55,-1
 52 -4 l 1,56,-1
 52 236 l 1,57,-1
 166 236 l 1,58,59
 182 177 182 177 208 140.5 c 128,-1,60
 234 104 234 104 273 87 c 128,-1,61
 312 70 312 70 364 70 c 0,0,1
EndSplineSet
EndChar

StartChar: Scaron
Encoding: 352 352 161
Width: 693
GlyphClass: 1
Flags: W
LayerCount: 2
Fore
SplineSet
289 792 m 1,0,-1
 409 792 l 1,1,-1
 553 948 l 1,2,-1
 553 995 l 1,3,-1
 480 995 l 1,4,-1
 309 883 l 1,5,-1
 396 885 l 1,6,-1
 222 995 l 1,7,-1
 145 995 l 1,8,-1
 145 948 l 1,9,-1
 289 792 l 1,0,-1
364 70 m 0,10,11
 409 70 409 70 436 77.5 c 128,-1,12
 463 85 463 85 475 103.5 c 128,-1,13
 487 122 487 122 487 156 c 0,14,15
 487 185 487 185 474.5 205 c 128,-1,16
 462 225 462 225 438.5 238.5 c 128,-1,17
 415 252 415 252 379.5 263 c 128,-1,18
 344 274 344 274 298 284 c 0,19,20
 250 295 250 295 208 310 c 128,-1,21
 166 325 166 325 134.5 349.5 c 128,-1,22
 103 374 103 374 85.5 414 c 128,-1,23
 68 454 68 454 68 517 c 0,24,25
 68 591 68 591 97 639.5 c 128,-1,26
 126 688 126 688 182.5 711.5 c 128,-1,27
 239 735 239 735 323 735 c 0,28,29
 397 735 397 735 441.5 713.5 c 128,-1,30
 486 692 486 692 508.5 647 c 128,-1,31
 531 602 531 602 537 533 c 1,32,-1
 504 594 l 1,33,-1
 521 720 l 1,34,-1
 613 720 l 1,35,-1
 613 502 l 1,36,-1
 507 502 l 1,37,38
 496 544 496 544 474 575.5 c 128,-1,39
 452 607 452 607 418 624 c 128,-1,40
 384 641 384 641 333 641 c 0,41,42
 297 641 297 641 273.5 632 c 128,-1,43
 250 623 250 623 239.5 605 c 128,-1,44
 229 587 229 587 229 557 c 0,45,46
 229 529 229 529 239 512 c 128,-1,47
 249 495 249 495 270 484 c 128,-1,48
 291 473 291 473 324 464.5 c 128,-1,49
 357 456 357 456 402 446 c 0,50,51
 451 436 451 436 496 422 c 128,-1,52
 541 408 541 408 576 383.5 c 128,-1,53
 611 359 611 359 631.5 318.5 c 128,-1,54
 652 278 652 278 652 216 c 0,55,56
 652 132 652 132 621 79 c 128,-1,57
 590 26 590 26 529.5 0.5 c 128,-1,58
 469 -25 469 -25 381 -25 c 0,59,60
 305 -25 305 -25 251.5 -5 c 128,-1,61
 198 15 198 15 168.5 64 c 128,-1,62
 139 113 139 113 132 198 c 1,63,-1
 165 142 l 1,64,-1
 145 -4 l 1,65,-1
 52 -4 l 1,66,-1
 52 236 l 1,67,-1
 166 236 l 1,68,69
 182 177 182 177 208 140.5 c 128,-1,70
 234 104 234 104 273 87 c 128,-1,71
 312 70 312 70 364 70 c 0,10,11
EndSplineSet
EndChar

StartChar: Scarondotaccent
Encoding: 7782 7782 166
Width: 693
GlyphClass: 1
Flags: W
LayerCount: 2
Fore
SplineSet
288 792 m 1,0,-1
 407 792 l 1,1,-1
 552 948 l 1,2,-1
 552 995 l 1,3,-1
 479 995 l 1,4,-1
 308 883 l 1,5,-1
 395 885 l 1,6,-1
 221 995 l 1,7,-1
 143 995 l 1,8,-1
 143 948 l 1,9,-1
 288 792 l 1,0,-1
364 70 m 0,10,11
 409 70 409 70 436 77.5 c 128,-1,12
 463 85 463 85 475 103.5 c 128,-1,13
 487 122 487 122 487 156 c 0,14,15
 487 185 487 185 474.5 205 c 128,-1,16
 462 225 462 225 438.5 238.5 c 128,-1,17
 415 252 415 252 379.5 263 c 128,-1,18
 344 274 344 274 298 284 c 0,19,20
 250 295 250 295 208 310 c 128,-1,21
 166 325 166 325 134.5 349.5 c 128,-1,22
 103 374 103 374 85.5 414 c 128,-1,23
 68 454 68 454 68 517 c 0,24,25
 68 591 68 591 97 639.5 c 128,-1,26
 126 688 126 688 182.5 711.5 c 128,-1,27
 239 735 239 735 323 735 c 0,28,29
 397 735 397 735 441.5 713.5 c 128,-1,30
 486 692 486 692 508.5 647 c 128,-1,31
 531 602 531 602 537 533 c 1,32,-1
 504 594 l 1,33,-1
 521 720 l 1,34,-1
 613 720 l 1,35,-1
 613 502 l 1,36,-1
 507 502 l 1,37,38
 496 544 496 544 474 575.5 c 128,-1,39
 452 607 452 607 418 624 c 128,-1,40
 384 641 384 641 333 641 c 0,41,42
 297 641 297 641 273.5 632 c 128,-1,43
 250 623 250 623 239.5 605 c 128,-1,44
 229 587 229 587 229 557 c 0,45,46
 229 529 229 529 239 512 c 128,-1,47
 249 495 249 495 270 484 c 128,-1,48
 291 473 291 473 324 464.5 c 128,-1,49
 357 456 357 456 402 446 c 0,50,51
 451 436 451 436 496 422 c 128,-1,52
 541 408 541 408 576 383.5 c 128,-1,53
 611 359 611 359 631.5 318.5 c 128,-1,54
 652 278 652 278 652 216 c 0,55,56
 652 132 652 132 621 79 c 128,-1,57
 590 26 590 26 529.5 0.5 c 128,-1,58
 469 -25 469 -25 381 -25 c 0,59,60
 305 -25 305 -25 251.5 -5 c 128,-1,61
 198 15 198 15 168.5 64 c 128,-1,62
 139 113 139 113 132 198 c 1,63,-1
 165 142 l 1,64,-1
 145 -4 l 1,65,-1
 52 -4 l 1,66,-1
 52 236 l 1,67,-1
 166 236 l 1,68,69
 182 177 182 177 208 140.5 c 128,-1,70
 234 104 234 104 273 87 c 128,-1,71
 312 70 312 70 364 70 c 0,10,11
347 1004 m 0,72,73
 297 1004 297 1004 268.5 1027 c 128,-1,74
 240 1050 240 1050 240 1097 c 0,75,76
 240 1143 240 1143 268.5 1167 c 128,-1,77
 297 1191 297 1191 347 1191 c 0,78,79
 398 1191 398 1191 426 1167 c 128,-1,80
 454 1143 454 1143 454 1097 c 0,81,82
 454 1050 454 1050 426 1027 c 128,-1,83
 398 1004 398 1004 347 1004 c 0,72,73
EndSplineSet
EndChar

StartChar: T
Encoding: 84 84 168
Width: 769
GlyphClass: 2
Flags: W
AnchorPoint: "Anchor-1" 390 0 basechar 0
AnchorPoint: "Anchor-0" 390 741 basechar 0
LayerCount: 2
Fore
SplineSet
294 143 m 2,0,-1
 294 602 l 1,1,-1
 250 602 l 2,2,3
 215 602 215 602 197 596 c 128,-1,4
 179 590 179 590 172.5 578 c 128,-1,5
 166 566 166 566 164 547 c 2,6,-1
 154 430 l 1,7,-1
 44 430 l 1,8,-1
 44 710 l 1,9,-1
 725 710 l 1,10,-1
 725 430 l 1,11,-1
 615 430 l 1,12,-1
 605 547 l 2,13,14
 603 566 603 566 596.5 578 c 128,-1,15
 590 590 590 590 572 596 c 128,-1,16
 554 602 554 602 519 602 c 2,17,-1
 475 602 l 1,18,-1
 475 143 l 2,19,20
 475 121 475 121 495 114 c 128,-1,21
 515 107 515 107 541 107 c 2,22,-1
 561 107 l 1,23,-1
 561 0 l 1,24,-1
 208 0 l 1,25,-1
 208 107 l 1,26,-1
 227 107 l 2,27,28
 254 107 254 107 274 114 c 128,-1,29
 294 121 294 121 294 143 c 2,0,-1
EndSplineSet
EndChar

StartChar: Tcaron
Encoding: 356 356 170
Width: 769
GlyphClass: 1
Flags: W
LayerCount: 2
Fore
SplineSet
319 792 m 1,0,-1
 438 792 l 1,1,-1
 583 948 l 1,2,-1
 583 995 l 1,3,-1
 510 995 l 1,4,-1
 339 883 l 1,5,-1
 426 885 l 1,6,-1
 252 995 l 1,7,-1
 175 995 l 1,8,-1
 175 948 l 1,9,-1
 319 792 l 1,0,-1
294 143 m 2,10,-1
 294 602 l 1,11,-1
 250 602 l 2,12,13
 215 602 215 602 197 596 c 128,-1,14
 179 590 179 590 172.5 578 c 128,-1,15
 166 566 166 566 164 547 c 2,16,-1
 154 430 l 1,17,-1
 44 430 l 1,18,-1
 44 710 l 1,19,-1
 725 710 l 1,20,-1
 725 430 l 1,21,-1
 615 430 l 1,22,-1
 605 547 l 2,23,24
 603 566 603 566 596.5 578 c 128,-1,25
 590 590 590 590 572 596 c 128,-1,26
 554 602 554 602 519 602 c 2,27,-1
 475 602 l 1,28,-1
 475 143 l 2,29,30
 475 121 475 121 495 114 c 128,-1,31
 515 107 515 107 541 107 c 2,32,-1
 561 107 l 1,33,-1
 561 0 l 1,34,-1
 208 0 l 1,35,-1
 208 107 l 1,36,-1
 227 107 l 2,37,38
 254 107 254 107 274 114 c 128,-1,39
 294 121 294 121 294 143 c 2,10,-1
EndSplineSet
EndChar

StartChar: U
Encoding: 85 85 174
Width: 800
GlyphClass: 2
Flags: W
AnchorPoint: "Anchor-2" 459 0 basechar 0
AnchorPoint: "Anchor-1" 405 0 basechar 0
AnchorPoint: "Anchor-0" 405 741 basechar 0
LayerCount: 2
Fore
SplineSet
292 288 m 2,0,1
 292 235 292 235 302.5 199 c 128,-1,2
 313 163 313 163 332 141 c 128,-1,3
 351 119 351 119 378.5 109 c 128,-1,4
 406 99 406 99 440 99 c 0,5,6
 477 99 477 99 505 109.5 c 128,-1,7
 533 120 533 120 552 142.5 c 128,-1,8
 571 165 571 165 580.5 201 c 128,-1,9
 590 237 590 237 590 288 c 2,10,-1
 590 585 l 2,11,12
 590 590 590 590 584.5 593.5 c 128,-1,13
 579 597 579 597 570 598.5 c 128,-1,14
 561 600 561 600 549.5 601.5 c 128,-1,15
 538 603 538 603 527 603 c 2,16,-1
 515 603 l 1,17,-1
 515 710 l 1,18,-1
 760 710 l 1,19,-1
 760 603 l 1,20,-1
 750 603 l 2,21,22
 736 603 736 603 724 600 c 128,-1,23
 712 597 712 597 705 588.5 c 128,-1,24
 698 580 698 580 698 564 c 2,25,-1
 698 257 l 2,26,27
 698 181 698 181 675.5 127 c 128,-1,28
 653 73 653 73 613.5 39.5 c 128,-1,29
 574 6 574 6 523.5 -9.5 c 128,-1,30
 473 -25 473 -25 417 -25 c 0,31,32
 348 -25 348 -25 291.5 -8.5 c 128,-1,33
 235 8 235 8 194.5 42.5 c 128,-1,34
 154 77 154 77 132.5 131.5 c 128,-1,35
 111 186 111 186 111 261 c 2,36,-1
 111 567 l 2,37,38
 111 589 111 589 93.5 596 c 128,-1,39
 76 603 76 603 50 603 c 2,40,-1
 39 603 l 1,41,-1
 39 710 l 1,42,-1
 368 710 l 1,43,-1
 368 603 l 1,44,-1
 356 603 l 2,45,46
 346 603 346 603 334.5 602.5 c 128,-1,47
 323 602 323 602 313.5 600.5 c 128,-1,48
 304 599 304 599 298 597.5 c 128,-1,49
 292 596 292 596 292 593 c 2,50,-1
 292 288 l 2,0,1
EndSplineSet
EndChar

StartChar: Uogonek
Encoding: 370 370 184
Width: 800
GlyphClass: 1
Flags: W
LayerCount: 2
Fore
SplineSet
548 37 m 1,0,-1
 539 -1 l 1,1,2
 510 -13 510 -13 481.5 -19 c 128,-1,3
 453 -25 453 -25 417 -25 c 0,4,5
 347 -25 347 -25 291 -8.5 c 128,-1,6
 235 8 235 8 194 42.5 c 128,-1,7
 153 77 153 77 132 131.5 c 128,-1,8
 111 186 111 186 111 261 c 2,9,-1
 111 567 l 2,10,11
 111 589 111 589 94.5 596 c 128,-1,12
 78 603 78 603 50 603 c 2,13,-1
 39 603 l 1,14,-1
 39 710 l 1,15,-1
 368 710 l 1,16,-1
 368 604 l 1,17,-1
 356 604 l 2,18,19
 346 604 346 604 334.5 603 c 128,-1,20
 323 602 323 602 313.5 600.5 c 128,-1,21
 304 599 304 599 298 597.5 c 128,-1,22
 292 596 292 596 292 593 c 2,23,-1
 292 284 l 2,24,25
 292 233 292 233 302 197.5 c 128,-1,26
 312 162 312 162 331.5 140.5 c 128,-1,27
 351 119 351 119 378.5 109 c 128,-1,28
 406 99 406 99 442 99 c 256,29,30
 478 99 478 99 506 109 c 128,-1,31
 534 119 534 119 552.5 141 c 128,-1,32
 571 163 571 163 580.5 198.5 c 128,-1,33
 590 234 590 234 590 284 c 2,34,-1
 590 585 l 2,35,36
 590 590 590 590 585 593.5 c 128,-1,37
 580 597 580 597 571 599 c 128,-1,38
 562 601 562 601 550.5 602 c 128,-1,39
 539 603 539 603 527 603 c 2,40,-1
 515 603 l 1,41,-1
 515 710 l 1,42,-1
 760 710 l 1,43,-1
 760 603 l 1,44,-1
 750 603 l 2,45,46
 734 603 734 603 722.5 600 c 128,-1,47
 711 597 711 597 705 588.5 c 128,-1,48
 699 580 699 580 699 564 c 2,49,-1
 699 257 l 2,50,51
 699 207 699 207 687 166 c 128,-1,52
 675 125 675 125 655 93.5 c 128,-1,53
 635 62 635 62 611 38 c 0,54,55
 587 15 587 15 558.5 -4.5 c 128,-1,56
 530 -24 530 -24 504.5 -43 c 128,-1,57
 479 -62 479 -62 462.5 -83.5 c 128,-1,58
 446 -105 446 -105 446 -129 c 0,59,60
 446 -146 446 -146 457.5 -157 c 128,-1,61
 469 -168 469 -168 493 -168 c 0,62,63
 519 -168 519 -168 538 -155.5 c 128,-1,64
 557 -143 557 -143 571 -129 c 1,65,-1
 620 -184 l 1,66,67
 591 -215 591 -215 552 -233.5 c 128,-1,68
 513 -252 513 -252 444 -252 c 0,69,70
 398 -252 398 -252 362.5 -242.5 c 128,-1,71
 327 -233 327 -233 307.5 -211 c 128,-1,72
 288 -189 288 -189 288 -153 c 0,73,74
 288 -128 288 -128 300 -108 c 128,-1,75
 312 -88 312 -88 340.5 -68.5 c 128,-1,76
 369 -49 369 -49 419.5 -24 c 128,-1,77
 470 1 470 1 548 37 c 1,0,-1
EndSplineSet
EndChar

StartChar: Uhorn
Encoding: 431 431 185
Width: 948
GlyphClass: 2
Flags: W
AnchorPoint: "Anchor-1" 478 -35 basechar 0
AnchorPoint: "Anchor-0" 478 663 basechar 0
LayerCount: 2
Fore
SplineSet
111 261 m 2,0,-1
 111 567 l 2,1,2
 111 589 111 589 94.5 596 c 128,-1,3
 78 603 78 603 50 603 c 2,4,-1
 39 603 l 1,5,-1
 39 710 l 1,6,-1
 368 710 l 1,7,-1
 368 604 l 1,8,-1
 356 604 l 2,9,10
 346 604 346 604 334.5 603 c 128,-1,11
 323 602 323 602 313.5 600.5 c 128,-1,12
 304 599 304 599 298 597.5 c 128,-1,13
 292 596 292 596 292 593 c 2,14,-1
 292 284 l 2,15,16
 292 232 292 232 302.5 196.5 c 128,-1,17
 313 161 313 161 332 139.5 c 128,-1,18
 351 118 351 118 378.5 108.5 c 128,-1,19
 406 99 406 99 441 99 c 0,20,21
 490 99 490 99 523 117.5 c 128,-1,22
 556 136 556 136 573 176.5 c 128,-1,23
 590 217 590 217 590 284 c 2,24,-1
 590 585 l 2,25,26
 590 590 590 590 585 593.5 c 128,-1,27
 580 597 580 597 571 599 c 128,-1,28
 562 601 562 601 550.5 602 c 128,-1,29
 539 603 539 603 527 603 c 2,30,-1
 515 603 l 1,31,-1
 515 710 l 1,32,-1
 677 710 l 2,33,34
 724 710 724 710 752.5 718.5 c 128,-1,35
 781 727 781 727 796 747.5 c 128,-1,36
 811 768 811 768 817.5 803.5 c 128,-1,37
 824 839 824 839 827 893 c 1,38,-1
 965 893 l 1,39,40
 964 830 964 830 954.5 784.5 c 128,-1,41
 945 739 945 739 928 706.5 c 128,-1,42
 911 674 911 674 886 654 c 128,-1,43
 861 634 861 634 829 623 c 128,-1,44
 797 612 797 612 758 607 c 0,45,46
 740 606 740 606 726.5 602 c 128,-1,47
 713 598 713 598 706 590 c 128,-1,48
 699 582 699 582 699 566 c 2,49,-1
 699 257 l 2,50,51
 699 181 699 181 676.5 127 c 128,-1,52
 654 73 654 73 614.5 39.5 c 128,-1,53
 575 6 575 6 524 -9.5 c 128,-1,54
 473 -25 473 -25 417 -25 c 0,55,56
 347 -25 347 -25 291 -8.5 c 128,-1,57
 235 8 235 8 194 42.5 c 128,-1,58
 153 77 153 77 132 131.5 c 128,-1,59
 111 186 111 186 111 261 c 2,0,-1
EndSplineSet
EndChar

StartChar: Ucaron
Encoding: 467 467 186
Width: 800
GlyphClass: 1
Flags: W
LayerCount: 2
Fore
SplineSet
381 792 m 1,0,-1
 500 792 l 1,1,-1
 645 948 l 1,2,-1
 645 995 l 1,3,-1
 572 995 l 1,4,-1
 401 883 l 1,5,-1
 488 885 l 1,6,-1
 314 995 l 1,7,-1
 236 995 l 1,8,-1
 236 948 l 1,9,-1
 381 792 l 1,0,-1
292 288 m 2,10,11
 292 235 292 235 302.5 199 c 128,-1,12
 313 163 313 163 332 141 c 128,-1,13
 351 119 351 119 378.5 109 c 128,-1,14
 406 99 406 99 440 99 c 0,15,16
 477 99 477 99 505 109.5 c 128,-1,17
 533 120 533 120 552 142.5 c 128,-1,18
 571 165 571 165 580.5 201 c 128,-1,19
 590 237 590 237 590 288 c 2,20,-1
 590 585 l 2,21,22
 590 590 590 590 584.5 593.5 c 128,-1,23
 579 597 579 597 569.5 599 c 128,-1,24
 560 601 560 601 549 602 c 128,-1,25
 538 603 538 603 527 603 c 2,26,-1
 515 603 l 1,27,-1
 515 710 l 1,28,-1
 760 710 l 1,29,-1
 760 603 l 1,30,-1
 750 603 l 2,31,32
 736 603 736 603 724 600 c 128,-1,33
 712 597 712 597 705 588.5 c 128,-1,34
 698 580 698 580 698 564 c 2,35,-1
 698 257 l 2,36,37
 698 181 698 181 675.5 127 c 128,-1,38
 653 73 653 73 613 39.5 c 128,-1,39
 573 6 573 6 523 -9.5 c 128,-1,40
 473 -25 473 -25 417 -25 c 0,41,42
 348 -25 348 -25 291.5 -8.5 c 128,-1,43
 235 8 235 8 194.5 42.5 c 128,-1,44
 154 77 154 77 132.5 131.5 c 128,-1,45
 111 186 111 186 111 261 c 2,46,-1
 111 567 l 2,47,48
 111 589 111 589 93.5 596 c 128,-1,49
 76 603 76 603 50 603 c 2,50,-1
 39 603 l 1,51,-1
 39 710 l 1,52,-1
 368 710 l 1,53,-1
 368 603 l 1,54,-1
 356 603 l 2,55,56
 346 603 346 603 334.5 602.5 c 128,-1,57
 323 602 323 602 313.5 600.5 c 128,-1,58
 304 599 304 599 298 597.5 c 128,-1,59
 292 596 292 596 292 593 c 2,60,-1
 292 288 l 2,10,11
EndSplineSet
EndChar

StartChar: Udieresiscaron
Encoding: 473 473 187
Width: 834
GlyphClass: 1
Flags: W
LayerCount: 2
Fore
SplineSet
370 1016 m 1,0,-1
 490 1016 l 1,1,-1
 635 1172 l 1,2,-1
 635 1219 l 1,3,-1
 561 1219 l 1,4,-1
 391 1106 l 1,5,-1
 478 1108 l 1,6,-1
 303 1219 l 1,7,-1
 226 1219 l 1,8,-1
 226 1172 l 1,9,-1
 370 1016 l 1,0,-1
292 288 m 2,10,11
 292 236 292 236 302.5 199.5 c 128,-1,12
 313 163 313 163 332 141 c 128,-1,13
 351 119 351 119 378.5 109 c 128,-1,14
 406 99 406 99 440 99 c 0,15,16
 477 99 477 99 505 109.5 c 128,-1,17
 533 120 533 120 552 142.5 c 128,-1,18
 571 165 571 165 580.5 201 c 128,-1,19
 590 237 590 237 590 288 c 2,20,-1
 590 585 l 2,21,22
 590 590 590 590 584.5 593.5 c 128,-1,23
 579 597 579 597 569.5 598.5 c 128,-1,24
 560 600 560 600 549 601.5 c 128,-1,25
 538 603 538 603 527 603 c 2,26,-1
 515 603 l 1,27,-1
 515 710 l 1,28,-1
 760 710 l 1,29,-1
 760 603 l 1,30,-1
 750 603 l 2,31,32
 736 603 736 603 724 600 c 128,-1,33
 712 597 712 597 705 588.5 c 128,-1,34
 698 580 698 580 698 564 c 2,35,-1
 698 257 l 2,36,37
 698 181 698 181 675.5 127 c 128,-1,38
 653 73 653 73 613.5 39.5 c 128,-1,39
 574 6 574 6 523.5 -9.5 c 128,-1,40
 473 -25 473 -25 417 -25 c 0,41,42
 348 -25 348 -25 291.5 -8.5 c 128,-1,43
 235 8 235 8 194.5 42.5 c 128,-1,44
 154 77 154 77 132.5 131.5 c 128,-1,45
 111 186 111 186 111 261 c 2,46,-1
 111 567 l 2,47,48
 111 589 111 589 93.5 596 c 128,-1,49
 76 603 76 603 50 603 c 2,50,-1
 39 603 l 1,51,-1
 39 710 l 1,52,-1
 368 710 l 1,53,-1
 368 603 l 1,54,-1
 356 603 l 2,55,56
 346 603 346 603 334.5 602.5 c 128,-1,57
 323 602 323 602 313.5 600.5 c 128,-1,58
 304 599 304 599 298 597.5 c 128,-1,59
 292 596 292 596 292 593 c 2,60,-1
 292 288 l 2,10,11
388 894 m 0,61,62
 388 849 388 849 360.5 826.5 c 128,-1,63
 333 804 333 804 283 804 c 256,64,65
 233 804 233 804 205 826 c 128,-1,66
 177 848 177 848 177 894 c 0,67,68
 177 941 177 941 205 963 c 128,-1,69
 233 985 233 985 283 985 c 256,70,71
 333 985 333 985 360.5 963 c 128,-1,72
 388 941 388 941 388 894 c 0,61,62
681 894 m 0,73,74
 681 849 681 849 653 826.5 c 128,-1,75
 625 804 625 804 576 804 c 0,76,77
 526 804 526 804 498 826 c 128,-1,78
 470 848 470 848 470 894 c 0,79,80
 470 941 470 941 498 963 c 128,-1,81
 526 985 526 985 576 985 c 0,82,83
 625 985 625 985 653 963 c 128,-1,84
 681 941 681 941 681 894 c 0,73,74
EndSplineSet
EndChar

StartChar: Udblgrave
Encoding: 532 532 188
Width: 800
GlyphClass: 1
Flags: W
LayerCount: 2
Fore
SplineSet
554 927 m 2,0,-1
 598 833 l 1,1,-1
 598 785 l 1,2,-1
 538 785 l 1,3,-1
 455 835 l 2,4,5
 424 854 424 854 402 878.5 c 128,-1,6
 380 903 380 903 380 937 c 0,7,8
 380 966 380 966 400.5 984.5 c 128,-1,9
 421 1003 421 1003 456 1003 c 0,10,11
 481 1003 481 1003 499.5 993 c 128,-1,12
 518 983 518 983 531 966 c 128,-1,13
 544 949 544 949 554 927 c 2,0,-1
322 927 m 2,14,-1
 366 833 l 1,15,-1
 366 785 l 1,16,-1
 305 785 l 1,17,-1
 223 835 l 2,18,19
 191 854 191 854 169.5 878.5 c 128,-1,20
 148 903 148 903 148 937 c 0,21,22
 148 966 148 966 168.5 984.5 c 128,-1,23
 189 1003 189 1003 224 1003 c 0,24,25
 249 1003 249 1003 267.5 993 c 128,-1,26
 286 983 286 983 299.5 966 c 128,-1,27
 313 949 313 949 322 927 c 2,14,-1
292 288 m 2,28,29
 292 235 292 235 302.5 199 c 128,-1,30
 313 163 313 163 332 141 c 128,-1,31
 351 119 351 119 378.5 109 c 128,-1,32
 406 99 406 99 440 99 c 0,33,34
 477 99 477 99 505 109.5 c 128,-1,35
 533 120 533 120 552 142.5 c 128,-1,36
 571 165 571 165 580.5 201 c 128,-1,37
 590 237 590 237 590 288 c 2,38,-1
 590 585 l 2,39,40
 590 590 590 590 584.5 593.5 c 128,-1,41
 579 597 579 597 569.5 599 c 128,-1,42
 560 601 560 601 549 602 c 128,-1,43
 538 603 538 603 527 603 c 2,44,-1
 515 603 l 1,45,-1
 515 710 l 1,46,-1
 760 710 l 1,47,-1
 760 603 l 1,48,-1
 750 603 l 2,49,50
 736 603 736 603 724 600 c 128,-1,51
 712 597 712 597 705 588.5 c 128,-1,52
 698 580 698 580 698 564 c 2,53,-1
 698 257 l 2,54,55
 698 181 698 181 675.5 127 c 128,-1,56
 653 73 653 73 613 39.5 c 128,-1,57
 573 6 573 6 523 -9.5 c 128,-1,58
 473 -25 473 -25 417 -25 c 0,59,60
 348 -25 348 -25 291.5 -8.5 c 128,-1,61
 235 8 235 8 194.5 42.5 c 128,-1,62
 154 77 154 77 132.5 131.5 c 128,-1,63
 111 186 111 186 111 261 c 2,64,-1
 111 567 l 2,65,66
 111 589 111 589 93.5 596 c 128,-1,67
 76 603 76 603 50 603 c 2,68,-1
 39 603 l 1,69,-1
 39 710 l 1,70,-1
 368 710 l 1,71,-1
 368 603 l 1,72,-1
 356 603 l 2,73,74
 346 603 346 603 334.5 602.5 c 128,-1,75
 323 602 323 602 313.5 600.5 c 128,-1,76
 304 599 304 599 298 597.5 c 128,-1,77
 292 596 292 596 292 593 c 2,78,-1
 292 288 l 2,28,29
EndSplineSet
EndChar

StartChar: Uinvertedbreve
Encoding: 534 534 189
Width: 800
GlyphClass: 1
Flags: W
LayerCount: 2
Fore
SplineSet
430 968 m 0,0,1
 358 968 358 968 312 947.5 c 128,-1,2
 266 927 266 927 244.5 883.5 c 128,-1,3
 223 840 223 840 222 769 c 1,4,-1
 326 769 l 1,5,6
 328 802 328 802 337 819.5 c 128,-1,7
 346 837 346 837 367 844 c 128,-1,8
 388 851 388 851 428 851 c 0,9,10
 467 851 467 851 488 844 c 128,-1,11
 509 837 509 837 518 819.5 c 128,-1,12
 527 802 527 802 528 769 c 1,13,-1
 637 769 l 1,14,15
 637 840 637 840 615 883.5 c 128,-1,16
 593 927 593 927 547 947.5 c 128,-1,17
 501 968 501 968 430 968 c 0,0,1
292 288 m 2,18,19
 292 235 292 235 302.5 199 c 128,-1,20
 313 163 313 163 332 141 c 128,-1,21
 351 119 351 119 378.5 109 c 128,-1,22
 406 99 406 99 440 99 c 0,23,24
 477 99 477 99 505 109.5 c 128,-1,25
 533 120 533 120 552 142.5 c 128,-1,26
 571 165 571 165 580.5 201 c 128,-1,27
 590 237 590 237 590 288 c 2,28,-1
 590 585 l 2,29,30
 590 590 590 590 584.5 593.5 c 128,-1,31
 579 597 579 597 569.5 599 c 128,-1,32
 560 601 560 601 549 602 c 128,-1,33
 538 603 538 603 527 603 c 2,34,-1
 515 603 l 1,35,-1
 515 710 l 1,36,-1
 760 710 l 1,37,-1
 760 603 l 1,38,-1
 750 603 l 2,39,40
 736 603 736 603 724 600 c 128,-1,41
 712 597 712 597 705 588.5 c 128,-1,42
 698 580 698 580 698 564 c 2,43,-1
 698 257 l 2,44,45
 698 181 698 181 675.5 127 c 128,-1,46
 653 73 653 73 613 39.5 c 128,-1,47
 573 6 573 6 523 -9.5 c 128,-1,48
 473 -25 473 -25 417 -25 c 0,49,50
 348 -25 348 -25 291.5 -8.5 c 128,-1,51
 235 8 235 8 194.5 42.5 c 128,-1,52
 154 77 154 77 132.5 131.5 c 128,-1,53
 111 186 111 186 111 261 c 2,54,-1
 111 567 l 2,55,56
 111 589 111 589 93.5 596 c 128,-1,57
 76 603 76 603 50 603 c 2,58,-1
 39 603 l 1,59,-1
 39 710 l 1,60,-1
 368 710 l 1,61,-1
 368 603 l 1,62,-1
 356 603 l 2,63,64
 346 603 346 603 334.5 602.5 c 128,-1,65
 323 602 323 602 313.5 600.5 c 128,-1,66
 304 599 304 599 298 597.5 c 128,-1,67
 292 596 292 596 292 593 c 2,68,-1
 292 288 l 2,18,19
EndSplineSet
EndChar

StartChar: V
Encoding: 86 86 199
Width: 769
GlyphClass: 2
Flags: W
AnchorPoint: "Anchor-0" 360 741 basechar 0
LayerCount: 2
Fore
SplineSet
442 56 m 1,0,-1
 405 60 l 1,1,-1
 570 580 l 2,2,3
 570 587 570 587 564 592 c 128,-1,4
 558 597 558 597 544 600 c 128,-1,5
 530 603 530 603 508 603 c 2,6,-1
 498 603 l 1,7,-1
 498 710 l 1,8,-1
 746 710 l 1,9,-1
 746 603 l 1,10,-1
 740 603 l 2,11,12
 718 603 718 603 700 590 c 128,-1,13
 682 577 682 577 670 539 c 2,14,-1
 496 -5 l 1,15,-1
 281 -5 l 1,16,-1
 105 539 l 2,17,18
 93 578 93 578 72.5 590.5 c 128,-1,19
 52 603 52 603 28 603 c 2,20,-1
 22 603 l 1,21,-1
 22 710 l 1,22,-1
 349 710 l 1,23,-1
 349 603 l 1,24,-1
 339 603 l 2,25,26
 315 603 315 603 301 601.5 c 128,-1,27
 287 600 287 600 280.5 598 c 128,-1,28
 274 596 274 596 274 592 c 2,29,-1
 442 56 l 1,0,-1
EndSplineSet
EndChar

StartChar: W
Encoding: 87 87 200
Width: 1094
GlyphClass: 2
Flags: W
AnchorPoint: "Anchor-0" 562 741 basechar 0
LayerCount: 2
Fore
SplineSet
22 710 m 1,0,-1
 336 710 l 1,1,-1
 336 603 l 1,2,-1
 323 603 l 2,3,4
 310 603 310 603 297.5 601.5 c 128,-1,5
 285 600 285 600 277 598 c 128,-1,6
 269 596 269 596 269 592 c 2,7,-1
 380 102 l 1,8,-1
 353 114 l 1,9,-1
 506 710 l 1,10,-1
 687 710 l 1,11,-1
 830 106 l 1,12,-1
 798 96 l 1,13,-1
 919 582 l 2,14,15
 919 588 919 588 913 592.5 c 128,-1,16
 907 597 907 597 896 600 c 128,-1,17
 885 603 885 603 870 603 c 2,18,-1
 857 603 l 1,19,-1
 857 710 l 1,20,-1
 1072 710 l 1,21,-1
 1072 603 l 1,22,-1
 1064 603 l 2,23,24
 1044 603 1044 603 1031 592 c 128,-1,25
 1018 581 1018 581 1012 558 c 2,26,-1
 876 0 l 1,27,-1
 685 0 l 1,28,-1
 544 594 l 1,29,-1
 579 592 l 1,30,-1
 426 0 l 1,31,-1
 228 0 l 1,32,-1
 87 575 l 2,33,34
 83 594 83 594 67.5 598.5 c 128,-1,35
 52 603 52 603 30 603 c 2,36,-1
 22 603 l 1,37,-1
 22 710 l 1,0,-1
EndSplineSet
EndChar

StartChar: X
Encoding: 88 88 205
Width: 774
GlyphClass: 2
Flags: W
AnchorPoint: "Anchor-1" 355 0 basechar 0
AnchorPoint: "Anchor-0" 378 741 basechar 0
LayerCount: 2
Fore
SplineSet
33 603 m 1,0,-1
 33 710 l 1,1,-1
 366 710 l 1,2,-1
 366 603 l 1,3,-1
 351 603 l 2,4,5
 339 603 339 603 326.5 602 c 128,-1,6
 314 601 314 601 306.5 599 c 128,-1,7
 299 597 299 597 299 594 c 2,8,-1
 451 396 l 1,9,-1
 476 389 l 1,10,-1
 665 141 l 2,11,12
 683 119 683 119 697 113 c 128,-1,13
 711 107 711 107 732 107 c 2,14,-1
 747 107 l 1,15,-1
 747 0 l 1,16,-1
 407 0 l 1,17,-1
 407 107 l 1,18,-1
 422 107 l 2,19,20
 435 107 435 107 447 108 c 128,-1,21
 459 109 459 109 467 111.5 c 128,-1,22
 475 114 475 114 475 117 c 2,23,-1
 309 333 l 1,24,-1
 285 339 l 1,25,-1
 109 569 l 2,26,27
 92 591 92 591 77.5 597 c 128,-1,28
 63 603 63 603 41 603 c 2,29,-1
 33 603 l 1,0,-1
28 0 m 1,30,-1
 28 107 l 1,31,-1
 42 107 l 2,32,33
 61 107 61 107 74.5 116.5 c 128,-1,34
 88 126 88 126 107 153 c 2,35,-1
 279 392 l 1,36,-1
 369 348 l 1,37,-1
 210 124 l 2,38,39
 210 120 210 120 217 116 c 128,-1,40
 224 112 224 112 235.5 109.5 c 128,-1,41
 247 107 247 107 257 107 c 2,42,-1
 272 107 l 1,43,-1
 272 0 l 1,44,-1
 28 0 l 1,30,-1
481 335 m 1,45,-1
 407 400 l 1,46,-1
 543 586 l 2,47,48
 543 591 543 591 535 595 c 128,-1,49
 527 599 527 599 516 601 c 128,-1,50
 505 603 505 603 494 603 c 2,51,-1
 483 603 l 1,52,-1
 483 710 l 1,53,-1
 722 710 l 1,54,-1
 722 603 l 1,55,-1
 714 603 l 2,56,57
 694 603 694 603 679.5 593.5 c 128,-1,58
 665 584 665 584 646 558 c 2,59,-1
 481 335 l 1,45,-1
EndSplineSet
EndChar

StartChar: Y
Encoding: 89 89 206
Width: 738
GlyphClass: 2
Flags: W
AnchorPoint: "Anchor-1" 373 0 basechar 0
AnchorPoint: "Anchor-0" 373 741 basechar 0
LayerCount: 2
Fore
SplineSet
283 293 m 1,0,-1
 292 245 l 1,1,-1
 107 551 l 2,2,3
 96 570 96 570 85.5 581.5 c 128,-1,4
 75 593 75 593 63.5 598 c 128,-1,5
 52 603 52 603 35 603 c 2,6,-1
 26 603 l 1,7,-1
 26 710 l 1,8,-1
 344 710 l 1,9,-1
 344 603 l 1,10,-1
 332 603 l 2,11,12
 315 603 315 603 302.5 601.5 c 128,-1,13
 290 600 290 600 283.5 598 c 128,-1,14
 277 596 277 596 277 592 c 2,15,-1
 439 300 l 1,16,-1
 372 293 l 1,17,-1
 536 583 l 2,18,19
 536 589 536 589 529 593 c 128,-1,20
 522 597 522 597 511.5 600 c 128,-1,21
 501 603 501 603 489 603 c 2,22,-1
 479 603 l 1,23,-1
 479 710 l 1,24,-1
 711 710 l 1,25,-1
 711 603 l 1,26,-1
 702 603 l 2,27,28
 689 603 689 603 678 597 c 128,-1,29
 667 591 667 591 657 579.5 c 128,-1,30
 647 568 647 568 635 548 c 2,31,-1
 451 238 l 1,32,-1
 464 293 l 1,33,-1
 464 143 l 2,34,35
 464 121 464 121 483.5 114 c 128,-1,36
 503 107 503 107 530 107 c 2,37,-1
 549 107 l 1,38,-1
 549 0 l 1,39,-1
 198 0 l 1,40,-1
 198 107 l 1,41,-1
 217 107 l 2,42,43
 245 107 245 107 264 114 c 128,-1,44
 283 121 283 121 283 143 c 2,45,-1
 283 293 l 1,0,-1
EndSplineSet
EndChar

StartChar: Z
Encoding: 90 90 216
Width: 697
GlyphClass: 2
Flags: W
AnchorPoint: "Anchor-1" 369 0 basechar 0
AnchorPoint: "Anchor-0" 369 741 basechar 0
LayerCount: 2
Fore
SplineSet
263 604 m 2,0,1
 239 604 239 604 224 602 c 128,-1,2
 209 600 209 600 200 595.5 c 128,-1,3
 191 591 191 591 186.5 582.5 c 128,-1,4
 182 574 182 574 180 560 c 2,5,-1
 170 481 l 1,6,-1
 61 481 l 1,7,-1
 61 710 l 1,8,-1
 629 710 l 1,9,-1
 629 580 l 1,10,-1
 183 39 l 1,11,-1
 153 106 l 1,12,-1
 427 106 l 2,13,14
 463 106 463 106 482.5 109.5 c 128,-1,15
 502 113 502 113 510.5 122.5 c 128,-1,16
 519 132 519 132 521 150 c 2,17,-1
 536 259 l 1,18,-1
 646 259 l 1,19,-1
 646 0 l 1,20,-1
 46 0 l 1,21,-1
 46 133 l 1,22,-1
 479 658 l 1,23,-1
 507 604 l 1,24,-1
 263 604 l 2,0,1
EndSplineSet
EndChar

StartChar: Zcaron
Encoding: 381 381 219
Width: 697
GlyphClass: 1
Flags: W
LayerCount: 2
Fore
SplineSet
293 792 m 1,0,-1
 412 792 l 1,1,-1
 557 948 l 1,2,-1
 557 995 l 1,3,-1
 484 995 l 1,4,-1
 313 883 l 1,5,-1
 400 885 l 1,6,-1
 226 995 l 1,7,-1
 148 995 l 1,8,-1
 148 948 l 1,9,-1
 293 792 l 1,0,-1
263 604 m 2,10,11
 239 604 239 604 224 602 c 128,-1,12
 209 600 209 600 200 595.5 c 128,-1,13
 191 591 191 591 186.5 582.5 c 128,-1,14
 182 574 182 574 180 560 c 2,15,-1
 170 481 l 1,16,-1
 61 481 l 1,17,-1
 61 710 l 1,18,-1
 629 710 l 1,19,-1
 629 580 l 1,20,-1
 183 39 l 1,21,-1
 153 106 l 1,22,-1
 427 106 l 2,23,24
 463 106 463 106 482.5 109.5 c 128,-1,25
 502 113 502 113 510.5 122.5 c 128,-1,26
 519 132 519 132 521 150 c 2,27,-1
 536 259 l 1,28,-1
 646 259 l 1,29,-1
 646 0 l 1,30,-1
 46 0 l 1,31,-1
 46 133 l 1,32,-1
 479 658 l 1,33,-1
 507 604 l 1,34,-1
 263 604 l 2,10,11
EndSplineSet
EndChar

StartChar: AE
Encoding: 198 198 221
Width: 1109
GlyphClass: 2
Flags: W
AnchorPoint: "Anchor-0" 684 741 basechar 0
LayerCount: 2
Fore
SplineSet
206 303 m 1,0,-1
 536 303 l 1,1,-1
 548 206 l 1,2,-1
 195 206 l 1,3,-1
 206 303 l 1,0,-1
663 410 m 1,4,5
 707 413 707 413 753.5 416.5 c 128,-1,6
 800 420 800 420 847 424.5 c 128,-1,7
 894 429 894 429 940 433 c 1,8,-1
 940 296 l 1,9,10
 896 299 896 299 850 302 c 128,-1,11
 804 305 804 305 756.5 309.5 c 128,-1,12
 709 314 709 314 663 317 c 1,13,-1
 663 410 l 1,4,5
435 0 m 1,14,-1
 435 107 l 1,15,-1
 444 107 l 2,16,17
 464 107 464 107 478 110 c 128,-1,18
 492 113 492 113 500 120 c 128,-1,19
 508 127 508 127 508 138 c 2,20,-1
 508 613 l 1,21,-1
 474 607 l 1,22,-1
 192 130 l 2,23,24
 192 124 192 124 196.5 118.5 c 128,-1,25
 201 113 201 113 212 110 c 128,-1,26
 223 107 223 107 245 107 c 2,27,-1
 253 107 l 1,28,-1
 253 0 l 1,29,-1
 8 0 l 1,30,-1
 8 107 l 1,31,-1
 14 107 l 2,32,33
 30 107 30 107 42.5 113 c 128,-1,34
 55 119 55 119 67 133 c 128,-1,35
 79 147 79 147 93 171 c 2,36,-1
 333 574 l 1,37,38
 333 587 333 587 328.5 593 c 128,-1,39
 324 599 324 599 315 601 c 128,-1,40
 306 603 306 603 291 603 c 2,41,-1
 284 603 l 1,42,-1
 284 710 l 1,43,-1
 1032 710 l 1,44,-1
 1032 510 l 1,45,-1
 922 510 l 1,46,-1
 912 560 l 2,47,48
 907 578 907 578 897.5 587.5 c 128,-1,49
 888 597 888 597 869.5 600.5 c 128,-1,50
 851 604 851 604 822 604 c 2,51,-1
 689 604 l 1,52,-1
 689 106 l 1,53,-1
 820 106 l 2,54,55
 849 106 849 106 868 108 c 128,-1,56
 887 110 887 110 898 115 c 128,-1,57
 909 120 909 120 914.5 129 c 128,-1,58
 920 138 920 138 923 151 c 2,59,-1
 937 225 l 1,60,-1
 1050 225 l 1,61,-1
 1050 0 l 1,62,-1
 435 0 l 1,14,-1
EndSplineSet
EndChar

StartChar: Eth
Encoding: 208 208 223
Width: 837
GlyphClass: 1
Flags: W
LayerCount: 2
Fore
SplineSet
42 417 m 1,0,-1
 456 417 l 1,1,-1
 456 310 l 1,2,-1
 42 310 l 1,3,-1
 42 417 l 1,0,-1
46 603 m 1,4,-1
 46 710 l 1,5,-1
 418 710 l 2,6,7
 501 710 501 710 569 689.5 c 128,-1,8
 637 669 637 669 685.5 626 c 128,-1,9
 734 583 734 583 760.5 516.5 c 128,-1,10
 787 450 787 450 787 359 c 0,11,12
 787 269 787 269 760.5 201 c 128,-1,13
 734 133 734 133 685.5 88.5 c 128,-1,14
 637 44 637 44 569 22 c 128,-1,15
 501 0 501 0 418 0 c 2,16,-1
 46 0 l 1,17,-1
 46 107 l 1,18,-1
 57 107 l 2,19,20
 82 107 82 107 99.5 114 c 128,-1,21
 117 121 117 121 117 143 c 2,22,-1
 117 567 l 2,23,24
 117 589 117 589 99.5 596 c 128,-1,25
 82 603 82 603 57 603 c 2,26,-1
 46 603 l 1,4,-1
397 604 m 2,27,-1
 298 604 l 1,28,-1
 298 106 l 1,29,-1
 397 106 l 2,30,31
 449 106 449 106 486.5 120.5 c 128,-1,32
 524 135 524 135 548.5 165.5 c 128,-1,33
 573 196 573 196 585 244 c 128,-1,34
 597 292 597 292 597 359 c 256,35,36
 597 426 597 426 585 472.5 c 128,-1,37
 573 519 573 519 548.5 548 c 128,-1,38
 524 577 524 577 486.5 590.5 c 128,-1,39
 449 604 449 604 397 604 c 2,27,-1
EndSplineSet
EndChar

StartChar: Oslash
Encoding: 216 216 224
Width: 837
GlyphClass: 2
Flags: W
AnchorPoint: "Anchor-0" 418 731 basechar 0
LayerCount: 2
Fore
SplineSet
419 623 m 0,0,1
 373 623 373 623 339.5 609 c 128,-1,2
 306 595 306 595 284.5 564 c 128,-1,3
 263 533 263 533 252.5 481.5 c 128,-1,4
 242 430 242 430 242 355 c 0,5,6
 242 276 242 276 251.5 223.5 c 128,-1,7
 261 171 261 171 281.5 141.5 c 128,-1,8
 302 112 302 112 336 99.5 c 128,-1,9
 370 87 370 87 419 87 c 0,10,11
 465 87 465 87 498 101 c 128,-1,12
 531 115 531 115 552.5 146 c 128,-1,13
 574 177 574 177 584.5 228.5 c 128,-1,14
 595 280 595 280 595 355 c 0,15,16
 595 434 595 434 585.5 486.5 c 128,-1,17
 576 539 576 539 555.5 568.5 c 128,-1,18
 535 598 535 598 501 610.5 c 128,-1,19
 467 623 467 623 419 623 c 0,0,1
419 -25 m 0,20,21
 340 -25 340 -25 272.5 1.5 c 128,-1,22
 205 28 205 28 155 77.5 c 128,-1,23
 105 127 105 127 77.5 197.5 c 128,-1,24
 50 268 50 268 50 355 c 0,25,26
 50 450 50 450 76 521 c 128,-1,27
 102 592 102 592 151 639.5 c 128,-1,28
 200 687 200 687 267.5 711 c 128,-1,29
 335 735 335 735 419 735 c 0,30,31
 498 735 498 735 565.5 708.5 c 128,-1,32
 633 682 633 682 682.5 632 c 128,-1,33
 732 582 732 582 759.5 512 c 128,-1,34
 787 442 787 442 787 355 c 0,35,36
 787 261 787 261 761 189.5 c 128,-1,37
 735 118 735 118 687 70.5 c 128,-1,38
 639 23 639 23 571 -1 c 128,-1,39
 503 -25 503 -25 419 -25 c 0,20,21
-12 -25 m 1,40,-1
 726 735 l 1,41,-1
 849 735 l 1,42,-1
 112 -25 l 1,43,-1
 -12 -25 l 1,40,-1
EndSplineSet
EndChar

StartChar: Thorn
Encoding: 222 222 226
Width: 766
GlyphClass: 1
Flags: W
LayerCount: 2
Fore
SplineSet
390 710 m 1,0,-1
 46 710 l 1,1,-1
 46 609 l 1,2,-1
 56 609 l 2,3,4
 84 609 84 609 100 602 c 128,-1,5
 116 595 116 595 116 573 c 2,6,-1
 116 137 l 2,7,8
 116 115 116 115 100 108 c 128,-1,9
 84 101 84 101 56 101 c 2,10,-1
 46 101 l 1,11,-1
 46 0 l 1,12,-1
 390 0 l 1,13,-1
 390 106 l 1,14,-1
 367 106 l 2,15,16
 353 106 353 106 340.5 107 c 128,-1,17
 328 108 328 108 318.5 109.5 c 128,-1,18
 309 111 309 111 303.5 112.5 c 128,-1,19
 298 114 298 114 298 117 c 2,20,-1
 298 594 l 2,21,22
 298 596 298 596 303.5 597.5 c 128,-1,23
 309 599 309 599 318.5 600.5 c 128,-1,24
 328 602 328 602 340.5 602.5 c 128,-1,25
 353 603 353 603 367 603 c 2,26,-1
 390 603 l 1,27,-1
 390 710 l 1,0,-1
719 365 m 0,28,29
 719 425 719 425 690 465 c 128,-1,30
 661 505 661 505 607 525 c 128,-1,31
 553 545 553 545 475 545 c 2,32,-1
 221 545 l 1,33,-1
 227 447 l 1,34,-1
 438 447 l 2,35,36
 473 447 473 447 495 438.5 c 128,-1,37
 517 430 517 430 527.5 411 c 128,-1,38
 538 392 538 392 538 361 c 0,39,40
 538 331 538 331 527.5 311 c 128,-1,41
 517 291 517 291 494 281.5 c 128,-1,42
 471 272 471 272 435 272 c 2,43,-1
 245 272 l 1,44,-1
 245 176 l 1,45,-1
 472 176 l 2,46,47
 548 176 548 176 603 197.5 c 128,-1,48
 658 219 658 219 688.5 261 c 128,-1,49
 719 303 719 303 719 365 c 0,28,29
EndSplineSet
EndChar

StartChar: Hbar
Encoding: 294 294 228
Width: 863
GlyphClass: 1
Flags: W
LayerCount: 2
Fore
SplineSet
210 364 m 1,0,-1
 627 364 l 1,1,-1
 627 273 l 1,2,-1
 210 273 l 1,3,-1
 210 364 l 1,0,-1
46 0 m 1,4,-1
 46 107 l 1,5,-1
 56 107 l 2,6,7
 82 107 82 107 99.5 114 c 128,-1,8
 117 121 117 121 117 143 c 2,9,-1
 117 567 l 2,10,11
 117 589 117 589 99.5 596 c 128,-1,12
 82 603 82 603 56 603 c 2,13,-1
 46 603 l 1,14,-1
 46 710 l 1,15,-1
 368 710 l 1,16,-1
 368 604 l 1,17,-1
 359 604 l 2,18,19
 350 604 350 604 339 603 c 128,-1,20
 328 602 328 602 318.5 600.5 c 128,-1,21
 309 599 309 599 303.5 597.5 c 128,-1,22
 298 596 298 596 298 593 c 2,23,-1
 298 116 l 2,24,25
 298 113 298 113 303.5 112 c 128,-1,26
 309 111 309 111 318.5 109.5 c 128,-1,27
 328 108 328 108 339 107.5 c 128,-1,28
 350 107 350 107 359 107 c 2,29,-1
 368 107 l 1,30,-1
 368 0 l 1,31,-1
 46 0 l 1,4,-1
495 0 m 1,32,-1
 495 106 l 1,33,-1
 503 106 l 2,34,35
 513 106 513 106 524 107 c 128,-1,36
 535 108 535 108 544 109.5 c 128,-1,37
 553 111 553 111 559 112.5 c 128,-1,38
 565 114 565 114 565 117 c 2,39,-1
 565 594 l 2,40,41
 565 597 565 597 559 598 c 128,-1,42
 553 599 553 599 544 600.5 c 128,-1,43
 535 602 535 602 524 602.5 c 128,-1,44
 513 603 513 603 503 603 c 2,45,-1
 495 603 l 1,46,-1
 495 710 l 1,47,-1
 817 710 l 1,48,-1
 817 603 l 1,49,-1
 806 603 l 2,50,51
 781 603 781 603 763.5 596 c 128,-1,52
 746 589 746 589 746 567 c 2,53,-1
 746 143 l 2,54,55
 746 121 746 121 763.5 114 c 128,-1,56
 781 107 781 107 806 107 c 2,57,-1
 817 107 l 1,58,-1
 817 0 l 1,59,-1
 495 0 l 1,32,-1
30 440 m 1,60,-1
 30 532 l 1,61,-1
 833 532 l 1,62,-1
 833 440 l 1,63,-1
 30 440 l 1,60,-1
EndSplineSet
EndChar

StartChar: Ldot
Encoding: 319 319 230
Width: 711
GlyphClass: 1
Flags: W
LayerCount: 2
Fore
SplineSet
389 710 m 1,0,-1
 46 710 l 1,1,-1
 46 603 l 1,2,-1
 56 603 l 2,3,4
 82 603 82 603 99.5 596 c 128,-1,5
 117 589 117 589 117 567 c 2,6,-1
 117 143 l 2,7,8
 117 121 117 121 99.5 114 c 128,-1,9
 82 107 82 107 56 107 c 2,10,-1
 46 107 l 1,11,-1
 46 0 l 1,12,-1
 653 0 l 1,13,-1
 653 240 l 1,14,-1
 541 240 l 1,15,-1
 527 151 l 2,16,17
 524 133 524 133 514.5 123 c 128,-1,18
 505 113 505 113 484.5 109.5 c 128,-1,19
 464 106 464 106 426 106 c 2,20,-1
 298 106 l 1,21,-1
 298 567 l 2,22,23
 298 589 298 589 318 596 c 128,-1,24
 338 603 338 603 370 603 c 2,25,-1
 389 603 l 1,26,-1
 389 710 l 1,0,-1
573 330 m 0,27,28
 521 330 521 330 488.5 358.5 c 128,-1,29
 456 387 456 387 456 440 c 0,30,31
 456 494 456 494 488.5 521.5 c 128,-1,32
 521 549 521 549 573 549 c 0,33,34
 627 549 627 549 659.5 521.5 c 128,-1,35
 692 494 692 494 692 440 c 0,36,37
 692 387 692 387 659.5 358.5 c 128,-1,38
 627 330 627 330 573 330 c 0,27,28
EndSplineSet
Ligature2: "Ligature Substitution lookup 5 subtable" L periodcentered
EndChar

StartChar: Lslash
Encoding: 321 321 231
Width: 705
GlyphClass: 1
Flags: W
LayerCount: 2
Fore
SplineSet
24 166 m 1,0,-1
 529 453 l 1,1,-1
 529 566 l 1,2,-1
 24 280 l 1,3,-1
 24 166 l 1,0,-1
398 710 m 1,4,-1
 55 710 l 1,5,-1
 55 603 l 1,6,-1
 65 603 l 2,7,8
 91 603 91 603 108.5 596 c 128,-1,9
 126 589 126 589 126 567 c 2,10,-1
 126 143 l 2,11,12
 126 121 126 121 108.5 114 c 128,-1,13
 91 107 91 107 65 107 c 2,14,-1
 55 107 l 1,15,-1
 55 0 l 1,16,-1
 662 0 l 1,17,-1
 662 261 l 1,18,-1
 550 261 l 1,19,-1
 536 151 l 2,20,21
 534 133 534 133 525 123 c 128,-1,22
 516 113 516 113 494.5 109.5 c 128,-1,23
 473 106 473 106 435 106 c 2,24,-1
 307 106 l 1,25,-1
 307 567 l 2,26,27
 307 589 307 589 327 596 c 128,-1,28
 347 603 347 603 379 603 c 2,29,-1
 398 603 l 1,30,-1
 398 710 l 1,4,-1
EndSplineSet
EndChar

StartChar: Eng
Encoding: 330 330 232
Width: 834
GlyphClass: 1
Flags: W
LayerCount: 2
Fore
SplineSet
731 -22 m 2,0,1
 731 -81 731 -81 714 -124.5 c 128,-1,2
 697 -168 697 -168 665 -195.5 c 128,-1,3
 633 -223 633 -223 589 -236.5 c 128,-1,4
 545 -250 545 -250 491 -250 c 0,5,6
 443 -250 443 -250 407.5 -243.5 c 128,-1,7
 372 -237 372 -237 349 -229 c 1,8,-1
 349 -117 l 1,9,10
 362 -122 362 -122 381 -127.5 c 128,-1,11
 400 -133 400 -133 424.5 -137 c 128,-1,12
 449 -141 449 -141 477 -141 c 0,13,14
 524 -141 524 -141 554 -129 c 128,-1,15
 584 -117 584 -117 598.5 -88 c 128,-1,16
 613 -59 613 -59 613 -9 c 2,17,-1
 613 70 l 1,18,-1
 646 -76 l 1,19,-1
 181 666 l 1,20,-1
 225 657 l 1,21,-1
 225 117 l 2,22,23
 225 114 225 114 232.5 111.5 c 128,-1,24
 240 109 240 109 251.5 108 c 128,-1,25
 263 107 263 107 274 107 c 2,26,-1
 287 107 l 1,27,-1
 287 0 l 1,28,-1
 46 0 l 1,29,-1
 46 107 l 1,30,-1
 57 107 l 2,31,32
 76 107 76 107 88 110 c 128,-1,33
 100 113 100 113 106.5 121 c 128,-1,34
 113 129 113 129 113 143 c 2,35,-1
 113 567 l 2,36,37
 113 582 113 582 106.5 589.5 c 128,-1,38
 100 597 100 597 88 600 c 128,-1,39
 76 603 76 603 57 603 c 2,40,-1
 46 603 l 1,41,-1
 46 710 l 1,42,-1
 352 710 l 1,43,-1
 693 161 l 1,44,-1
 619 146 l 1,45,-1
 619 593 l 2,46,47
 619 597 619 597 612 599 c 128,-1,48
 605 601 605 601 594 602 c 128,-1,49
 583 603 583 603 570 603 c 2,50,-1
 557 603 l 1,51,-1
 557 710 l 1,52,-1
 793 710 l 1,53,-1
 793 603 l 1,54,-1
 783 603 l 2,55,56
 765 603 765 603 753 601 c 128,-1,57
 741 599 741 599 736 592 c 128,-1,58
 731 585 731 585 731 570 c 2,59,-1
 731 -22 l 2,0,1
EndSplineSet
Substitution2: "'ss07' Style Set 7 lookup 67 subtable" Eng.afr
EndChar

StartChar: OE
Encoding: 338 338 233
Width: 1138
GlyphClass: 1
Flags: W
LayerCount: 2
Fore
SplineSet
691 411 m 1,0,1
 738 415 738 415 784 418.5 c 128,-1,2
 830 422 830 422 875.5 426.5 c 128,-1,3
 921 431 921 431 968 434 c 1,4,-1
 968 296 l 1,5,6
 921 300 921 300 875.5 304 c 128,-1,7
 830 308 830 308 784 311.5 c 128,-1,8
 738 315 738 315 691 318 c 1,9,-1
 691 411 l 1,0,1
439 106 m 2,10,-1
 537 106 l 1,11,-1
 537 604 l 1,12,-1
 439 604 l 2,13,14
 388 604 388 604 350.5 590.5 c 128,-1,15
 313 577 313 577 288.5 547 c 128,-1,16
 264 517 264 517 251.5 469 c 128,-1,17
 239 421 239 421 239 351 c 256,18,19
 239 281 239 281 251.5 234 c 128,-1,20
 264 187 264 187 288.5 159 c 128,-1,21
 313 131 313 131 350.5 118.5 c 128,-1,22
 388 106 388 106 439 106 c 2,10,-1
418 0 m 2,23,24
 335 0 335 0 267 20.5 c 128,-1,25
 199 41 199 41 150.5 84 c 128,-1,26
 102 127 102 127 76 193.5 c 128,-1,27
 50 260 50 260 50 351 c 256,28,29
 50 442 50 442 76 509.5 c 128,-1,30
 102 577 102 577 150.5 621.5 c 128,-1,31
 199 666 199 666 267 688 c 128,-1,32
 335 710 335 710 418 710 c 2,33,-1
 1062 710 l 1,34,-1
 1062 510 l 1,35,-1
 944 510 l 1,36,-1
 934 559 l 2,37,38
 932 577 932 577 923.5 586.5 c 128,-1,39
 915 596 915 596 897 600 c 128,-1,40
 879 604 879 604 848 604 c 2,41,-1
 718 604 l 1,42,-1
 718 106 l 1,43,-1
 847 106 l 2,44,45
 876 106 876 106 894 108 c 128,-1,46
 912 110 912 110 922.5 115 c 128,-1,47
 933 120 933 120 938 129 c 128,-1,48
 943 138 943 138 946 151 c 2,49,-1
 960 225 l 1,50,-1
 1079 225 l 1,51,-1
 1079 0 l 1,52,-1
 418 0 l 2,23,24
EndSplineSet
EndChar

StartChar: Tbar
Encoding: 358 358 234
Width: 769
GlyphClass: 1
Flags: W
LayerCount: 2
Fore
SplineSet
143 340 m 1,0,-1
 625 340 l 1,1,-1
 625 229 l 1,2,-1
 143 229 l 1,3,-1
 143 340 l 1,0,-1
294 143 m 2,4,-1
 294 602 l 1,5,-1
 250 602 l 2,6,7
 215 602 215 602 197 596 c 128,-1,8
 179 590 179 590 172.5 578 c 128,-1,9
 166 566 166 566 164 547 c 2,10,-1
 154 430 l 1,11,-1
 44 430 l 1,12,-1
 44 710 l 1,13,-1
 725 710 l 1,14,-1
 725 430 l 1,15,-1
 615 430 l 1,16,-1
 605 547 l 2,17,18
 603 566 603 566 596.5 578 c 128,-1,19
 590 590 590 590 572 596 c 128,-1,20
 554 602 554 602 519 602 c 2,21,-1
 475 602 l 1,22,-1
 475 143 l 2,23,24
 475 121 475 121 495 114 c 128,-1,25
 515 107 515 107 541 107 c 2,26,-1
 561 107 l 1,27,-1
 561 0 l 1,28,-1
 208 0 l 1,29,-1
 208 107 l 1,30,-1
 227 107 l 2,31,32
 254 107 254 107 274 114 c 128,-1,33
 294 121 294 121 294 143 c 2,4,-1
EndSplineSet
EndChar

StartChar: Bhook
Encoding: 385 385 235
Width: 870
GlyphClass: 2
Flags: W
AnchorPoint: "Anchor-1" 470 0 basechar 0
AnchorPoint: "Anchor-0" 435 741 basechar 0
LayerCount: 2
Fore
SplineSet
347 420 m 1,0,-1
 513 420 l 2,1,2
 545 420 545 420 565.5 430 c 128,-1,3
 586 440 586 440 596 461.5 c 128,-1,4
 606 483 606 483 606 519 c 0,5,6
 606 547 606 547 596 566 c 128,-1,7
 586 585 586 585 566 595.5 c 128,-1,8
 546 606 546 606 515 606 c 2,9,-1
 399 606 l 1,10,-1
 399 104 l 1,11,-1
 520 104 l 2,12,13
 558 104 558 104 581.5 116 c 128,-1,14
 605 128 605 128 617 152.5 c 128,-1,15
 629 177 629 177 629 213 c 0,16,17
 629 250 629 250 616.5 274 c 128,-1,18
 604 298 604 298 577 310 c 128,-1,19
 550 322 550 322 509 322 c 2,20,-1
 347 322 l 1,21,-1
 347 420 l 1,0,-1
190 710 m 2,22,-1
 551 710 l 2,23,24
 610 710 610 710 654 700.5 c 128,-1,25
 698 691 698 691 728 670.5 c 128,-1,26
 758 650 758 650 773 617.5 c 128,-1,27
 788 585 788 585 788 540 c 0,28,29
 788 488 788 488 764.5 453.5 c 128,-1,30
 741 419 741 419 694.5 401 c 128,-1,31
 648 383 648 383 581 379 c 1,32,-1
 588 406 l 1,33,-1
 588 335 l 1,34,-1
 581 370 l 1,35,36
 656 363 656 363 708.5 344 c 128,-1,37
 761 325 761 325 788 289.5 c 128,-1,38
 815 254 815 254 815 197 c 0,39,40
 815 145 815 145 798.5 107.5 c 128,-1,41
 782 70 782 70 749.5 46.5 c 128,-1,42
 717 23 717 23 669 11.5 c 128,-1,43
 621 0 621 0 558 0 c 2,44,-1
 146 0 l 1,45,-1
 146 107 l 1,46,-1
 157 107 l 2,47,48
 182 107 182 107 200 114 c 128,-1,49
 218 121 218 121 218 143 c 2,50,-1
 218 606 l 1,51,-1
 189 606 l 2,52,53
 167 606 167 606 152.5 598.5 c 128,-1,54
 138 591 138 591 131 572.5 c 128,-1,55
 124 554 124 554 124 519 c 0,56,57
 124 492 124 492 127 471 c 128,-1,58
 130 450 130 450 135 433 c 1,59,-1
 14 433 l 1,60,61
 11 449 11 449 8.5 471.5 c 128,-1,62
 6 494 6 494 6 517 c 0,63,64
 6 581 6 581 25.5 623.5 c 128,-1,65
 45 666 45 666 85.5 688 c 128,-1,66
 126 710 126 710 190 710 c 2,22,-1
EndSplineSet
EndChar

StartChar: Dhook
Encoding: 394 394 236
Width: 937
GlyphClass: 2
Flags: W
AnchorPoint: "Anchor-1" 469 0 basechar 0
AnchorPoint: "Anchor-0" 441 741 basechar 0
LayerCount: 2
Fore
SplineSet
190 710 m 2,0,-1
 520 710 l 2,1,2
 603 710 603 710 671 689.5 c 128,-1,3
 739 669 739 669 787.5 626 c 128,-1,4
 836 583 836 583 862 516.5 c 128,-1,5
 888 450 888 450 888 359 c 0,6,7
 888 269 888 269 862 201 c 128,-1,8
 836 133 836 133 787.5 88.5 c 128,-1,9
 739 44 739 44 671 22 c 128,-1,10
 603 0 603 0 520 0 c 2,11,-1
 147 0 l 1,12,-1
 147 107 l 1,13,-1
 159 107 l 2,14,15
 183 107 183 107 200.5 114 c 128,-1,16
 218 121 218 121 218 143 c 2,17,-1
 218 605 l 1,18,-1
 189 605 l 2,19,20
 167 605 167 605 153 597.5 c 128,-1,21
 139 590 139 590 131.5 572 c 128,-1,22
 124 554 124 554 124 520 c 0,23,24
 124 493 124 493 127.5 473 c 128,-1,25
 131 453 131 453 136 436 c 1,26,-1
 15 436 l 1,27,28
 12 451 12 451 9.5 474 c 128,-1,29
 7 497 7 497 7 519 c 0,30,31
 7 582 7 582 26.5 624 c 128,-1,32
 46 666 46 666 86 688 c 128,-1,33
 126 710 126 710 190 710 c 2,0,-1
499 604 m 2,34,-1
 400 604 l 1,35,-1
 400 106 l 1,36,-1
 499 106 l 2,37,38
 550 106 550 106 587.5 120.5 c 128,-1,39
 625 135 625 135 649.5 165.5 c 128,-1,40
 674 196 674 196 686.5 244 c 128,-1,41
 699 292 699 292 699 359 c 256,42,43
 699 426 699 426 686.5 472.5 c 128,-1,44
 674 519 674 519 649.5 548 c 128,-1,45
 625 577 625 577 587.5 590.5 c 128,-1,46
 550 604 550 604 499 604 c 2,34,-1
EndSplineSet
EndChar

StartChar: Schwa
Encoding: 399 399 237
Width: 784
GlyphClass: 1
Flags: W
LayerCount: 2
Fore
SplineSet
376 741 m 0,0,1
 490 741 490 741 570 700 c 128,-1,2
 650 659 650 659 692 575.5 c 128,-1,3
 734 492 734 492 734 364 c 0,4,5
 734 275 734 275 710 203.5 c 128,-1,6
 686 132 686 132 640.5 81 c 128,-1,7
 595 30 595 30 529.5 3 c 128,-1,8
 464 -24 464 -24 381 -24 c 0,9,10
 262 -24 262 -24 190 23 c 128,-1,11
 118 70 118 70 86 166 c 128,-1,12
 54 262 54 262 51 408 c 1,13,-1
 633 408 l 1,14,-1
 633 303 l 1,15,-1
 212 303 l 1,16,-1
 234 339 l 1,17,18
 236 263 236 263 244 214 c 128,-1,19
 252 165 252 165 268.5 137.5 c 128,-1,20
 285 110 285 110 312 99 c 128,-1,21
 339 88 339 88 379 88 c 0,22,23
 421 88 421 88 452 100.5 c 128,-1,24
 483 113 483 113 503.5 144.5 c 128,-1,25
 524 176 524 176 534 231 c 128,-1,26
 544 286 544 286 544 369 c 256,27,28
 544 452 544 452 533 503 c 128,-1,29
 522 554 522 554 499 581.5 c 128,-1,30
 476 609 476 609 442.5 619 c 128,-1,31
 409 629 409 629 363 629 c 0,32,33
 313 629 313 629 277.5 619.5 c 128,-1,34
 242 610 242 610 213 585 c 128,-1,35
 184 560 184 560 154 512 c 1,36,-1
 60 576 l 1,37,38
 94 630 94 630 138 666.5 c 128,-1,39
 182 703 182 703 241 722 c 128,-1,40
 300 741 300 741 376 741 c 0,0,1
EndSplineSet
EndChar

StartChar: Khook
Encoding: 408 408 238
Width: 877
GlyphClass: 2
Flags: W
AnchorPoint: "Anchor-1" 447 0 basechar 0
AnchorPoint: "Anchor-0" 500 741 basechar 0
LayerCount: 2
Fore
SplineSet
46 0 m 1,0,-1
 46 107 l 1,1,-1
 57 107 l 2,2,3
 82 107 82 107 99.5 114 c 128,-1,4
 117 121 117 121 117 143 c 2,5,-1
 117 567 l 2,6,7
 117 589 117 589 99.5 596 c 128,-1,8
 82 603 82 603 57 603 c 2,9,-1
 46 603 l 1,10,-1
 46 710 l 1,11,-1
 374 710 l 1,12,-1
 374 603 l 1,13,-1
 362 603 l 2,14,15
 350 603 350 603 338.5 602.5 c 128,-1,16
 327 602 327 602 318 600.5 c 128,-1,17
 309 599 309 599 303.5 597.5 c 128,-1,18
 298 596 298 596 298 593 c 2,19,-1
 298 117 l 2,20,21
 298 114 298 114 303.5 112.5 c 128,-1,22
 309 111 309 111 317 109.5 c 128,-1,23
 325 108 325 108 335 107.5 c 128,-1,24
 345 107 345 107 353 107 c 2,25,-1
 361 107 l 1,26,-1
 361 0 l 1,27,-1
 46 0 l 1,0,-1
759 719 m 0,28,29
 800 719 800 719 825 702 c 128,-1,30
 850 685 850 685 861.5 653 c 128,-1,31
 873 621 873 621 873 578 c 0,32,33
 873 541 873 541 868 504.5 c 128,-1,34
 863 468 863 468 858 450 c 1,35,-1
 734 450 l 1,36,37
 739 462 739 462 743.5 478 c 128,-1,38
 748 494 748 494 751 513.5 c 128,-1,39
 754 533 754 533 754 552 c 0,40,41
 754 574 754 574 746.5 585 c 128,-1,42
 739 596 739 596 722 596 c 0,43,44
 712 596 712 596 702 590.5 c 128,-1,45
 692 585 692 585 676 571 c 128,-1,46
 660 557 660 557 631 528 c 2,47,-1
 457 355 l 1,48,-1
 477 443 l 1,49,-1
 753 128 l 2,50,51
 761 119 761 119 769.5 114.5 c 128,-1,52
 778 110 778 110 787 108.5 c 128,-1,53
 796 107 796 107 806 107 c 2,54,-1
 819 107 l 1,55,-1
 819 0 l 1,56,-1
 470 0 l 1,57,-1
 470 107 l 1,58,-1
 480 107 l 2,59,60
 495 107 495 107 507 108 c 128,-1,61
 519 109 519 109 527 111.5 c 128,-1,62
 535 114 535 114 535 117 c 2,63,-1
 333 348 l 1,64,-1
 333 372 l 1,65,-1
 568 601 l 2,66,67
 604 637 604 637 630.5 660 c 128,-1,68
 657 683 657 683 677.5 696 c 128,-1,69
 698 709 698 709 717.5 714 c 128,-1,70
 737 719 737 719 759 719 c 0,28,29
EndSplineSet
EndChar

StartChar: Yhook
Encoding: 435 435 239
Width: 833
GlyphClass: 2
Flags: W
AnchorPoint: "Anchor-1" 391 0 basechar 0
AnchorPoint: "Anchor-0" 425 741 basechar 0
LayerCount: 2
Fore
SplineSet
541 590 m 2,0,1
 566 634 566 634 590.5 662.5 c 128,-1,2
 615 691 615 691 644.5 705 c 128,-1,3
 674 719 674 719 713 719 c 0,4,5
 759 719 759 719 787.5 701 c 128,-1,6
 816 683 816 683 829 650.5 c 128,-1,7
 842 618 842 618 842 576 c 0,8,9
 842 542 842 542 836.5 505 c 128,-1,10
 831 468 831 468 826 450 c 1,11,-1
 701 450 l 1,12,13
 707 462 707 462 711.5 478.5 c 128,-1,14
 716 495 716 495 719.5 514 c 128,-1,15
 723 533 723 533 723 550 c 0,16,17
 723 572 723 572 716 583.5 c 128,-1,18
 709 595 709 595 691 595 c 0,19,20
 680 595 680 595 670.5 589 c 128,-1,21
 661 583 661 583 651.5 570.5 c 128,-1,22
 642 558 642 558 629 537 c 2,23,-1
 451 238 l 1,24,-1
 464 293 l 1,25,-1
 464 143 l 2,26,27
 464 121 464 121 483.5 114 c 128,-1,28
 503 107 503 107 530 107 c 2,29,-1
 549 107 l 1,30,-1
 549 0 l 1,31,-1
 198 0 l 1,32,-1
 198 107 l 1,33,-1
 217 107 l 2,34,35
 244 107 244 107 263.5 114 c 128,-1,36
 283 121 283 121 283 143 c 2,37,-1
 283 293 l 1,38,-1
 292 245 l 1,39,-1
 107 551 l 2,40,41
 96 570 96 570 85.5 581.5 c 128,-1,42
 75 593 75 593 63.5 598 c 128,-1,43
 52 603 52 603 35 603 c 2,44,-1
 26 603 l 1,45,-1
 26 710 l 1,46,-1
 344 710 l 1,47,-1
 344 603 l 1,48,-1
 332 603 l 2,49,50
 315 603 315 603 302.5 601.5 c 128,-1,51
 290 600 290 600 283.5 598 c 128,-1,52
 277 596 277 596 277 592 c 2,53,-1
 439 300 l 1,54,-1
 372 293 l 1,55,-1
 541 590 l 2,0,1
EndSplineSet
EndChar

StartChar: Germandbls
Encoding: 7838 7838 240
Width: 907
GlyphClass: 1
Flags: W
LayerCount: 2
Fore
SplineSet
594 88 m 256,0,1
 624 88 624 88 640 97.5 c 128,-1,2
 656 107 656 107 662 129 c 128,-1,3
 668 151 668 151 668 190 c 0,4,5
 668 226 668 226 660 249 c 128,-1,6
 652 272 652 272 632 288 c 128,-1,7
 612 304 612 304 577 318 c 128,-1,8
 542 332 542 332 487 350 c 1,9,-1
 487 444 l 1,10,-1
 635 632 l 1,11,-1
 661 601 l 1,12,-1
 440 601 l 2,13,14
 395 601 395 601 366.5 591 c 128,-1,15
 338 581 338 581 321.5 562.5 c 128,-1,16
 305 544 305 544 299 515 c 128,-1,17
 293 486 293 486 293 446 c 2,18,-1
 293 0 l 1,19,-1
 39 0 l 1,20,-1
 39 107 l 1,21,-1
 50 107 l 2,22,23
 77 107 77 107 94.5 114 c 128,-1,24
 112 121 112 121 112 143 c 2,25,-1
 112 466 l 2,26,27
 112 523 112 523 126 567.5 c 128,-1,28
 140 612 140 612 170.5 644 c 128,-1,29
 201 676 201 676 252 693 c 128,-1,30
 303 710 303 710 377 710 c 2,31,-1
 781 710 l 1,32,-1
 781 587 l 1,33,-1
 610 376 l 1,34,-1
 589 429 l 1,35,36
 656 408 656 408 706.5 388 c 128,-1,37
 757 368 757 368 791.5 341.5 c 128,-1,38
 826 315 826 315 843 277 c 128,-1,39
 860 239 860 239 860 184 c 0,40,41
 860 120 860 120 838.5 75.5 c 128,-1,42
 817 31 817 31 769.5 8.5 c 128,-1,43
 722 -14 722 -14 646 -14 c 0,44,45
 578 -14 578 -14 538 6 c 128,-1,46
 498 26 498 26 480 69 c 128,-1,47
 462 112 462 112 456 180 c 1,48,-1
 490 134 l 1,49,-1
 474 0 l 1,50,-1
 382 0 l 1,51,-1
 382 224 l 1,52,-1
 487 224 l 1,53,54
 493 190 493 190 499.5 164.5 c 128,-1,55
 506 139 506 139 516.5 122 c 128,-1,56
 527 105 527 105 545.5 96.5 c 128,-1,57
 564 88 564 88 594 88 c 256,0,1
EndSplineSet
EndChar

StartChar: Delta
Encoding: 916 916 241
Width: 775
GlyphClass: 1
Flags: W
LayerCount: 2
Fore
SplineSet
46 0 m 1,0,-1
 46 135 l 1,1,-1
 314 710 l 1,2,-1
 462 710 l 1,3,-1
 729 135 l 1,4,-1
 729 0 l 1,5,-1
 46 0 l 1,0,-1
575 94 m 1,6,-1
 328 650 l 1,7,-1
 409 688 l 1,8,-1
 135 94 l 1,9,-1
 77 139 l 1,10,-1
 668 139 l 1,11,-1
 575 94 l 1,6,-1
EndSplineSet
EndChar

StartChar: Omega
Encoding: 937 937 242
Width: 918
GlyphClass: 1
Flags: W
LayerCount: 2
Fore
SplineSet
459 735 m 256,0,1
 364 735 364 735 295 717.5 c 128,-1,2
 226 700 226 700 182.5 666.5 c 128,-1,3
 139 633 139 633 118.5 585 c 128,-1,4
 98 537 98 537 98 477 c 0,5,6
 98 437 98 437 110 401.5 c 128,-1,7
 122 366 122 366 145.5 332.5 c 128,-1,8
 169 299 169 299 202 262 c 128,-1,9
 235 225 235 225 278 183 c 128,-1,10
 321 141 321 141 371 88 c 1,11,-1
 383 118 l 1,12,-1
 262 118 l 2,13,14
 227 118 227 118 205.5 121.5 c 128,-1,15
 184 125 184 125 173.5 134.5 c 128,-1,16
 163 144 163 144 160 162 c 2,17,-1
 148 232 l 1,18,-1
 59 232 l 1,19,-1
 59 0 l 1,20,-1
 409 0 l 1,21,-1
 409 163 l 1,22,23
 377 208 377 208 351 242 c 128,-1,24
 325 276 325 276 306 308 c 128,-1,25
 287 340 287 340 277 378 c 128,-1,26
 267 416 267 416 267 469 c 0,27,28
 267 526 267 526 287 560.5 c 128,-1,29
 307 595 307 595 349.5 611 c 128,-1,30
 392 627 392 627 459 627 c 256,31,32
 526 627 526 627 568.5 611 c 128,-1,33
 611 595 611 595 631 560.5 c 128,-1,34
 651 526 651 526 651 469 c 0,35,36
 651 416 651 416 641 378 c 128,-1,37
 631 340 631 340 612 308 c 128,-1,38
 593 276 593 276 567 242 c 128,-1,39
 541 208 541 208 508 163 c 1,40,-1
 508 0 l 1,41,-1
 859 0 l 1,42,-1
 859 232 l 1,43,-1
 769 232 l 1,44,-1
 758 162 l 2,45,46
 755 144 755 144 744.5 134.5 c 128,-1,47
 734 125 734 125 712.5 121.5 c 128,-1,48
 691 118 691 118 655 118 c 2,49,-1
 535 118 l 1,50,-1
 546 88 l 1,51,52
 597 141 597 141 639.5 183 c 128,-1,53
 682 225 682 225 715.5 262 c 128,-1,54
 749 299 749 299 772 332.5 c 128,-1,55
 795 366 795 366 807.5 401.5 c 128,-1,56
 820 437 820 437 820 477 c 0,57,58
 820 537 820 537 799 585 c 128,-1,59
 778 633 778 633 734.5 666.5 c 128,-1,60
 691 700 691 700 622.5 717.5 c 128,-1,61
 554 735 554 735 459 735 c 256,0,1
EndSplineSet
EndChar

StartChar: Djecyr
Encoding: 1026 1026 244
Width: 934
GlyphClass: 2
Flags: W
AnchorPoint: "Anchor-0" 364 741 basechar 0
LayerCount: 2
Fore
SplineSet
887 200 m 0,0,1
 887 142 887 142 868.5 99.5 c 128,-1,2
 850 57 850 57 814 29 c 128,-1,3
 778 1 778 1 724.5 -12 c 128,-1,4
 671 -25 671 -25 601 -25 c 1,5,-1
 601 82 l 1,6,7
 634 82 634 82 656 94.5 c 128,-1,8
 678 107 678 107 689.5 133 c 128,-1,9
 701 159 701 159 701 199 c 0,10,11
 701 253 701 253 669.5 284 c 128,-1,12
 638 315 638 315 573 315 c 0,13,14
 534 315 534 315 501.5 307.5 c 128,-1,15
 469 300 469 300 434 282 c 1,16,-1
 434 384 l 1,17,18
 471 400 471 400 521.5 411 c 128,-1,19
 572 422 572 422 634 422 c 0,20,21
 716 422 716 422 772.5 397.5 c 128,-1,22
 829 373 829 373 858 323.5 c 128,-1,23
 887 274 887 274 887 200 c 0,0,1
194 0 m 1,24,-1
 194 107 l 1,25,-1
 213 107 l 2,26,27
 240 107 240 107 260 114 c 128,-1,28
 280 121 280 121 280 143 c 2,29,-1
 280 602 l 1,30,-1
 250 602 l 2,31,32
 215 602 215 602 197 596 c 128,-1,33
 179 590 179 590 172.5 578 c 128,-1,34
 166 566 166 566 164 547 c 2,35,-1
 154 430 l 1,36,-1
 44 430 l 1,37,-1
 44 710 l 1,38,-1
 731 710 l 1,39,-1
 731 480 l 1,40,-1
 621 480 l 1,41,-1
 612 547 l 2,42,43
 610 566 610 566 603 578 c 128,-1,44
 596 590 596 590 579 596 c 128,-1,45
 562 602 562 602 529 602 c 2,46,-1
 461 602 l 1,47,-1
 461 116 l 2,48,49
 461 114 461 114 470 111.5 c 128,-1,50
 479 109 479 109 492 108 c 128,-1,51
 505 107 505 107 518 107 c 2,52,-1
 533 107 l 1,53,-1
 533 0 l 1,54,-1
 194 0 l 1,24,-1
EndSplineSet
EndChar

StartChar: Eukrcyr
Encoding: 1028 1028 245
Width: 780
GlyphClass: 2
Flags: W
AnchorPoint: "Anchor-1" 405 0 basechar 0
AnchorPoint: "Anchor-0" 405 741 basechar 0
LayerCount: 2
Fore
SplineSet
219 411 m 1,0,1
 245 413 245 413 270.5 415 c 128,-1,2
 296 417 296 417 321.5 418.5 c 128,-1,3
 347 420 347 420 373 422 c 128,-1,4
 399 424 399 424 424.5 426 c 128,-1,5
 450 428 450 428 475.5 430 c 128,-1,6
 501 432 501 432 527 434 c 1,7,-1
 527 296 l 1,8,9
 501 298 501 298 475.5 300 c 128,-1,10
 450 302 450 302 424.5 304 c 128,-1,11
 399 306 399 306 373 307.5 c 128,-1,12
 347 309 347 309 321.5 311 c 128,-1,13
 296 313 296 313 270.5 315 c 128,-1,14
 245 317 245 317 219 318 c 1,15,-1
 219 411 l 1,0,1
419 624 m 0,16,17
 370 624 370 624 336 610 c 128,-1,18
 302 596 302 596 280.5 564.5 c 128,-1,19
 259 533 259 533 249 481.5 c 128,-1,20
 239 430 239 430 239 355 c 0,21,22
 239 278 239 278 250 226 c 128,-1,23
 261 174 261 174 283.5 143 c 128,-1,24
 306 112 306 112 341 98.5 c 128,-1,25
 376 85 376 85 425 85 c 0,26,27
 488 85 488 85 528 105.5 c 128,-1,28
 568 126 568 126 593 163.5 c 128,-1,29
 618 201 618 201 634 253 c 1,30,-1
 727 212 l 1,31,32
 705 136 705 136 664 83.5 c 128,-1,33
 623 31 623 31 559.5 3 c 128,-1,34
 496 -25 496 -25 406 -25 c 0,35,36
 325 -25 325 -25 260 -2 c 128,-1,37
 195 21 195 21 148 68.5 c 128,-1,38
 101 116 101 116 75.5 187.5 c 128,-1,39
 50 259 50 259 50 355 c 0,40,41
 50 454 50 454 76 525.5 c 128,-1,42
 102 597 102 597 149 643 c 128,-1,43
 196 689 196 689 259.5 712 c 128,-1,44
 323 735 323 735 398 735 c 256,45,46
 473 735 473 735 523.5 705.5 c 128,-1,47
 574 676 574 676 603 621 c 128,-1,48
 632 566 632 566 640 488 c 1,49,-1
 600 539 l 1,50,-1
 619 720 l 1,51,-1
 716 720 l 1,52,-1
 716 460 l 1,53,-1
 603 460 l 1,54,55
 590 509 590 509 566 546 c 128,-1,56
 542 583 542 583 506 603.5 c 128,-1,57
 470 624 470 624 419 624 c 0,16,17
EndSplineSet
Substitution2: "'ss01' Style Set 1 lookup 61 subtable" Ieukran.alt1
EndChar

StartChar: Yukrcyr
Encoding: 1031 1031 248
Width: 436
GlyphClass: 2
Flags: W
AnchorPoint: "Anchor-1" 219 0 basechar 0
AnchorPoint: "Anchor-0" 219 961 basechar 0
LayerCount: 2
Fore
SplineSet
197 881 m 0,0,1
 197 834 197 834 173.5 812 c 128,-1,2
 150 790 150 790 108 790 c 0,3,4
 67 790 67 790 44 812 c 128,-1,5
 21 834 21 834 21 880 c 0,6,7
 21 927 21 927 44 949 c 128,-1,8
 67 971 67 971 108 971 c 0,9,10
 150 971 150 971 173.5 949 c 128,-1,11
 197 927 197 927 197 881 c 0,0,1
416 881 m 0,12,13
 416 834 416 834 392.5 812 c 128,-1,14
 369 790 369 790 328 790 c 0,15,16
 286 790 286 790 262.5 812 c 128,-1,17
 239 834 239 834 239 880 c 0,18,19
 239 927 239 927 262.5 949 c 128,-1,20
 286 971 286 971 328 971 c 0,21,22
 369 971 369 971 392.5 949 c 128,-1,23
 416 927 416 927 416 881 c 0,12,13
128 143 m 2,24,-1
 128 567 l 2,25,26
 128 589 128 589 110 596 c 128,-1,27
 92 603 92 603 65 603 c 2,28,-1
 46 603 l 1,29,-1
 46 710 l 1,30,-1
 391 710 l 1,31,-1
 391 603 l 1,32,-1
 371 603 l 2,33,34
 344 603 344 603 326.5 596 c 128,-1,35
 309 589 309 589 309 567 c 2,36,-1
 309 143 l 2,37,38
 309 121 309 121 326.5 114 c 128,-1,39
 344 107 344 107 371 107 c 2,40,-1
 391 107 l 1,41,-1
 391 0 l 1,42,-1
 46 0 l 1,43,-1
 46 107 l 1,44,-1
 65 107 l 2,45,46
 92 107 92 107 110 114 c 128,-1,47
 128 121 128 121 128 143 c 2,24,-1
EndSplineSet
EndChar

StartChar: Ljecyr
Encoding: 1033 1033 250
Width: 1096
GlyphClass: 2
Flags: W
AnchorPoint: "Anchor-0" 438 741 basechar 0
LayerCount: 2
Fore
SplineSet
255 710 m 1,0,-1
 562 710 l 1,1,-1
 562 603 l 1,2,-1
 255 603 l 1,3,-1
 255 710 l 1,0,-1
172 318 m 2,4,-1
 186 567 l 2,5,6
 187 589 187 589 170.5 596 c 128,-1,7
 154 603 154 603 130 603 c 2,8,-1
 120 603 l 1,9,-1
 120 710 l 1,10,-1
 311 710 l 1,11,-1
 291 316 l 2,12,13
 286 202 286 202 263.5 128.5 c 128,-1,14
 241 55 241 55 199 20 c 128,-1,15
 157 -15 157 -15 90 -15 c 0,16,17
 64 -15 64 -15 46 -10 c 128,-1,18
 28 -5 28 -5 18 0 c 1,19,-1
 18 165 l 1,20,21
 25 162 25 162 41 156 c 128,-1,22
 57 150 57 150 79 150 c 0,23,24
 109 150 109 150 128 168 c 128,-1,25
 147 186 147 186 158 223 c 128,-1,26
 169 260 169 260 172 318 c 2,4,-1
804 0 m 2,27,-1
 414 0 l 1,28,-1
 414 107 l 1,29,-1
 422 107 l 2,30,31
 436 107 436 107 449.5 108 c 128,-1,32
 463 109 463 109 472.5 111.5 c 128,-1,33
 482 114 482 114 482 117 c 2,34,-1
 482 710 l 1,35,-1
 739 710 l 1,36,-1
 739 621 l 1,37,-1
 721 621 l 2,38,39
 697 621 697 621 680 614 c 128,-1,40
 663 607 663 607 663 585 c 2,41,-1
 663 107 l 1,42,-1
 775 107 l 2,43,44
 809 107 809 107 832 118.5 c 128,-1,45
 855 130 855 130 866.5 156 c 128,-1,46
 878 182 878 182 878 222 c 0,47,48
 878 264 878 264 866.5 290.5 c 128,-1,49
 855 317 855 317 831.5 329.5 c 128,-1,50
 808 342 808 342 772 342 c 2,51,-1
 627 342 l 1,52,-1
 627 449 l 1,53,-1
 807 449 l 2,54,55
 886 449 886 449 942 424.5 c 128,-1,56
 998 400 998 400 1027.5 350 c 128,-1,57
 1057 300 1057 300 1057 222 c 0,58,59
 1057 153 1057 153 1026 103 c 128,-1,60
 995 53 995 53 938 26.5 c 128,-1,61
 881 0 881 0 804 0 c 2,27,-1
EndSplineSet
EndChar

StartChar: Njecyr
Encoding: 1034 1034 251
Width: 1154
GlyphClass: 2
Flags: W
AnchorPoint: "Anchor-0" 427 741 basechar 0
LayerCount: 2
Fore
SplineSet
210 441 m 1,0,-1
 603 441 l 1,1,-1
 603 334 l 1,2,-1
 210 334 l 1,3,-1
 210 441 l 1,0,-1
46 0 m 1,4,-1
 46 107 l 1,5,-1
 56 107 l 2,6,7
 82 107 82 107 99.5 114 c 128,-1,8
 117 121 117 121 117 143 c 2,9,-1
 117 567 l 2,10,11
 117 589 117 589 99.5 596 c 128,-1,12
 82 603 82 603 56 603 c 2,13,-1
 46 603 l 1,14,-1
 46 710 l 1,15,-1
 368 710 l 1,16,-1
 368 603 l 1,17,-1
 359 603 l 2,18,19
 347 603 347 603 332.5 602 c 128,-1,20
 318 601 318 601 308 599 c 128,-1,21
 298 597 298 597 298 593 c 2,22,-1
 298 116 l 2,23,24
 298 114 298 114 308 111.5 c 128,-1,25
 318 109 318 109 332.5 108 c 128,-1,26
 347 107 347 107 360 107 c 2,27,-1
 368 107 l 1,28,-1
 368 0 l 1,29,-1
 46 0 l 1,4,-1
471 0 m 1,30,-1
 471 107 l 1,31,-1
 479 107 l 2,32,33
 492 107 492 107 506 108 c 128,-1,34
 520 109 520 109 529.5 111.5 c 128,-1,35
 539 114 539 114 539 117 c 2,36,-1
 539 594 l 2,37,38
 539 597 539 597 529.5 599 c 128,-1,39
 520 601 520 601 506 602 c 128,-1,40
 492 603 492 603 479 603 c 2,41,-1
 471 603 l 1,42,-1
 471 710 l 1,43,-1
 801 710 l 1,44,-1
 801 603 l 1,45,-1
 782 603 l 2,46,47
 765 603 765 603 751 600 c 128,-1,48
 737 597 737 597 728.5 589.5 c 128,-1,49
 720 582 720 582 720 567 c 2,50,-1
 720 107 l 1,51,-1
 833 107 l 2,52,53
 866 107 866 107 889.5 118.5 c 128,-1,54
 913 130 913 130 924.5 154.5 c 128,-1,55
 936 179 936 179 936 218 c 0,56,57
 936 258 936 258 924 284 c 128,-1,58
 912 310 912 310 888.5 322 c 128,-1,59
 865 334 865 334 830 334 c 2,60,-1
 661 334 l 1,61,-1
 661 441 l 1,62,-1
 865 441 l 2,63,64
 944 441 944 441 1000 416.5 c 128,-1,65
 1056 392 1056 392 1085.5 342.5 c 128,-1,66
 1115 293 1115 293 1115 218 c 0,67,68
 1115 150 1115 150 1084 101 c 128,-1,69
 1053 52 1053 52 996 26 c 128,-1,70
 939 0 939 0 862 0 c 2,71,-1
 471 0 l 1,30,-1
EndSplineSet
EndChar

StartChar: Tshecyr
Encoding: 1035 1035 252
Width: 978
GlyphClass: 2
Flags: W
AnchorPoint: "Anchor-0" 353 741 basechar 0
LayerCount: 2
Fore
SplineSet
637 422 m 0,0,1
 717 422 717 422 770 401 c 128,-1,2
 823 380 823 380 849 334 c 128,-1,3
 875 288 875 288 875 210 c 2,4,-1
 875 143 l 2,5,6
 875 121 875 121 892.5 114 c 128,-1,7
 910 107 910 107 936 107 c 2,8,-1
 947 107 l 1,9,-1
 947 0 l 1,10,-1
 694 0 l 1,11,-1
 694 202 l 2,12,13
 694 247 694 247 681.5 271.5 c 128,-1,14
 669 296 669 296 643.5 305.5 c 128,-1,15
 618 315 618 315 577 315 c 0,16,17
 540 315 540 315 504 307.5 c 128,-1,18
 468 300 468 300 434 282 c 1,19,-1
 434 384 l 1,20,21
 472 402 472 402 524.5 412 c 128,-1,22
 577 422 577 422 637 422 c 0,0,1
194 0 m 1,23,-1
 194 107 l 1,24,-1
 213 107 l 2,25,26
 240 107 240 107 260 114 c 128,-1,27
 280 121 280 121 280 143 c 2,28,-1
 280 602 l 1,29,-1
 250 602 l 2,30,31
 215 602 215 602 197 596 c 128,-1,32
 179 590 179 590 172.5 578 c 128,-1,33
 166 566 166 566 164 547 c 2,34,-1
 154 430 l 1,35,-1
 44 430 l 1,36,-1
 44 710 l 1,37,-1
 731 710 l 1,38,-1
 731 480 l 1,39,-1
 621 480 l 1,40,-1
 612 547 l 2,41,42
 610 566 610 566 603 578 c 128,-1,43
 596 590 596 590 579 596 c 128,-1,44
 562 602 562 602 529 602 c 2,45,-1
 461 602 l 1,46,-1
 461 117 l 2,47,48
 461 114 461 114 471 111.5 c 128,-1,49
 481 109 481 109 496 108 c 128,-1,50
 511 107 511 107 525 107 c 2,51,-1
 547 107 l 1,52,-1
 547 0 l 1,53,-1
 194 0 l 1,23,-1
EndSplineSet
EndChar

StartChar: Dzhecyr
Encoding: 1039 1039 253
Width: 853
GlyphClass: 2
Flags: W
AnchorPoint: "Anchor-0" 427 741 basechar 0
LayerCount: 2
Fore
SplineSet
46 710 m 1,0,-1
 368 710 l 1,1,-1
 368 603 l 1,2,-1
 359 603 l 2,3,4
 347 603 347 603 332.5 602 c 128,-1,5
 318 601 318 601 308 599 c 128,-1,6
 298 597 298 597 298 594 c 2,7,-1
 298 0 l 1,8,-1
 46 0 l 1,9,-1
 46 107 l 1,10,-1
 56 107 l 2,11,12
 82 107 82 107 99.5 114 c 128,-1,13
 117 121 117 121 117 143 c 2,14,-1
 117 567 l 2,15,16
 117 589 117 589 99.5 596 c 128,-1,17
 82 603 82 603 56 603 c 2,18,-1
 46 603 l 1,19,-1
 46 710 l 1,0,-1
485 710 m 1,20,-1
 807 710 l 1,21,-1
 807 603 l 1,22,-1
 796 603 l 2,23,24
 771 603 771 603 753.5 596 c 128,-1,25
 736 589 736 589 736 567 c 2,26,-1
 736 143 l 2,27,28
 736 121 736 121 753.5 114 c 128,-1,29
 771 107 771 107 796 107 c 2,30,-1
 807 107 l 1,31,-1
 807 0 l 1,32,-1
 555 0 l 1,33,-1
 555 594 l 2,34,35
 555 597 555 597 545 599 c 128,-1,36
 535 601 535 601 521 602 c 128,-1,37
 507 603 507 603 493 603 c 2,38,-1
 485 603 l 1,39,-1
 485 710 l 1,20,-1
211 0 m 1,40,-1
 211 107 l 1,41,-1
 641 107 l 1,42,-1
 641 0 l 1,43,-1
 607 0 l 2,44,45
 564 0 564 0 539.5 -5.5 c 128,-1,46
 515 -11 515 -11 505 -23 c 128,-1,47
 495 -35 495 -35 493 -53 c 2,48,-1
 481 -189 l 1,49,-1
 372 -189 l 1,50,-1
 360 -53 l 2,51,52
 359 -35 359 -35 348.5 -23 c 128,-1,53
 338 -11 338 -11 313.5 -5.5 c 128,-1,54
 289 0 289 0 246 0 c 2,55,-1
 211 0 l 1,40,-1
EndSplineSet
EndChar

StartChar: Becyr
Encoding: 1041 1041 257
Width: 748
GlyphClass: 2
Flags: W
AnchorPoint: "Anchor-0" 381 741 basechar 0
LayerCount: 2
Fore
SplineSet
46 710 m 1,0,-1
 645 710 l 1,1,-1
 645 502 l 1,2,-1
 537 502 l 1,3,-1
 529 559 l 2,4,5
 527 577 527 577 514.5 586.5 c 128,-1,6
 502 596 502 596 479 599.5 c 128,-1,7
 456 603 456 603 422 603 c 2,8,-1
 298 603 l 1,9,-1
 298 107 l 1,10,-1
 411 107 l 2,11,12
 446 107 446 107 469 118 c 128,-1,13
 492 129 492 129 503 153 c 128,-1,14
 514 177 514 177 514 215 c 0,15,16
 514 255 514 255 503 279.5 c 128,-1,17
 492 304 492 304 468.5 315 c 128,-1,18
 445 326 445 326 408 326 c 2,19,-1
 224 326 l 1,20,-1
 224 433 l 1,21,-1
 445 433 l 2,22,23
 525 433 525 433 582.5 410 c 128,-1,24
 640 387 640 387 670.5 338.5 c 128,-1,25
 701 290 701 290 701 215 c 0,26,27
 701 148 701 148 669.5 99.5 c 128,-1,28
 638 51 638 51 579.5 25.5 c 128,-1,29
 521 0 521 0 442 0 c 2,30,-1
 46 0 l 1,31,-1
 46 101 l 1,32,-1
 56 101 l 2,33,34
 82 101 82 101 99 108 c 128,-1,35
 116 115 116 115 116 137 c 2,36,-1
 116 574 l 2,37,38
 116 595 116 595 99 602 c 128,-1,39
 82 609 82 609 56 609 c 2,40,-1
 46 609 l 1,41,-1
 46 710 l 1,0,-1
EndSplineSet
EndChar

StartChar: Gecyr
Encoding: 1043 1043 259
Width: 681
GlyphClass: 2
Flags: W
AnchorPoint: "Anchor-0" 347 741 basechar 0
LayerCount: 2
Fore
SplineSet
298 603 m 1,0,-1
 298 143 l 2,1,2
 298 129 298 129 306.5 121 c 128,-1,3
 315 113 315 113 329 110 c 128,-1,4
 343 107 343 107 362 107 c 2,5,-1
 393 107 l 1,6,-1
 393 0 l 1,7,-1
 46 0 l 1,8,-1
 46 107 l 1,9,-1
 57 107 l 2,10,11
 81 107 81 107 99 114 c 128,-1,12
 117 121 117 121 117 143 c 2,13,-1
 117 567 l 2,14,15
 117 589 117 589 99 596 c 128,-1,16
 81 603 81 603 57 603 c 2,17,-1
 46 603 l 1,18,-1
 46 710 l 1,19,-1
 638 710 l 1,20,-1
 638 430 l 1,21,-1
 528 430 l 1,22,-1
 517 548 l 2,23,24
 515 568 515 568 504.5 580 c 128,-1,25
 494 592 494 592 472.5 597.5 c 128,-1,26
 451 603 451 603 417 603 c 2,27,-1
 298 603 l 1,0,-1
EndSplineSet
EndChar

StartChar: Decyr
Encoding: 1044 1044 261
Width: 832
GlyphClass: 2
Flags: W
AnchorPoint: "Anchor-0" 450 741 basechar 0
LayerCount: 2
Fore
SplineSet
239 710 m 1,0,-1
 604 710 l 1,1,-1
 604 603 l 1,2,-1
 239 603 l 1,3,-1
 239 710 l 1,0,-1
703 11 m 1,4,-1
 522 11 l 1,5,-1
 522 710 l 1,6,-1
 774 710 l 1,7,-1
 774 603 l 1,8,-1
 763 603 l 2,9,10
 737 603 737 603 720 596 c 128,-1,11
 703 589 703 589 703 567 c 2,12,-1
 703 11 l 1,4,-1
677 -53 m 2,13,14
 676 -35 676 -35 665 -23 c 128,-1,15
 654 -11 654 -11 629.5 -5.5 c 128,-1,16
 605 0 605 0 562 0 c 2,17,-1
 257 0 l 2,18,19
 214 0 214 0 190 -5.5 c 128,-1,20
 166 -11 166 -11 155.5 -23 c 128,-1,21
 145 -35 145 -35 143 -52 c 2,22,-1
 130 -189 l 1,23,-1
 20 -189 l 1,24,-1
 20 107 l 1,25,-1
 799 107 l 1,26,-1
 799 -189 l 1,27,-1
 689 -189 l 1,28,-1
 677 -53 l 2,13,14
201 50 m 1,29,-1
 64 50 l 1,30,31
 86 80 86 80 103.5 111 c 128,-1,32
 121 142 121 142 133.5 181 c 128,-1,33
 146 220 146 220 154 272 c 128,-1,34
 162 324 162 324 166 395 c 2,35,-1
 176 567 l 2,36,37
 178 589 178 589 161.5 596 c 128,-1,38
 145 603 145 603 120 603 c 2,39,-1
 110 603 l 1,40,-1
 110 710 l 1,41,-1
 301 710 l 1,42,-1
 285 392 l 2,43,44
 281 296 281 296 269.5 232.5 c 128,-1,45
 258 169 258 169 241 126.5 c 128,-1,46
 224 84 224 84 201 50 c 1,29,-1
EndSplineSet
Substitution2: "'locl' Localized Forms in Cyrillic lookup 12 subtable" De.bgr
EndChar

StartChar: Zhecyr
Encoding: 1046 1046 266
Width: 1233
GlyphClass: 2
Flags: W
AnchorPoint: "Anchor-1" 605 0 basechar 0
AnchorPoint: "Anchor-0" 605 741 basechar 0
LayerCount: 2
Fore
SplineSet
861 0 m 1,0,-1
 861 107 l 1,1,-1
 872 107 l 2,2,3
 886 107 886 107 898.5 108 c 128,-1,4
 911 109 911 109 918.5 111.5 c 128,-1,5
 926 114 926 114 926 117 c 2,6,-1
 738 348 l 1,7,-1
 738 372 l 1,8,-1
 964 592 l 2,9,10
 964 596 964 596 955.5 598 c 128,-1,11
 947 600 947 600 933 601.5 c 128,-1,12
 919 603 919 603 902 603 c 2,13,-1
 887 603 l 1,14,-1
 887 710 l 1,15,-1
 1177 710 l 1,16,-1
 1177 603 l 1,17,-1
 1156 603 l 2,18,19
 1142 603 1142 603 1130.5 600.5 c 128,-1,20
 1119 598 1119 598 1107.5 591.5 c 128,-1,21
 1096 585 1096 585 1084 573 c 2,22,-1
 861 356 l 1,23,-1
 881 443 l 1,24,-1
 1140 127 l 2,25,26
 1148 118 1148 118 1156 113.5 c 128,-1,27
 1164 109 1164 109 1173.5 108 c 128,-1,28
 1183 107 1183 107 1193 107 c 2,29,-1
 1207 107 l 1,30,-1
 1207 0 l 1,31,-1
 861 0 l 1,0,-1
364 0 m 1,32,-1
 26 0 l 1,33,-1
 26 107 l 1,34,-1
 40 107 l 2,35,36
 51 107 51 107 60 108 c 128,-1,37
 69 109 69 109 77.5 113.5 c 128,-1,38
 86 118 86 118 93 127 c 2,39,-1
 352 443 l 1,40,-1
 359 356 l 1,41,-1
 136 573 l 2,42,43
 125 585 125 585 113.5 591.5 c 128,-1,44
 102 598 102 598 90.5 600.5 c 128,-1,45
 79 603 79 603 64 603 c 2,46,-1
 44 603 l 1,47,-1
 44 710 l 1,48,-1
 338 710 l 1,49,-1
 338 603 l 1,50,-1
 323 603 l 2,51,52
 307 603 307 603 292.5 601.5 c 128,-1,53
 278 600 278 600 269.5 598 c 128,-1,54
 261 596 261 596 261 592 c 2,55,-1
 487 372 l 1,56,-1
 487 348 l 1,57,-1
 299 117 l 2,58,59
 299 114 299 114 306.5 111.5 c 128,-1,60
 314 109 314 109 327 108 c 128,-1,61
 340 107 340 107 353 107 c 2,62,-1
 364 107 l 1,63,-1
 364 0 l 1,32,-1
454 0 m 1,64,-1
 454 107 l 1,65,-1
 462 107 l 2,66,67
 472 107 472 107 482.5 107.5 c 128,-1,68
 493 108 493 108 502 109.5 c 128,-1,69
 511 111 511 111 516.5 112.5 c 128,-1,70
 522 114 522 114 522 117 c 2,71,-1
 522 594 l 2,72,73
 522 596 522 596 516.5 597.5 c 128,-1,74
 511 599 511 599 502 600.5 c 128,-1,75
 493 602 493 602 482.5 602.5 c 128,-1,76
 472 603 472 603 462 603 c 2,77,-1
 454 603 l 1,78,-1
 454 710 l 1,79,-1
 771 710 l 1,80,-1
 771 603 l 1,81,-1
 763 603 l 2,82,83
 753 603 753 603 742.5 602.5 c 128,-1,84
 732 602 732 602 723 600.5 c 128,-1,85
 714 599 714 599 708.5 597.5 c 128,-1,86
 703 596 703 596 703 593 c 2,87,-1
 703 116 l 2,88,89
 703 114 703 114 708.5 112.5 c 128,-1,90
 714 111 714 111 723 109.5 c 128,-1,91
 732 108 732 108 742.5 107.5 c 128,-1,92
 753 107 753 107 763 107 c 2,93,-1
 771 107 l 1,94,-1
 771 0 l 1,95,-1
 454 0 l 1,64,-1
EndSplineSet
EndChar

StartChar: Zecyr
Encoding: 1047 1047 269
Width: 741
GlyphClass: 2
Flags: W
AnchorPoint: "Anchor-1" 400 0 basechar 0
AnchorPoint: "Anchor-0" 400 741 basechar 0
LayerCount: 2
Fore
SplineSet
417 -25 m 0,0,1
 338 -25 338 -25 280.5 -0.5 c 128,-1,2
 223 24 223 24 189.5 75.5 c 128,-1,3
 156 127 156 127 146 208 c 1,4,-1
 187 164 l 1,5,-1
 168 -10 l 1,6,-1
 71 -10 l 1,7,-1
 71 240 l 1,8,-1
 184 240 l 1,9,10
 198 195 198 195 223.5 160 c 128,-1,11
 249 125 249 125 286.5 105.5 c 128,-1,12
 324 86 324 86 375 86 c 0,13,14
 415 86 415 86 443 97.5 c 128,-1,15
 471 109 471 109 485.5 133.5 c 128,-1,16
 500 158 500 158 500 197 c 0,17,18
 500 229 500 229 487 254 c 128,-1,19
 474 279 474 279 444 292 c 128,-1,20
 414 305 414 305 363 302 c 0,21,22
 349 301 349 301 335 300 c 128,-1,23
 321 299 321 299 306.5 297.5 c 128,-1,24
 292 296 292 296 278 295 c 1,25,-1
 278 433 l 1,26,27
 292 432 292 432 306 431 c 128,-1,28
 320 430 320 430 333.5 428.5 c 128,-1,29
 347 427 347 427 361 426 c 0,30,31
 406 423 406 423 432 436.5 c 128,-1,32
 458 450 458 450 469 475 c 128,-1,33
 480 500 480 500 480 533 c 0,34,35
 480 561 480 561 469.5 581.5 c 128,-1,36
 459 602 459 602 436 613.5 c 128,-1,37
 413 625 413 625 376 625 c 0,38,39
 328 625 328 625 291 607 c 128,-1,40
 254 589 254 589 229.5 554.5 c 128,-1,41
 205 520 205 520 192 470 c 1,42,-1
 78 470 l 1,43,-1
 78 720 l 1,44,-1
 175 720 l 1,45,-1
 194 546 l 1,46,-1
 156 498 l 1,47,48
 163 561 163 561 183.5 606 c 128,-1,49
 204 651 204 651 237.5 679.5 c 128,-1,50
 271 708 271 708 316.5 721.5 c 128,-1,51
 362 735 362 735 417 735 c 0,52,53
 498 735 498 735 553.5 712.5 c 128,-1,54
 609 690 609 690 637.5 649 c 128,-1,55
 666 608 666 608 666 551 c 0,56,57
 666 495 666 495 638.5 456 c 128,-1,58
 611 417 611 417 564 396.5 c 128,-1,59
 517 376 517 376 456 376 c 1,60,-1
 464 403 l 1,61,-1
 464 332 l 1,62,-1
 455 367 l 1,63,64
 525 367 525 367 577 346 c 128,-1,65
 629 325 629 325 657.5 284 c 128,-1,66
 686 243 686 243 686 184 c 0,67,68
 686 128 686 128 665 88 c 128,-1,69
 644 48 644 48 607.5 23 c 128,-1,70
 571 -2 571 -2 522 -13.5 c 128,-1,71
 473 -25 473 -25 417 -25 c 0,0,1
EndSplineSet
EndChar

StartChar: Icyr
Encoding: 1048 1048 270
Width: 877
GlyphClass: 2
Flags: W
AnchorPoint: "Anchor-0" 439 741 basechar 0
LayerCount: 2
Fore
SplineSet
229 232 m 1,0,-1
 579 561 l 1,1,-1
 648 487 l 1,2,-1
 298 159 l 1,3,-1
 229 232 l 1,0,-1
46 0 m 1,4,-1
 46 107 l 1,5,-1
 56 107 l 2,6,7
 82 107 82 107 99.5 114 c 128,-1,8
 117 121 117 121 117 143 c 2,9,-1
 117 567 l 2,10,11
 117 589 117 589 99.5 596 c 128,-1,12
 82 603 82 603 56 603 c 2,13,-1
 46 603 l 1,14,-1
 46 710 l 1,15,-1
 368 710 l 1,16,-1
 368 603 l 1,17,-1
 359 603 l 2,18,19
 347 603 347 603 332.5 602 c 128,-1,20
 318 601 318 601 308 599 c 128,-1,21
 298 597 298 597 298 593 c 2,22,-1
 298 116 l 2,23,24
 298 114 298 114 308 111.5 c 128,-1,25
 318 109 318 109 332.5 108 c 128,-1,26
 347 107 347 107 360 107 c 2,27,-1
 368 107 l 1,28,-1
 368 0 l 1,29,-1
 46 0 l 1,4,-1
509 0 m 1,30,-1
 509 107 l 1,31,-1
 517 107 l 2,32,33
 531 107 531 107 545 108 c 128,-1,34
 559 109 559 109 569 111.5 c 128,-1,35
 579 114 579 114 579 117 c 2,36,-1
 579 594 l 2,37,38
 579 597 579 597 569 599 c 128,-1,39
 559 601 559 601 545 602 c 128,-1,40
 531 603 531 603 517 603 c 2,41,-1
 509 603 l 1,42,-1
 509 710 l 1,43,-1
 831 710 l 1,44,-1
 831 603 l 1,45,-1
 820 603 l 2,46,47
 795 603 795 603 777.5 596 c 128,-1,48
 760 589 760 589 760 567 c 2,49,-1
 760 143 l 2,50,51
 760 121 760 121 777.5 114 c 128,-1,52
 795 107 795 107 820 107 c 2,53,-1
 831 107 l 1,54,-1
 831 0 l 1,55,-1
 509 0 l 1,30,-1
EndSplineSet
EndChar

StartChar: Elcyr
Encoding: 1051 1051 276
Width: 807
GlyphClass: 2
Flags: W
AnchorPoint: "Anchor-0" 444 741 basechar 0
LayerCount: 2
Fore
SplineSet
264 710 m 1,0,-1
 589 710 l 1,1,-1
 589 603 l 1,2,-1
 264 603 l 1,3,-1
 264 710 l 1,0,-1
439 0 m 1,4,-1
 439 107 l 1,5,-1
 448 107 l 2,6,7
 461 107 461 107 475 108 c 128,-1,8
 489 109 489 109 499 111.5 c 128,-1,9
 509 114 509 114 509 117 c 2,10,-1
 509 710 l 1,11,-1
 761 710 l 1,12,-1
 761 603 l 1,13,-1
 751 603 l 2,14,15
 725 603 725 603 707.5 596 c 128,-1,16
 690 589 690 589 690 567 c 2,17,-1
 690 143 l 2,18,19
 690 121 690 121 707.5 114 c 128,-1,20
 725 107 725 107 751 107 c 2,21,-1
 761 107 l 1,22,-1
 761 0 l 1,23,-1
 439 0 l 1,4,-1
172 318 m 2,24,-1
 186 567 l 2,25,26
 187 589 187 589 171 596 c 128,-1,27
 155 603 155 603 131 603 c 2,28,-1
 120 603 l 1,29,-1
 120 710 l 1,30,-1
 311 710 l 1,31,-1
 291 316 l 2,32,33
 286 202 286 202 263.5 128.5 c 128,-1,34
 241 55 241 55 199 20 c 128,-1,35
 157 -15 157 -15 90 -15 c 0,36,37
 64 -15 64 -15 46 -10 c 128,-1,38
 28 -5 28 -5 18 0 c 1,39,-1
 18 165 l 1,40,41
 25 162 25 162 41 156 c 128,-1,42
 57 150 57 150 79 150 c 0,43,44
 109 150 109 150 128 168 c 128,-1,45
 147 186 147 186 158 223 c 128,-1,46
 169 260 169 260 172 318 c 2,24,-1
EndSplineSet
Substitution2: "'locl' Localized Forms in Cyrillic lookup 12 subtable" El.bgr
EndChar

StartChar: Pecyr
Encoding: 1055 1055 281
Width: 853
GlyphClass: 2
Flags: W
AnchorPoint: "Anchor-0" 427 741 basechar 0
LayerCount: 2
Fore
SplineSet
200 710 m 1,0,-1
 633 710 l 1,1,-1
 633 603 l 1,2,-1
 200 603 l 1,3,-1
 200 710 l 1,0,-1
46 0 m 1,4,-1
 46 107 l 1,5,-1
 56 107 l 2,6,7
 82 107 82 107 99.5 114 c 128,-1,8
 117 121 117 121 117 143 c 2,9,-1
 117 567 l 2,10,11
 117 589 117 589 99.5 596 c 128,-1,12
 82 603 82 603 56 603 c 2,13,-1
 46 603 l 1,14,-1
 46 710 l 1,15,-1
 298 710 l 1,16,-1
 298 116 l 2,17,18
 298 114 298 114 308 111.5 c 128,-1,19
 318 109 318 109 332.5 108 c 128,-1,20
 347 107 347 107 360 107 c 2,21,-1
 368 107 l 1,22,-1
 368 0 l 1,23,-1
 46 0 l 1,4,-1
485 0 m 1,24,-1
 485 107 l 1,25,-1
 493 107 l 2,26,27
 507 107 507 107 521 108 c 128,-1,28
 535 109 535 109 545 111.5 c 128,-1,29
 555 114 555 114 555 116 c 2,30,-1
 555 710 l 1,31,-1
 807 710 l 1,32,-1
 807 603 l 1,33,-1
 796 603 l 2,34,35
 771 603 771 603 753.5 596 c 128,-1,36
 736 589 736 589 736 567 c 2,37,-1
 736 143 l 2,38,39
 736 121 736 121 753.5 114 c 128,-1,40
 771 107 771 107 796 107 c 2,41,-1
 807 107 l 1,42,-1
 807 0 l 1,43,-1
 485 0 l 1,24,-1
EndSplineSet
EndChar

StartChar: Ucyr
Encoding: 1059 1059 285
Width: 738
GlyphClass: 2
Flags: W
AnchorPoint: "Anchor-1" 243 0 basechar 0
AnchorPoint: "Anchor-0" 376 741 basechar 0
LayerCount: 2
Fore
SplineSet
445 193 m 2,0,1
 413 135 413 135 387.5 95 c 128,-1,2
 362 55 362 55 337.5 31 c 128,-1,3
 313 7 313 7 284 -4 c 128,-1,4
 255 -15 255 -15 217 -15 c 0,5,6
 191 -15 191 -15 171 -10 c 128,-1,7
 151 -5 151 -5 140 0 c 1,8,-1
 140 150 l 1,9,10
 152 144 152 144 176.5 137 c 128,-1,11
 201 130 201 130 230 130 c 0,12,13
 263 130 263 130 284.5 139.5 c 128,-1,14
 306 149 306 149 324 174 c 128,-1,15
 342 199 342 199 365 245 c 2,16,-1
 538 586 l 2,17,18
 538 591 538 591 531 594.5 c 128,-1,19
 524 598 524 598 512.5 600.5 c 128,-1,20
 501 603 501 603 489 603 c 2,21,-1
 479 603 l 1,22,-1
 479 710 l 1,23,-1
 711 710 l 1,24,-1
 711 603 l 1,25,-1
 703 603 l 2,26,27
 688 603 688 603 677 597 c 128,-1,28
 666 591 666 591 656.5 578.5 c 128,-1,29
 647 566 647 566 636 546 c 2,30,-1
 445 193 l 2,0,1
444 279 m 1,31,-1
 336 151 l 1,32,-1
 107 551 l 2,33,34
 96 570 96 570 86 581.5 c 128,-1,35
 76 593 76 593 64 598 c 128,-1,36
 52 603 52 603 35 603 c 2,37,-1
 26 603 l 1,38,-1
 26 710 l 1,39,-1
 344 710 l 1,40,-1
 344 603 l 1,41,-1
 332 603 l 2,42,43
 316 603 316 603 303 601.5 c 128,-1,44
 290 600 290 600 283 598 c 128,-1,45
 276 596 276 596 276 592 c 2,46,-1
 444 279 l 1,31,-1
EndSplineSet
EndChar

StartChar: Efcyr
Encoding: 1060 1060 290
Width: 1006
GlyphClass: 2
Flags: W
AnchorPoint: "Anchor-1" 504 0 basechar 0
AnchorPoint: "Anchor-0" 504 741 basechar 0
LayerCount: 2
Fore
SplineSet
414 112 m 2,0,-1
 414 598 l 2,1,2
 414 620 414 620 396 627 c 128,-1,3
 378 634 378 634 350 634 c 2,4,-1
 331 634 l 1,5,-1
 331 735 l 1,6,-1
 676 735 l 1,7,-1
 676 634 l 1,8,-1
 656 634 l 2,9,10
 628 634 628 634 610 627 c 128,-1,11
 592 620 592 620 592 598 c 2,12,-1
 592 112 l 2,13,14
 592 90 592 90 610 83 c 128,-1,15
 628 76 628 76 656 76 c 2,16,-1
 676 76 l 1,17,-1
 676 -25 l 1,18,-1
 331 -25 l 1,19,-1
 331 76 l 1,20,-1
 350 76 l 2,21,22
 378 76 378 76 396 83 c 128,-1,23
 414 90 414 90 414 112 c 2,0,-1
420 583 m 1,24,-1
 420 471 l 1,25,26
 348 471 348 471 306 459 c 128,-1,27
 264 447 264 447 245.5 421.5 c 128,-1,28
 227 396 227 396 227 357 c 256,29,30
 227 318 227 318 245.5 292.5 c 128,-1,31
 264 267 264 267 306 254.5 c 128,-1,32
 348 242 348 242 420 242 c 1,33,-1
 420 130 l 1,34,35
 288 130 288 130 203.5 157 c 128,-1,36
 119 184 119 184 78.5 235 c 128,-1,37
 38 286 38 286 38 357 c 0,38,39
 38 429 38 429 78.5 479 c 128,-1,40
 119 529 119 529 203.5 556 c 128,-1,41
 288 583 288 583 420 583 c 1,24,-1
586 130 m 1,42,-1
 586 242 l 1,43,44
 658 242 658 242 700.5 254.5 c 128,-1,45
 743 267 743 267 761 292.5 c 128,-1,46
 779 318 779 318 779 357 c 256,47,48
 779 396 779 396 761 421.5 c 128,-1,49
 743 447 743 447 701 459 c 128,-1,50
 659 471 659 471 586 471 c 1,51,-1
 586 583 l 1,52,53
 718 583 718 583 802.5 556.5 c 128,-1,54
 887 530 887 530 927.5 479.5 c 128,-1,55
 968 429 968 429 968 357 c 0,56,57
 968 286 968 286 928 235 c 128,-1,58
 888 184 888 184 803 157 c 128,-1,59
 718 130 718 130 586 130 c 1,42,-1
EndSplineSet
EndChar

StartChar: Tsecyr
Encoding: 1062 1062 292
Width: 865
GlyphClass: 2
Flags: W
AnchorPoint: "Anchor-0" 433 741 basechar 0
LayerCount: 2
Fore
SplineSet
218 0 m 1,0,-1
 218 107 l 1,1,-1
 645 107 l 1,2,-1
 645 0 l 1,3,-1
 218 0 l 1,0,-1
46 710 m 1,4,-1
 368 710 l 1,5,-1
 368 603 l 1,6,-1
 359 603 l 2,7,8
 347 603 347 603 332.5 602 c 128,-1,9
 318 601 318 601 308 599 c 128,-1,10
 298 597 298 597 298 594 c 2,11,-1
 298 0 l 1,12,-1
 46 0 l 1,13,-1
 46 107 l 1,14,-1
 56 107 l 2,15,16
 82 107 82 107 99.5 114 c 128,-1,17
 117 121 117 121 117 143 c 2,18,-1
 117 567 l 2,19,20
 117 589 117 589 99.5 596 c 128,-1,21
 82 603 82 603 56 603 c 2,22,-1
 46 603 l 1,23,-1
 46 710 l 1,4,-1
485 710 m 1,24,-1
 807 710 l 1,25,-1
 807 603 l 1,26,-1
 796 603 l 2,27,28
 771 603 771 603 753.5 596 c 128,-1,29
 736 589 736 589 736 567 c 2,30,-1
 736 3 l 1,31,-1
 555 3 l 1,32,-1
 555 594 l 2,33,34
 555 598 555 598 545 599.5 c 128,-1,35
 535 601 535 601 521 602 c 128,-1,36
 507 603 507 603 493 603 c 2,37,-1
 485 603 l 1,38,-1
 485 710 l 1,24,-1
562 0 m 1,39,-1
 562 107 l 1,40,-1
 832 107 l 1,41,-1
 832 -189 l 1,42,-1
 722 -189 l 1,43,-1
 710 -53 l 2,44,45
 709 -35 709 -35 698 -23 c 128,-1,46
 687 -11 687 -11 662 -5.5 c 128,-1,47
 637 0 637 0 594 0 c 2,48,-1
 562 0 l 1,39,-1
EndSplineSet
EndChar

StartChar: Checyr
Encoding: 1063 1063 293
Width: 827
GlyphClass: 2
Flags: W
AnchorPoint: "Anchor-0" 405 741 basechar 0
LayerCount: 2
Fore
SplineSet
459 0 m 1,0,-1
 459 107 l 1,1,-1
 467 107 l 2,2,3
 481 107 481 107 495 108 c 128,-1,4
 509 109 509 109 519 111.5 c 128,-1,5
 529 114 529 114 529 117 c 2,6,-1
 529 594 l 2,7,8
 529 597 529 597 519 599 c 128,-1,9
 509 601 509 601 495 602 c 128,-1,10
 481 603 481 603 467 603 c 2,11,-1
 459 603 l 1,12,-1
 459 710 l 1,13,-1
 781 710 l 1,14,-1
 781 603 l 1,15,-1
 770 603 l 2,16,17
 745 603 745 603 727.5 596 c 128,-1,18
 710 589 710 589 710 567 c 2,19,-1
 710 143 l 2,20,21
 710 121 710 121 727.5 114 c 128,-1,22
 745 107 745 107 770 107 c 2,23,-1
 781 107 l 1,24,-1
 781 0 l 1,25,-1
 459 0 l 1,0,-1
345 259 m 0,26,27
 264 259 264 259 210.5 280.5 c 128,-1,28
 157 302 157 302 130 349.5 c 128,-1,29
 103 397 103 397 103 476 c 2,30,-1
 103 567 l 2,31,32
 103 589 103 589 85.5 596 c 128,-1,33
 68 603 68 603 42 603 c 2,34,-1
 32 603 l 1,35,-1
 32 710 l 1,36,-1
 354 710 l 1,37,-1
 354 603 l 1,38,-1
 345 603 l 2,39,40
 333 603 333 603 318.5 602 c 128,-1,41
 304 601 304 601 294 599 c 128,-1,42
 284 597 284 597 284 593 c 2,43,-1
 284 484 l 2,44,45
 284 440 284 440 295.5 414.5 c 128,-1,46
 307 389 307 389 333.5 377.5 c 128,-1,47
 360 366 360 366 406 366 c 0,48,49
 443 366 443 366 481.5 373.5 c 128,-1,50
 520 381 520 381 555 398 c 1,51,-1
 555 297 l 1,52,53
 516 279 516 279 461 269 c 128,-1,54
 406 259 406 259 345 259 c 0,26,27
EndSplineSet
EndChar

StartChar: Shacyr
Encoding: 1064 1064 294
Width: 1211
GlyphClass: 2
Flags: W
AnchorPoint: "Anchor-0" 594 741 basechar 0
LayerCount: 2
Fore
SplineSet
958 0 m 1,0,-1
 226 0 l 1,1,-1
 226 107 l 1,2,-1
 958 107 l 1,3,-1
 958 0 l 1,0,-1
1166 710 m 1,4,-1
 1166 603 l 1,5,-1
 1155 603 l 2,6,7
 1130 603 1130 603 1112 596 c 128,-1,8
 1094 589 1094 589 1094 567 c 2,9,-1
 1094 143 l 2,10,11
 1094 121 1094 121 1112 114 c 128,-1,12
 1130 107 1130 107 1155 107 c 2,13,-1
 1166 107 l 1,14,-1
 1166 0 l 1,15,-1
 913 0 l 1,16,-1
 913 594 l 2,17,18
 913 597 913 597 903.5 599 c 128,-1,19
 894 601 894 601 879.5 602 c 128,-1,20
 865 603 865 603 852 603 c 2,21,-1
 844 603 l 1,22,-1
 844 710 l 1,23,-1
 1166 710 l 1,4,-1
368 710 m 1,24,-1
 368 603 l 1,25,-1
 359 603 l 2,26,27
 347 603 347 603 332.5 602 c 128,-1,28
 318 601 318 601 308 599 c 128,-1,29
 298 597 298 597 298 594 c 2,30,-1
 298 0 l 1,31,-1
 46 0 l 1,32,-1
 46 107 l 1,33,-1
 56 107 l 2,34,35
 82 107 82 107 99.5 114 c 128,-1,36
 117 121 117 121 117 143 c 2,37,-1
 117 567 l 2,38,39
 117 589 117 589 99.5 596 c 128,-1,40
 82 603 82 603 56 603 c 2,41,-1
 46 603 l 1,42,-1
 46 710 l 1,43,-1
 368 710 l 1,24,-1
447 710 m 1,44,-1
 764 710 l 1,45,-1
 764 603 l 1,46,-1
 756 603 l 2,47,48
 744 603 744 603 730 602 c 128,-1,49
 716 601 716 601 706 599 c 128,-1,50
 696 597 696 597 696 594 c 2,51,-1
 696 0 l 1,52,-1
 515 0 l 1,53,-1
 515 594 l 2,54,55
 515 597 515 597 505.5 599 c 128,-1,56
 496 601 496 601 482 602 c 128,-1,57
 468 603 468 603 455 603 c 2,58,-1
 447 603 l 1,59,-1
 447 710 l 1,44,-1
EndSplineSet
EndChar

StartChar: Shchacyr
Encoding: 1065 1065 295
Width: 1223
GlyphClass: 2
Flags: W
AnchorPoint: "Anchor-0" 600 741 basechar 0
LayerCount: 2
Fore
SplineSet
988 0 m 1,0,-1
 226 0 l 1,1,-1
 226 107 l 1,2,-1
 988 107 l 1,3,-1
 988 0 l 1,0,-1
368 710 m 1,4,-1
 368 603 l 1,5,-1
 359 603 l 2,6,7
 347 603 347 603 332.5 602 c 128,-1,8
 318 601 318 601 308 599 c 128,-1,9
 298 597 298 597 298 594 c 2,10,-1
 298 0 l 1,11,-1
 46 0 l 1,12,-1
 46 107 l 1,13,-1
 56 107 l 2,14,15
 82 107 82 107 99.5 114 c 128,-1,16
 117 121 117 121 117 143 c 2,17,-1
 117 567 l 2,18,19
 117 589 117 589 99.5 596 c 128,-1,20
 82 603 82 603 56 603 c 2,21,-1
 46 603 l 1,22,-1
 46 710 l 1,23,-1
 368 710 l 1,4,-1
844 710 m 1,24,-1
 1166 710 l 1,25,-1
 1166 603 l 1,26,-1
 1155 603 l 2,27,28
 1130 603 1130 603 1112 596 c 128,-1,29
 1094 589 1094 589 1094 567 c 2,30,-1
 1094 3 l 1,31,-1
 913 3 l 1,32,-1
 913 594 l 2,33,34
 913 598 913 598 903.5 599.5 c 128,-1,35
 894 601 894 601 879.5 602 c 128,-1,36
 865 603 865 603 852 603 c 2,37,-1
 844 603 l 1,38,-1
 844 710 l 1,24,-1
954 0 m 2,39,-1
 921 0 l 1,40,-1
 921 107 l 1,41,-1
 1191 107 l 1,42,-1
 1191 -189 l 1,43,-1
 1081 -189 l 1,44,-1
 1068 -53 l 2,45,46
 1067 -35 1067 -35 1056.5 -23 c 128,-1,47
 1046 -11 1046 -11 1021.5 -5.5 c 128,-1,48
 997 0 997 0 954 0 c 2,39,-1
447 710 m 1,49,-1
 764 710 l 1,50,-1
 764 603 l 1,51,-1
 756 603 l 2,52,53
 744 603 744 603 730 602 c 128,-1,54
 716 601 716 601 706 599 c 128,-1,55
 696 597 696 597 696 594 c 2,56,-1
 696 2 l 1,57,-1
 515 2 l 1,58,-1
 515 594 l 2,59,60
 515 597 515 597 505.5 599 c 128,-1,61
 496 601 496 601 482 602 c 128,-1,62
 468 603 468 603 455 603 c 2,63,-1
 447 603 l 1,64,-1
 447 710 l 1,49,-1
EndSplineSet
EndChar

StartChar: Hardcyr
Encoding: 1066 1066 296
Width: 887
GlyphClass: 2
Flags: W
AnchorPoint: "Anchor-0" 310 741 basechar 0
LayerCount: 2
Fore
SplineSet
595 0 m 2,0,-1
 200 0 l 1,1,-1
 200 101 l 1,2,-1
 210 101 l 2,3,4
 235 101 235 101 252.5 108 c 128,-1,5
 270 115 270 115 270 137 c 2,6,-1
 270 602 l 1,7,-1
 250 602 l 2,8,9
 215 602 215 602 197 596 c 128,-1,10
 179 590 179 590 172.5 578 c 128,-1,11
 166 566 166 566 164 547 c 2,12,-1
 154 430 l 1,13,-1
 44 430 l 1,14,-1
 44 710 l 1,15,-1
 544 710 l 1,16,-1
 544 603 l 1,17,-1
 521 603 l 2,18,19
 502 603 502 603 486.5 602 c 128,-1,20
 471 601 471 601 461.5 599 c 128,-1,21
 452 597 452 597 452 593 c 2,22,-1
 452 107 l 1,23,-1
 565 107 l 2,24,25
 600 107 600 107 623 118.5 c 128,-1,26
 646 130 646 130 657.5 156 c 128,-1,27
 669 182 669 182 669 223 c 256,28,29
 669 264 669 264 657.5 290.5 c 128,-1,30
 646 317 646 317 622.5 329.5 c 128,-1,31
 599 342 599 342 563 342 c 2,32,-1
 378 342 l 1,33,-1
 378 449 l 1,34,-1
 598 449 l 2,35,36
 677 449 677 449 733 424.5 c 128,-1,37
 789 400 789 400 818.5 350 c 128,-1,38
 848 300 848 300 848 222 c 0,39,40
 848 153 848 153 817 103 c 128,-1,41
 786 53 786 53 729 26.5 c 128,-1,42
 672 0 672 0 595 0 c 2,0,-1
EndSplineSet
EndChar

StartChar: Ylongcyr
Encoding: 1067 1067 297
Width: 1086
GlyphClass: 2
Flags: W
AnchorPoint: "Anchor-1" 532 0 basechar 0
AnchorPoint: "Anchor-0" 532 741 basechar 0
LayerCount: 2
Fore
SplineSet
788 117 m 2,0,-1
 788 594 l 2,1,2
 788 597 788 597 778.5 599 c 128,-1,3
 769 601 769 601 754.5 602 c 128,-1,4
 740 603 740 603 727 603 c 2,5,-1
 719 603 l 1,6,-1
 719 710 l 1,7,-1
 1040 710 l 1,8,-1
 1040 603 l 1,9,-1
 1030 603 l 2,10,11
 1005 603 1005 603 987 596 c 128,-1,12
 969 589 969 589 969 567 c 2,13,-1
 969 143 l 2,14,15
 969 121 969 121 987 114 c 128,-1,16
 1005 107 1005 107 1030 107 c 2,17,-1
 1040 107 l 1,18,-1
 1040 0 l 1,19,-1
 719 0 l 1,20,-1
 719 107 l 1,21,-1
 727 107 l 2,22,23
 740 107 740 107 754.5 108 c 128,-1,24
 769 109 769 109 778.5 111.5 c 128,-1,25
 788 114 788 114 788 117 c 2,0,-1
441 0 m 2,26,-1
 46 0 l 1,27,-1
 46 101 l 1,28,-1
 56 101 l 2,29,30
 81 101 81 101 98.5 108 c 128,-1,31
 116 115 116 115 116 137 c 2,32,-1
 116 573 l 2,33,34
 116 595 116 595 98.5 602 c 128,-1,35
 81 609 81 609 56 609 c 2,36,-1
 46 609 l 1,37,-1
 46 710 l 1,38,-1
 390 710 l 1,39,-1
 390 603 l 1,40,-1
 367 603 l 2,41,42
 348 603 348 603 332.5 602 c 128,-1,43
 317 601 317 601 307.5 599 c 128,-1,44
 298 597 298 597 298 593 c 2,45,-1
 298 107 l 1,46,-1
 412 107 l 2,47,48
 447 107 447 107 470 118.5 c 128,-1,49
 493 130 493 130 504 155.5 c 128,-1,50
 515 181 515 181 515 222 c 0,51,52
 515 264 515 264 504 290.5 c 128,-1,53
 493 317 493 317 469 329.5 c 128,-1,54
 445 342 445 342 409 342 c 2,55,-1
 270 342 l 1,56,-1
 270 449 l 1,57,-1
 444 449 l 2,58,59
 522 449 522 449 578.5 424.5 c 128,-1,60
 635 400 635 400 664.5 350 c 128,-1,61
 694 300 694 300 694 222 c 0,62,63
 694 153 694 153 663 103 c 128,-1,64
 632 53 632 53 575 26.5 c 128,-1,65
 518 0 518 0 441 0 c 2,26,-1
EndSplineSet
EndChar

StartChar: Softcyr
Encoding: 1068 1068 298
Width: 733
GlyphClass: 2
Flags: W
AnchorPoint: "Anchor-0" 212 741 basechar 0
LayerCount: 2
Fore
SplineSet
441 0 m 2,0,-1
 46 0 l 1,1,-1
 46 101 l 1,2,-1
 56 101 l 2,3,4
 82 101 82 101 99 108 c 128,-1,5
 116 115 116 115 116 137 c 2,6,-1
 116 573 l 2,7,8
 116 595 116 595 99 602 c 128,-1,9
 82 609 82 609 56 609 c 2,10,-1
 46 609 l 1,11,-1
 46 710 l 1,12,-1
 390 710 l 1,13,-1
 390 603 l 1,14,-1
 367 603 l 2,15,16
 348 603 348 603 332.5 602 c 128,-1,17
 317 601 317 601 307.5 599 c 128,-1,18
 298 597 298 597 298 593 c 2,19,-1
 298 107 l 1,20,-1
 412 107 l 2,21,22
 447 107 447 107 470 118.5 c 128,-1,23
 493 130 493 130 504 155.5 c 128,-1,24
 515 181 515 181 515 222 c 0,25,26
 515 264 515 264 504 290.5 c 128,-1,27
 493 317 493 317 469 329.5 c 128,-1,28
 445 342 445 342 409 342 c 2,29,-1
 270 342 l 1,30,-1
 270 449 l 1,31,-1
 444 449 l 2,32,33
 522 449 522 449 578.5 424.5 c 128,-1,34
 635 400 635 400 664.5 350 c 128,-1,35
 694 300 694 300 694 222 c 0,36,37
 694 153 694 153 663 103 c 128,-1,38
 632 53 632 53 575 26.5 c 128,-1,39
 518 0 518 0 441 0 c 2,0,-1
EndSplineSet
EndChar

StartChar: Ereversedcyr
Encoding: 1069 1069 299
Width: 787
GlyphClass: 2
Flags: W
AnchorPoint: "Anchor-1" 378 0 basechar 0
AnchorPoint: "Anchor-0" 378 741 basechar 0
LayerCount: 2
Fore
SplineSet
568 410 m 1,0,-1
 568 318 l 1,1,2
 530 315 530 315 491.5 312.5 c 128,-1,3
 453 310 453 310 414.5 307 c 128,-1,4
 376 304 376 304 338 301.5 c 128,-1,5
 300 299 300 299 262 296 c 1,6,-1
 262 434 l 1,7,8
 299 431 299 431 337.5 428 c 128,-1,9
 376 425 376 425 414.5 422 c 128,-1,10
 453 419 453 419 491.5 416 c 128,-1,11
 530 413 530 413 568 410 c 1,0,-1
392 -25 m 0,12,13
 316 -25 316 -25 265 1.5 c 128,-1,14
 214 28 214 28 184.5 80.5 c 128,-1,15
 155 133 155 133 145 211 c 1,16,-1
 187 164 l 1,17,-1
 168 -10 l 1,18,-1
 71 -10 l 1,19,-1
 71 240 l 1,20,-1
 184 240 l 1,21,22
 198 192 198 192 222 157.5 c 128,-1,23
 246 123 246 123 283 104.5 c 128,-1,24
 320 86 320 86 371 86 c 0,25,26
 419 85 419 85 452.5 98.5 c 128,-1,27
 486 112 486 112 507 143 c 128,-1,28
 528 174 528 174 538 226 c 128,-1,29
 548 278 548 278 548 355 c 0,30,31
 548 431 548 431 537 483 c 128,-1,32
 526 535 526 535 504.5 566 c 128,-1,33
 483 597 483 597 450 610.5 c 128,-1,34
 417 624 417 624 372 624 c 0,35,36
 321 624 321 624 283 605.5 c 128,-1,37
 245 587 245 587 221 553 c 128,-1,38
 197 519 197 519 184 470 c 1,39,-1
 71 470 l 1,40,-1
 71 720 l 1,41,-1
 168 720 l 1,42,-1
 187 546 l 1,43,-1
 150 498 l 1,44,45
 158 574 158 574 186.5 627 c 128,-1,46
 215 680 215 680 266.5 707.5 c 128,-1,47
 318 735 318 735 392 735 c 256,48,49
 466 735 466 735 529 713 c 128,-1,50
 592 691 592 691 638.5 645 c 128,-1,51
 685 599 685 599 711 527 c 128,-1,52
 737 455 737 455 737 355 c 0,53,54
 737 258 737 258 710 186.5 c 128,-1,55
 683 115 683 115 635.5 68 c 128,-1,56
 588 21 588 21 525.5 -2 c 128,-1,57
 463 -25 463 -25 392 -25 c 0,12,13
EndSplineSet
Substitution2: "'ss01' Style Set 1 lookup 61 subtable" Ecyr.alt1
EndChar

StartChar: Yucyr
Encoding: 1070 1070 300
Width: 1170
GlyphClass: 2
Flags: W
AnchorPoint: "Anchor-1" 608 0 basechar 0
AnchorPoint: "Anchor-0" 608 741 basechar 0
LayerCount: 2
Fore
SplineSet
206 419 m 1,0,-1
 530 419 l 1,1,-1
 530 312 l 1,2,-1
 206 312 l 1,3,-1
 206 419 l 1,0,-1
46 0 m 1,4,-1
 46 107 l 1,5,-1
 57 107 l 2,6,7
 81 107 81 107 99 114 c 128,-1,8
 117 121 117 121 117 143 c 2,9,-1
 117 567 l 2,10,11
 117 589 117 589 99 596 c 128,-1,12
 81 603 81 603 57 603 c 2,13,-1
 46 603 l 1,14,-1
 46 710 l 1,15,-1
 368 710 l 1,16,-1
 368 604 l 1,17,-1
 359 604 l 2,18,19
 350 604 350 604 339 603 c 128,-1,20
 328 602 328 602 318.5 600.5 c 128,-1,21
 309 599 309 599 303.5 597.5 c 128,-1,22
 298 596 298 596 298 593 c 2,23,-1
 298 116 l 2,24,25
 298 114 298 114 303.5 112.5 c 128,-1,26
 309 111 309 111 318.5 109.5 c 128,-1,27
 328 108 328 108 339 107.5 c 128,-1,28
 350 107 350 107 359 107 c 2,29,-1
 368 107 l 1,30,-1
 368 0 l 1,31,-1
 46 0 l 1,4,-1
761 -25 m 256,32,33
 680 -25 680 -25 614 -1 c 128,-1,34
 548 23 548 23 500.5 70.5 c 128,-1,35
 453 118 453 118 427.5 189.5 c 128,-1,36
 402 261 402 261 402 356 c 0,37,38
 402 450 402 450 427.5 521 c 128,-1,39
 453 592 453 592 500.5 639.5 c 128,-1,40
 548 687 548 687 614 711 c 128,-1,41
 680 735 680 735 761 735 c 256,42,43
 842 735 842 735 908.5 711 c 128,-1,44
 975 687 975 687 1022 639.5 c 128,-1,45
 1069 592 1069 592 1094.5 521 c 128,-1,46
 1120 450 1120 450 1120 356 c 0,47,48
 1120 261 1120 261 1094.5 189.5 c 128,-1,49
 1069 118 1069 118 1022 70.5 c 128,-1,50
 975 23 975 23 908.5 -1 c 128,-1,51
 842 -25 842 -25 761 -25 c 256,32,33
761 87 m 256,52,53
 804 87 804 87 836 101 c 128,-1,54
 868 115 868 115 889 146 c 128,-1,55
 910 177 910 177 920 228 c 128,-1,56
 930 279 930 279 930 355 c 0,57,58
 930 430 930 430 920 481.5 c 128,-1,59
 910 533 910 533 889 564 c 128,-1,60
 868 595 868 595 836 609 c 128,-1,61
 804 623 804 623 761 623 c 256,62,63
 718 623 718 623 686 609 c 128,-1,64
 654 595 654 595 633 564 c 128,-1,65
 612 533 612 533 602 481.5 c 128,-1,66
 592 430 592 430 592 355 c 256,67,68
 592 280 592 280 602 228.5 c 128,-1,69
 612 177 612 177 633 146 c 128,-1,70
 654 115 654 115 686 101 c 128,-1,71
 718 87 718 87 761 87 c 256,52,53
EndSplineSet
EndChar

StartChar: Yacyr
Encoding: 1071 1071 301
Width: 808
GlyphClass: 2
Flags: W
AnchorPoint: "Anchor-1" 404 0 basechar 0
AnchorPoint: "Anchor-0" 445 741 basechar 0
LayerCount: 2
Fore
SplineSet
409 318 m 1,0,-1
 247 0 l 1,1,-1
 36 0 l 1,2,-1
 36 107 l 1,3,-1
 45 107 l 2,4,5
 65 107 65 107 81 111.5 c 128,-1,6
 97 116 97 116 112 129.5 c 128,-1,7
 127 143 127 143 141 168 c 2,8,-1
 258 377 l 1,9,-1
 409 318 l 1,0,-1
510 117 m 2,10,-1
 510 607 l 1,11,-1
 390 607 l 2,12,13
 355 607 355 607 331 594 c 128,-1,14
 307 581 307 581 295 556 c 128,-1,15
 283 531 283 531 283 495 c 0,16,17
 283 458 283 458 295 432 c 128,-1,18
 307 406 307 406 331 392.5 c 128,-1,19
 355 379 355 379 391 379 c 2,20,-1
 537 379 l 1,21,-1
 537 276 l 1,22,-1
 330 276 l 1,23,-1
 306 296 l 1,24,25
 242 304 242 304 195.5 331 c 128,-1,26
 149 358 149 358 124 401.5 c 128,-1,27
 99 445 99 445 99 501 c 0,28,29
 99 571 99 571 129 617 c 128,-1,30
 159 663 159 663 217 686.5 c 128,-1,31
 275 710 275 710 357 710 c 2,32,-1
 762 710 l 1,33,-1
 762 603 l 1,34,-1
 751 603 l 2,35,36
 727 603 727 603 709 596 c 128,-1,37
 691 589 691 589 691 567 c 2,38,-1
 691 143 l 2,39,40
 691 121 691 121 709 114 c 128,-1,41
 727 107 727 107 751 107 c 2,42,-1
 762 107 l 1,43,-1
 762 0 l 1,44,-1
 425 0 l 1,45,-1
 425 107 l 1,46,-1
 441 107 l 2,47,48
 455 107 455 107 467.5 107.5 c 128,-1,49
 480 108 480 108 489.5 109.5 c 128,-1,50
 499 111 499 111 504.5 112.5 c 128,-1,51
 510 114 510 114 510 117 c 2,10,-1
EndSplineSet
EndChar

StartChar: Geupcyr
Encoding: 1168 1168 302
Width: 676
GlyphClass: 2
Flags: W
AnchorPoint: "Anchor-0" 318 741 basechar 0
LayerCount: 2
Fore
SplineSet
298 603 m 1,0,-1
 298 143 l 2,1,2
 298 129 298 129 306.5 121 c 128,-1,3
 315 113 315 113 329 110 c 128,-1,4
 343 107 343 107 362 107 c 2,5,-1
 393 107 l 1,6,-1
 393 0 l 1,7,-1
 46 0 l 1,8,-1
 46 107 l 1,9,-1
 56 107 l 2,10,11
 82 107 82 107 99.5 114 c 128,-1,12
 117 121 117 121 117 143 c 2,13,-1
 117 567 l 2,14,15
 117 589 117 589 99.5 596 c 128,-1,16
 82 603 82 603 56 603 c 2,17,-1
 46 603 l 1,18,-1
 46 710 l 1,19,-1
 409 710 l 2,20,21
 445 710 445 710 467.5 715 c 128,-1,22
 490 720 490 720 502 732 c 128,-1,23
 514 744 514 744 515 762 c 2,24,-1
 528 899 l 1,25,-1
 638 899 l 1,26,-1
 638 603 l 1,27,-1
 298 603 l 1,0,-1
EndSplineSet
EndChar

StartChar: Gestrokecyr
Encoding: 1170 1170 303
Width: 681
GlyphClass: 2
Flags: W
AnchorPoint: "Anchor-0" 347 741 basechar 0
LayerCount: 2
Fore
SplineSet
46 417 m 1,0,-1
 444 417 l 1,1,-1
 444 310 l 1,2,-1
 46 310 l 1,3,-1
 46 417 l 1,0,-1
298 603 m 1,4,-1
 298 143 l 2,5,6
 298 129 298 129 306.5 121 c 128,-1,7
 315 113 315 113 329 110 c 128,-1,8
 343 107 343 107 362 107 c 2,9,-1
 393 107 l 1,10,-1
 393 0 l 1,11,-1
 46 0 l 1,12,-1
 46 107 l 1,13,-1
 56 107 l 2,14,15
 82 107 82 107 99.5 114 c 128,-1,16
 117 121 117 121 117 143 c 2,17,-1
 117 567 l 2,18,19
 117 589 117 589 99.5 596 c 128,-1,20
 82 603 82 603 56 603 c 2,21,-1
 46 603 l 1,22,-1
 46 710 l 1,23,-1
 638 710 l 1,24,-1
 638 454 l 1,25,-1
 528 454 l 1,26,-1
 518 551 l 2,27,28
 516 570 516 570 505.5 581.5 c 128,-1,29
 495 593 495 593 473.5 598 c 128,-1,30
 452 603 452 603 417 603 c 2,31,-1
 298 603 l 1,4,-1
EndSplineSet
EndChar

StartChar: Zhetailcyr
Encoding: 1174 1174 304
Width: 1239
GlyphClass: 2
Flags: W
AnchorPoint: "Anchor-0" 607 741 basechar 0
LayerCount: 2
Fore
SplineSet
861 0 m 1,0,-1
 861 107 l 1,1,-1
 872 107 l 2,2,3
 886 107 886 107 898.5 108 c 128,-1,4
 911 109 911 109 918.5 111.5 c 128,-1,5
 926 114 926 114 926 117 c 2,6,-1
 738 348 l 1,7,-1
 738 372 l 1,8,-1
 964 592 l 2,9,10
 964 596 964 596 955.5 598 c 128,-1,11
 947 600 947 600 933 601.5 c 128,-1,12
 919 603 919 603 902 603 c 2,13,-1
 887 603 l 1,14,-1
 887 710 l 1,15,-1
 1177 710 l 1,16,-1
 1177 603 l 1,17,-1
 1156 603 l 2,18,19
 1142 603 1142 603 1130.5 600.5 c 128,-1,20
 1119 598 1119 598 1107.5 591.5 c 128,-1,21
 1096 585 1096 585 1084 573 c 2,22,-1
 861 356 l 1,23,-1
 881 443 l 1,24,-1
 1157 107 l 1,25,-1
 1157 0 l 1,26,-1
 861 0 l 1,0,-1
364 0 m 1,27,-1
 26 0 l 1,28,-1
 26 107 l 1,29,-1
 40 107 l 2,30,31
 51 107 51 107 60 108 c 128,-1,32
 69 109 69 109 77.5 113.5 c 128,-1,33
 86 118 86 118 93 127 c 2,34,-1
 352 443 l 1,35,-1
 359 356 l 1,36,-1
 136 573 l 2,37,38
 125 585 125 585 113.5 591.5 c 128,-1,39
 102 598 102 598 90.5 600.5 c 128,-1,40
 79 603 79 603 64 603 c 2,41,-1
 44 603 l 1,42,-1
 44 710 l 1,43,-1
 338 710 l 1,44,-1
 338 603 l 1,45,-1
 323 603 l 2,46,47
 307 603 307 603 292.5 601.5 c 128,-1,48
 278 600 278 600 269.5 598 c 128,-1,49
 261 596 261 596 261 592 c 2,50,-1
 487 372 l 1,51,-1
 487 348 l 1,52,-1
 299 117 l 2,53,54
 299 114 299 114 306.5 111.5 c 128,-1,55
 314 109 314 109 327 108 c 128,-1,56
 340 107 340 107 353 107 c 2,57,-1
 364 107 l 1,58,-1
 364 0 l 1,27,-1
989 0 m 2,59,-1
 966 0 l 1,60,-1
 972 107 l 1,61,-1
 1226 107 l 1,62,-1
 1226 -189 l 1,63,-1
 1116 -189 l 1,64,-1
 1103 -53 l 2,65,66
 1102 -35 1102 -35 1091.5 -23 c 128,-1,67
 1081 -11 1081 -11 1056.5 -5.5 c 128,-1,68
 1032 0 1032 0 989 0 c 2,59,-1
454 0 m 1,69,-1
 454 107 l 1,70,-1
 462 107 l 2,71,72
 472 107 472 107 482.5 107.5 c 128,-1,73
 493 108 493 108 502 109.5 c 128,-1,74
 511 111 511 111 516.5 112.5 c 128,-1,75
 522 114 522 114 522 117 c 2,76,-1
 522 594 l 2,77,78
 522 596 522 596 516.5 597.5 c 128,-1,79
 511 599 511 599 502 600.5 c 128,-1,80
 493 602 493 602 482.5 602.5 c 128,-1,81
 472 603 472 603 462 603 c 2,82,-1
 454 603 l 1,83,-1
 454 710 l 1,84,-1
 771 710 l 1,85,-1
 771 603 l 1,86,-1
 763 603 l 2,87,88
 753 603 753 603 742.5 602.5 c 128,-1,89
 732 602 732 602 723 600.5 c 128,-1,90
 714 599 714 599 708.5 597.5 c 128,-1,91
 703 596 703 596 703 593 c 2,92,-1
 703 116 l 2,93,94
 703 114 703 114 708.5 112.5 c 128,-1,95
 714 111 714 111 723 109.5 c 128,-1,96
 732 108 732 108 742.5 107.5 c 128,-1,97
 753 107 753 107 763 107 c 2,98,-1
 771 107 l 1,99,-1
 771 0 l 1,100,-1
 454 0 l 1,69,-1
EndSplineSet
EndChar

StartChar: Katailcyr
Encoding: 1178 1178 306
Width: 852
GlyphClass: 2
Flags: W
AnchorPoint: "Anchor-0" 434 741 basechar 0
LayerCount: 2
Fore
SplineSet
46 0 m 1,0,-1
 46 107 l 1,1,-1
 57 107 l 2,2,3
 82 107 82 107 99.5 114 c 128,-1,4
 117 121 117 121 117 143 c 2,5,-1
 117 567 l 2,6,7
 117 589 117 589 99.5 596 c 128,-1,8
 82 603 82 603 57 603 c 2,9,-1
 46 603 l 1,10,-1
 46 710 l 1,11,-1
 374 710 l 1,12,-1
 374 603 l 1,13,-1
 362 603 l 2,14,15
 350 603 350 603 338.5 602.5 c 128,-1,16
 327 602 327 602 318 600.5 c 128,-1,17
 309 599 309 599 303.5 597.5 c 128,-1,18
 298 596 298 596 298 593 c 2,19,-1
 298 117 l 2,20,21
 298 114 298 114 303.5 112.5 c 128,-1,22
 309 111 309 111 317 109.5 c 128,-1,23
 325 108 325 108 335 107.5 c 128,-1,24
 345 107 345 107 353 107 c 2,25,-1
 361 107 l 1,26,-1
 361 0 l 1,27,-1
 46 0 l 1,0,-1
470 0 m 1,28,-1
 470 107 l 1,29,-1
 480 107 l 2,30,31
 495 107 495 107 507 108 c 128,-1,32
 519 109 519 109 527 111.5 c 128,-1,33
 535 114 535 114 535 117 c 2,34,-1
 333 348 l 1,35,-1
 333 372 l 1,36,-1
 571 592 l 2,37,38
 571 596 571 596 562.5 598 c 128,-1,39
 554 600 554 600 540.5 601.5 c 128,-1,40
 527 603 527 603 511 603 c 2,41,-1
 496 603 l 1,42,-1
 496 710 l 1,43,-1
 786 710 l 1,44,-1
 786 603 l 1,45,-1
 767 603 l 2,46,47
 753 603 753 603 741 600 c 128,-1,48
 729 597 729 597 717.5 591 c 128,-1,49
 706 585 706 585 694 573 c 2,50,-1
 459 357 l 1,51,-1
 477 443 l 1,52,-1
 772 107 l 1,53,-1
 772 0 l 1,54,-1
 470 0 l 1,28,-1
602 0 m 2,55,-1
 578 0 l 1,56,-1
 584 107 l 1,57,-1
 839 107 l 1,58,-1
 839 -189 l 1,59,-1
 729 -189 l 1,60,-1
 716 -53 l 2,61,62
 715 -35 715 -35 704 -23 c 128,-1,63
 693 -11 693 -11 669 -5.5 c 128,-1,64
 645 0 645 0 602 0 c 2,55,-1
EndSplineSet
EndChar

StartChar: Kaverticalstrokecyr
Encoding: 1180 1180 307
Width: 935
GlyphClass: 2
Flags: W
AnchorPoint: "Anchor-0" 486 741 basechar 0
LayerCount: 2
Fore
SplineSet
350 170 m 1,0,-1
 350 543 l 1,1,-1
 457 543 l 1,2,-1
 457 170 l 1,3,-1
 350 170 l 1,0,-1
46 0 m 1,4,-1
 46 107 l 1,5,-1
 57 107 l 2,6,7
 82 107 82 107 99.5 114 c 128,-1,8
 117 121 117 121 117 143 c 2,9,-1
 117 567 l 2,10,11
 117 589 117 589 99.5 596 c 128,-1,12
 82 603 82 603 57 603 c 2,13,-1
 46 603 l 1,14,-1
 46 710 l 1,15,-1
 374 710 l 1,16,-1
 374 603 l 1,17,-1
 362 603 l 2,18,19
 350 603 350 603 338.5 602.5 c 128,-1,20
 327 602 327 602 318 600.5 c 128,-1,21
 309 599 309 599 303.5 597.5 c 128,-1,22
 298 596 298 596 298 593 c 2,23,-1
 298 117 l 2,24,25
 298 114 298 114 303.5 112.5 c 128,-1,26
 309 111 309 111 317 109.5 c 128,-1,27
 325 108 325 108 335 107.5 c 128,-1,28
 345 107 345 107 353 107 c 2,29,-1
 361 107 l 1,30,-1
 361 0 l 1,31,-1
 46 0 l 1,4,-1
572 0 m 1,32,-1
 572 107 l 1,33,-1
 582 107 l 2,34,35
 598 107 598 107 611 108 c 128,-1,36
 624 109 624 109 631.5 111.5 c 128,-1,37
 639 114 639 114 639 117 c 2,38,-1
 484 348 l 1,39,-1
 484 372 l 1,40,-1
 681 592 l 2,41,42
 682 596 682 596 673 598 c 128,-1,43
 664 600 664 600 648.5 601.5 c 128,-1,44
 633 603 633 603 613 603 c 2,45,-1
 598 603 l 1,46,-1
 598 710 l 1,47,-1
 883 710 l 1,48,-1
 883 603 l 1,49,-1
 862 603 l 2,50,51
 844 603 844 603 828 596.5 c 128,-1,52
 812 590 812 590 796 574 c 2,53,-1
 603 359 l 1,54,-1
 630 435 l 1,55,-1
 841 128 l 2,56,57
 848 118 848 118 856.5 113.5 c 128,-1,58
 865 109 865 109 874.5 108 c 128,-1,59
 884 107 884 107 892 107 c 2,60,-1
 908 107 l 1,61,-1
 908 0 l 1,62,-1
 572 0 l 1,32,-1
EndSplineSet
EndChar

StartChar: Kabashkcyr
Encoding: 1184 1184 308
Width: 1013
GlyphClass: 2
Flags: W
AnchorPoint: "Anchor-0" 598 741 basechar 0
LayerCount: 2
Fore
SplineSet
637 0 m 1,0,-1
 637 107 l 1,1,-1
 648 107 l 2,2,3
 662 107 662 107 674.5 108 c 128,-1,4
 687 109 687 109 694.5 111.5 c 128,-1,5
 702 114 702 114 702 117 c 2,6,-1
 501 348 l 1,7,-1
 501 372 l 1,8,-1
 739 592 l 2,9,10
 739 596 739 596 730.5 598 c 128,-1,11
 722 600 722 600 708 601.5 c 128,-1,12
 694 603 694 603 678 603 c 2,13,-1
 663 603 l 1,14,-1
 663 710 l 1,15,-1
 954 710 l 1,16,-1
 954 603 l 1,17,-1
 935 603 l 2,18,19
 920 603 920 603 908 600 c 128,-1,20
 896 597 896 597 884.5 591 c 128,-1,21
 873 585 873 585 861 573 c 2,22,-1
 627 357 l 1,23,-1
 645 443 l 1,24,-1
 921 128 l 2,25,26
 929 119 929 119 937 114.5 c 128,-1,27
 945 110 945 110 954 108.5 c 128,-1,28
 963 107 963 107 973 107 c 2,29,-1
 987 107 l 1,30,-1
 987 0 l 1,31,-1
 637 0 l 1,0,-1
213 0 m 1,32,-1
 213 107 l 1,33,-1
 224 107 l 2,34,35
 249 107 249 107 266.5 114 c 128,-1,36
 284 121 284 121 284 143 c 2,37,-1
 284 602 l 1,38,-1
 250 602 l 2,39,40
 215 602 215 602 197 596 c 128,-1,41
 179 590 179 590 172.5 578 c 128,-1,42
 166 566 166 566 164 547 c 2,43,-1
 154 430 l 1,44,-1
 44 430 l 1,45,-1
 44 710 l 1,46,-1
 541 710 l 1,47,-1
 541 603 l 1,48,-1
 530 603 l 2,49,50
 514 603 514 603 499 602 c 128,-1,51
 484 601 484 601 475 599 c 128,-1,52
 466 597 466 597 466 593 c 2,53,-1
 466 117 l 2,54,55
 466 114 466 114 474.5 111.5 c 128,-1,56
 483 109 483 109 496 108 c 128,-1,57
 509 107 509 107 521 107 c 2,58,-1
 528 107 l 1,59,-1
 528 0 l 1,60,-1
 213 0 l 1,32,-1
EndSplineSet
EndChar

StartChar: Entailcyr
Encoding: 1186 1186 309
Width: 875
GlyphClass: 2
Flags: W
AnchorPoint: "Anchor-0" 438 741 basechar 0
LayerCount: 2
Fore
SplineSet
210 419 m 1,0,-1
 627 419 l 1,1,-1
 627 312 l 1,2,-1
 210 312 l 1,3,-1
 210 419 l 1,0,-1
46 0 m 1,4,-1
 46 107 l 1,5,-1
 56 107 l 2,6,7
 82 107 82 107 99.5 114 c 128,-1,8
 117 121 117 121 117 143 c 2,9,-1
 117 567 l 2,10,11
 117 589 117 589 99.5 596 c 128,-1,12
 82 603 82 603 56 603 c 2,13,-1
 46 603 l 1,14,-1
 46 710 l 1,15,-1
 368 710 l 1,16,-1
 368 604 l 1,17,-1
 359 604 l 2,18,19
 350 604 350 604 339 603 c 128,-1,20
 328 602 328 602 318.5 600.5 c 128,-1,21
 309 599 309 599 303.5 597.5 c 128,-1,22
 298 596 298 596 298 593 c 2,23,-1
 298 116 l 2,24,25
 298 113 298 113 303.5 112 c 128,-1,26
 309 111 309 111 318.5 109.5 c 128,-1,27
 328 108 328 108 339 107.5 c 128,-1,28
 350 107 350 107 359 107 c 2,29,-1
 368 107 l 1,30,-1
 368 0 l 1,31,-1
 46 0 l 1,4,-1
495 0 m 1,32,-1
 495 106 l 1,33,-1
 503 106 l 2,34,35
 513 106 513 106 524 107 c 128,-1,36
 535 108 535 108 544 109.5 c 128,-1,37
 553 111 553 111 559 112.5 c 128,-1,38
 565 114 565 114 565 117 c 2,39,-1
 565 594 l 2,40,41
 565 597 565 597 559 598 c 128,-1,42
 553 599 553 599 544 600.5 c 128,-1,43
 535 602 535 602 524 602.5 c 128,-1,44
 513 603 513 603 503 603 c 2,45,-1
 495 603 l 1,46,-1
 495 710 l 1,47,-1
 817 710 l 1,48,-1
 817 603 l 1,49,-1
 806 603 l 2,50,51
 781 603 781 603 763.5 596 c 128,-1,52
 746 589 746 589 746 567 c 2,53,-1
 746 0 l 1,54,-1
 495 0 l 1,32,-1
605 0 m 2,55,-1
 585 0 l 1,56,-1
 591 107 l 1,57,-1
 842 107 l 1,58,-1
 842 -189 l 1,59,-1
 732 -189 l 1,60,-1
 720 -53 l 2,61,62
 719 -35 719 -35 708 -23 c 128,-1,63
 697 -11 697 -11 672.5 -5.5 c 128,-1,64
 648 0 648 0 605 0 c 2,55,-1
EndSplineSet
EndChar

StartChar: Tetailcyr
Encoding: 1196 1196 311
Width: 769
GlyphClass: 2
Flags: W
AnchorPoint: "Anchor-0" 377 741 basechar 0
LayerCount: 2
Fore
SplineSet
294 143 m 2,0,-1
 294 602 l 1,1,-1
 250 602 l 2,2,3
 215 602 215 602 197 596 c 128,-1,4
 179 590 179 590 172.5 578 c 128,-1,5
 166 566 166 566 164 547 c 2,6,-1
 154 430 l 1,7,-1
 44 430 l 1,8,-1
 44 710 l 1,9,-1
 725 710 l 1,10,-1
 725 430 l 1,11,-1
 615 430 l 1,12,-1
 605 547 l 2,13,14
 603 566 603 566 596.5 578 c 128,-1,15
 590 590 590 590 572 596 c 128,-1,16
 554 602 554 602 519 602 c 2,17,-1
 475 602 l 1,18,-1
 475 0 l 1,19,-1
 208 0 l 1,20,-1
 208 107 l 1,21,-1
 227 107 l 2,22,23
 254 107 254 107 274 114 c 128,-1,24
 294 121 294 121 294 143 c 2,0,-1
346 0 m 2,25,-1
 320 0 l 1,26,-1
 329 107 l 1,27,-1
 583 107 l 1,28,-1
 583 -189 l 1,29,-1
 473 -189 l 1,30,-1
 460 -53 l 2,31,32
 459 -35 459 -35 448.5 -23 c 128,-1,33
 438 -11 438 -11 413.5 -5.5 c 128,-1,34
 389 0 389 0 346 0 c 2,25,-1
EndSplineSet
EndChar

StartChar: Ustraightstrokecyr
Encoding: 1200 1200 313
Width: 738
GlyphClass: 2
Flags: W
AnchorPoint: "Anchor-1" 369 0 basechar 0
AnchorPoint: "Anchor-0" 369 741 basechar 0
LayerCount: 2
Fore
SplineSet
152 290 m 1,0,-1
 595 290 l 1,1,-1
 595 183 l 1,2,-1
 152 183 l 1,3,-1
 152 290 l 1,0,-1
283 324 m 1,4,-1
 292 276 l 1,5,-1
 107 551 l 2,6,7
 94 570 94 570 84 581.5 c 128,-1,8
 74 593 74 593 63 598 c 128,-1,9
 52 603 52 603 35 603 c 2,10,-1
 26 603 l 1,11,-1
 26 710 l 1,12,-1
 344 710 l 1,13,-1
 344 603 l 1,14,-1
 332 603 l 2,15,16
 315 603 315 603 302.5 601.5 c 128,-1,17
 290 600 290 600 283.5 598 c 128,-1,18
 277 596 277 596 277 592 c 2,19,-1
 438 331 l 1,20,-1
 373 324 l 1,21,-1
 536 583 l 2,22,23
 536 589 536 589 529 593 c 128,-1,24
 522 597 522 597 511.5 600 c 128,-1,25
 501 603 501 603 489 603 c 2,26,-1
 479 603 l 1,27,-1
 479 710 l 1,28,-1
 711 710 l 1,29,-1
 711 603 l 1,30,-1
 702 603 l 2,31,32
 689 603 689 603 678.5 597.5 c 128,-1,33
 668 592 668 592 658 580 c 128,-1,34
 648 568 648 568 635 548 c 2,35,-1
 452 270 l 1,36,-1
 464 324 l 1,37,-1
 464 143 l 2,38,39
 464 121 464 121 483.5 114 c 128,-1,40
 503 107 503 107 530 107 c 2,41,-1
 549 107 l 1,42,-1
 549 0 l 1,43,-1
 198 0 l 1,44,-1
 198 107 l 1,45,-1
 217 107 l 2,46,47
 245 107 245 107 264 114 c 128,-1,48
 283 121 283 121 283 143 c 2,49,-1
 283 324 l 1,4,-1
EndSplineSet
EndChar

StartChar: Xatailcyr
Encoding: 1202 1202 314
Width: 780
GlyphClass: 2
Flags: W
AnchorPoint: "Anchor-0" 398 741 basechar 0
LayerCount: 2
Fore
SplineSet
33 603 m 1,0,-1
 33 710 l 1,1,-1
 366 710 l 1,2,-1
 366 603 l 1,3,-1
 351 603 l 2,4,5
 339 603 339 603 326.5 602 c 128,-1,6
 314 601 314 601 306.5 599 c 128,-1,7
 299 597 299 597 299 594 c 2,8,-1
 451 396 l 1,9,-1
 475 389 l 1,10,-1
 692 107 l 1,11,-1
 692 0 l 1,12,-1
 407 0 l 1,13,-1
 407 107 l 1,14,-1
 422 107 l 2,15,16
 435 107 435 107 447 108 c 128,-1,17
 459 109 459 109 467 111.5 c 128,-1,18
 475 114 475 114 475 117 c 2,19,-1
 309 333 l 1,20,-1
 285 339 l 1,21,-1
 109 569 l 2,22,23
 92 592 92 592 77.5 597.5 c 128,-1,24
 63 603 63 603 41 603 c 2,25,-1
 33 603 l 1,0,-1
28 0 m 1,26,-1
 28 107 l 1,27,-1
 42 107 l 2,28,29
 61 107 61 107 74.5 116.5 c 128,-1,30
 88 126 88 126 107 153 c 2,31,-1
 279 392 l 1,32,-1
 369 348 l 1,33,-1
 210 124 l 2,34,35
 210 120 210 120 217.5 116 c 128,-1,36
 225 112 225 112 236 109.5 c 128,-1,37
 247 107 247 107 257 107 c 2,38,-1
 272 107 l 1,39,-1
 272 0 l 1,40,-1
 28 0 l 1,26,-1
481 335 m 1,41,-1
 407 400 l 1,42,-1
 543 586 l 2,43,44
 543 591 543 591 535 595 c 128,-1,45
 527 599 527 599 516 601 c 128,-1,46
 505 603 505 603 494 603 c 2,47,-1
 483 603 l 1,48,-1
 483 710 l 1,49,-1
 722 710 l 1,50,-1
 722 603 l 1,51,-1
 714 603 l 2,52,53
 694 603 694 603 679.5 593.5 c 128,-1,54
 665 584 665 584 646 558 c 2,55,-1
 481 335 l 1,41,-1
530 0 m 2,56,-1
 509 0 l 1,57,-1
 515 107 l 1,58,-1
 767 107 l 1,59,-1
 767 -189 l 1,60,-1
 657 -189 l 1,61,-1
 644 -53 l 2,62,63
 643 -35 643 -35 632.5 -23 c 128,-1,64
 622 -11 622 -11 597.5 -5.5 c 128,-1,65
 573 0 573 0 530 0 c 2,56,-1
EndSplineSet
EndChar

StartChar: Chetailcyr
Encoding: 1206 1206 315
Width: 839
GlyphClass: 2
Flags: W
AnchorPoint: "Anchor-0" 411 741 basechar 0
LayerCount: 2
Fore
SplineSet
346 259 m 0,0,1
 264 259 264 259 210.5 280.5 c 128,-1,2
 157 302 157 302 130 349.5 c 128,-1,3
 103 397 103 397 103 476 c 2,4,-1
 103 567 l 2,5,6
 103 589 103 589 85 596 c 128,-1,7
 67 603 67 603 43 603 c 2,8,-1
 32 603 l 1,9,-1
 32 710 l 1,10,-1
 354 710 l 1,11,-1
 354 603 l 1,12,-1
 345 603 l 2,13,14
 333 603 333 603 318.5 602 c 128,-1,15
 304 601 304 601 294 599 c 128,-1,16
 284 597 284 597 284 593 c 2,17,-1
 284 484 l 2,18,19
 284 440 284 440 295.5 414.5 c 128,-1,20
 307 389 307 389 333.5 377.5 c 128,-1,21
 360 366 360 366 406 366 c 0,22,23
 443 366 443 366 481 373.5 c 128,-1,24
 519 381 519 381 555 399 c 1,25,-1
 555 298 l 1,26,27
 516 280 516 280 461 269.5 c 128,-1,28
 406 259 406 259 346 259 c 0,0,1
459 0 m 1,29,-1
 459 107 l 1,30,-1
 467 107 l 2,31,32
 481 107 481 107 495 108 c 128,-1,33
 509 109 509 109 519 111.5 c 128,-1,34
 529 114 529 114 529 117 c 2,35,-1
 529 594 l 2,36,37
 529 597 529 597 519 599 c 128,-1,38
 509 601 509 601 495 602 c 128,-1,39
 481 603 481 603 467 603 c 2,40,-1
 459 603 l 1,41,-1
 459 710 l 1,42,-1
 781 710 l 1,43,-1
 781 603 l 1,44,-1
 770 603 l 2,45,46
 745 603 745 603 727.5 596 c 128,-1,47
 710 589 710 589 710 567 c 2,48,-1
 710 0 l 1,49,-1
 459 0 l 1,29,-1
569 0 m 2,50,-1
 549 0 l 1,51,-1
 559 107 l 1,52,-1
 806 107 l 1,53,-1
 806 -189 l 1,54,-1
 696 -189 l 1,55,-1
 684 -53 l 2,56,57
 683 -35 683 -35 672 -23 c 128,-1,58
 661 -11 661 -11 636.5 -5.5 c 128,-1,59
 612 0 612 0 569 0 c 2,50,-1
EndSplineSet
EndChar

StartChar: Chevertcyr
Encoding: 1208 1208 316
Width: 871
GlyphClass: 2
Flags: W
AnchorPoint: "Anchor-0" 427 741 basechar 0
LayerCount: 2
Fore
SplineSet
503 0 m 1,0,-1
 503 107 l 1,1,-1
 511 107 l 2,2,3
 525 107 525 107 539 108 c 128,-1,4
 553 109 553 109 563 111.5 c 128,-1,5
 573 114 573 114 573 117 c 2,6,-1
 573 594 l 2,7,8
 573 597 573 597 563 599 c 128,-1,9
 553 601 553 601 539 602 c 128,-1,10
 525 603 525 603 511 603 c 2,11,-1
 503 603 l 1,12,-1
 503 710 l 1,13,-1
 825 710 l 1,14,-1
 825 603 l 1,15,-1
 814 603 l 2,16,17
 789 603 789 603 771.5 596 c 128,-1,18
 754 589 754 589 754 567 c 2,19,-1
 754 143 l 2,20,21
 754 121 754 121 771.5 114 c 128,-1,22
 789 107 789 107 814 107 c 2,23,-1
 825 107 l 1,24,-1
 825 0 l 1,25,-1
 503 0 l 1,0,-1
368 259 m 0,26,27
 280 259 280 259 221 280.5 c 128,-1,28
 162 302 162 302 132.5 349.5 c 128,-1,29
 103 397 103 397 103 476 c 2,30,-1
 103 567 l 2,31,32
 103 589 103 589 85.5 596 c 128,-1,33
 68 603 68 603 42 603 c 2,34,-1
 32 603 l 1,35,-1
 32 710 l 1,36,-1
 354 710 l 1,37,-1
 354 603 l 1,38,-1
 345 603 l 2,39,40
 333 603 333 603 318.5 602 c 128,-1,41
 304 601 304 601 294 599 c 128,-1,42
 284 597 284 597 284 593 c 2,43,-1
 284 484 l 2,44,45
 284 440 284 440 297.5 414.5 c 128,-1,46
 311 389 311 389 342.5 377.5 c 128,-1,47
 374 366 374 366 428 366 c 0,48,49
 471 366 471 366 515 373 c 128,-1,50
 559 380 559 380 599 399 c 1,51,-1
 599 298 l 1,52,53
 557 279 557 279 496 269 c 128,-1,54
 435 259 435 259 368 259 c 0,26,27
377 158 m 1,55,-1
 377 531 l 1,56,-1
 484 531 l 1,57,-1
 484 158 l 1,58,-1
 377 158 l 1,55,-1
EndSplineSet
EndChar

StartChar: Shhacyr
Encoding: 1210 1210 317
Width: 827
GlyphClass: 1
Flags: W
LayerCount: 2
Fore
SplineSet
368 710 m 1,0,-1
 368 603 l 1,1,-1
 359 603 l 2,2,3
 347 603 347 603 332.5 602 c 128,-1,4
 318 601 318 601 308 599 c 128,-1,5
 298 597 298 597 298 593 c 2,6,-1
 298 116 l 2,7,8
 298 114 298 114 308 111.5 c 128,-1,9
 318 109 318 109 332.5 108 c 128,-1,10
 347 107 347 107 360 107 c 2,11,-1
 368 107 l 1,12,-1
 368 0 l 1,13,-1
 46 0 l 1,14,-1
 46 107 l 1,15,-1
 56 107 l 2,16,17
 82 107 82 107 99.5 114 c 128,-1,18
 117 121 117 121 117 143 c 2,19,-1
 117 567 l 2,20,21
 117 589 117 589 99.5 596 c 128,-1,22
 82 603 82 603 56 603 c 2,23,-1
 46 603 l 1,24,-1
 46 710 l 1,25,-1
 368 710 l 1,0,-1
481 451 m 0,26,27
 562 451 562 451 616 429.5 c 128,-1,28
 670 408 670 408 697 361 c 128,-1,29
 724 314 724 314 724 234 c 2,30,-1
 724 143 l 2,31,32
 724 121 724 121 741.5 114 c 128,-1,33
 759 107 759 107 784 107 c 2,34,-1
 795 107 l 1,35,-1
 795 0 l 1,36,-1
 473 0 l 1,37,-1
 473 107 l 1,38,-1
 481 107 l 2,39,40
 495 107 495 107 509 108 c 128,-1,41
 523 109 523 109 533 111.5 c 128,-1,42
 543 114 543 114 543 117 c 2,43,-1
 543 226 l 2,44,45
 543 270 543 270 531.5 296 c 128,-1,46
 520 322 520 322 493.5 333 c 128,-1,47
 467 344 467 344 421 344 c 0,48,49
 384 344 384 344 345.5 337 c 128,-1,50
 307 330 307 330 272 312 c 1,51,-1
 272 413 l 1,52,53
 311 431 311 431 365.5 441 c 128,-1,54
 420 451 420 451 481 451 c 0,26,27
EndSplineSet
EndChar

StartChar: Obarcyr
Encoding: 1256 1256 320
Width: 837
GlyphClass: 2
Flags: W
AnchorPoint: "Anchor-1" 410 0 basechar 0
AnchorPoint: "Anchor-0" 410 741 basechar 0
LayerCount: 2
Fore
SplineSet
170 419 m 1,0,-1
 667 419 l 1,1,-1
 667 312 l 1,2,-1
 170 312 l 1,3,-1
 170 419 l 1,0,-1
419 -25 m 256,4,5
 335 -25 335 -25 267.5 -1 c 128,-1,6
 200 23 200 23 151 70.5 c 128,-1,7
 102 118 102 118 76 189.5 c 128,-1,8
 50 261 50 261 50 355 c 0,9,10
 50 450 50 450 76 521 c 128,-1,11
 102 592 102 592 151 639.5 c 128,-1,12
 200 687 200 687 267.5 711 c 128,-1,13
 335 735 335 735 419 735 c 256,14,15
 503 735 503 735 571 711 c 128,-1,16
 639 687 639 687 687 639.5 c 128,-1,17
 735 592 735 592 761 521 c 128,-1,18
 787 450 787 450 787 355 c 0,19,20
 787 261 787 261 761 189.5 c 128,-1,21
 735 118 735 118 687 70.5 c 128,-1,22
 639 23 639 23 571 -1 c 128,-1,23
 503 -25 503 -25 419 -25 c 256,4,5
419 87 m 256,24,25
 465 87 465 87 499 101 c 128,-1,26
 533 115 533 115 554.5 146 c 128,-1,27
 576 177 576 177 587 228 c 128,-1,28
 598 279 598 279 598 355 c 0,29,30
 598 430 598 430 587 481.5 c 128,-1,31
 576 533 576 533 554.5 564 c 128,-1,32
 533 595 533 595 499 609 c 128,-1,33
 465 623 465 623 419 623 c 256,34,35
 373 623 373 623 339.5 609 c 128,-1,36
 306 595 306 595 283.5 564 c 128,-1,37
 261 533 261 533 250 481.5 c 128,-1,38
 239 430 239 430 239 355 c 256,39,40
 239 280 239 280 250 228.5 c 128,-1,41
 261 177 261 177 283 146 c 128,-1,42
 305 115 305 115 339 101 c 128,-1,43
 373 87 373 87 419 87 c 256,24,25
EndSplineSet
EndChar

StartChar: Hastrokecyr
Encoding: 1278 1278 321
Width: 774
GlyphClass: 2
Flags: W
AnchorPoint: "Anchor-1" 364 0 basechar 0
AnchorPoint: "Anchor-0" 395 741 basechar 0
LayerCount: 2
Fore
SplineSet
136 420 m 1,0,-1
 626 420 l 1,1,-1
 626 313 l 1,2,-1
 136 313 l 1,3,-1
 136 420 l 1,0,-1
33 603 m 1,4,-1
 33 710 l 1,5,-1
 366 710 l 1,6,-1
 366 603 l 1,7,-1
 351 603 l 2,8,9
 339 603 339 603 326.5 602 c 128,-1,10
 314 601 314 601 306.5 599 c 128,-1,11
 299 597 299 597 299 594 c 2,12,-1
 451 396 l 1,13,-1
 474 389 l 1,14,-1
 666 141 l 2,15,16
 682 119 682 119 696.5 113 c 128,-1,17
 711 107 711 107 732 107 c 2,18,-1
 747 107 l 1,19,-1
 747 0 l 1,20,-1
 407 0 l 1,21,-1
 407 107 l 1,22,-1
 422 107 l 2,23,24
 435 107 435 107 447 108 c 128,-1,25
 459 109 459 109 467 111.5 c 128,-1,26
 475 114 475 114 475 117 c 2,27,-1
 309 333 l 1,28,-1
 286 339 l 1,29,-1
 109 569 l 2,30,31
 92 592 92 592 77.5 597.5 c 128,-1,32
 63 603 63 603 41 603 c 2,33,-1
 33 603 l 1,4,-1
28 0 m 1,34,-1
 28 107 l 1,35,-1
 42 107 l 2,36,37
 61 107 61 107 74.5 116.5 c 128,-1,38
 88 126 88 126 107 153 c 2,39,-1
 280 392 l 1,40,-1
 369 348 l 1,41,-1
 210 124 l 2,42,43
 210 120 210 120 217.5 116 c 128,-1,44
 225 112 225 112 236 109.5 c 128,-1,45
 247 107 247 107 257 107 c 2,46,-1
 272 107 l 1,47,-1
 272 0 l 1,48,-1
 28 0 l 1,34,-1
480 335 m 1,49,-1
 407 400 l 1,50,-1
 543 586 l 2,51,52
 543 591 543 591 535 595 c 128,-1,53
 527 599 527 599 516 601 c 128,-1,54
 505 603 505 603 494 603 c 2,55,-1
 483 603 l 1,56,-1
 483 710 l 1,57,-1
 722 710 l 1,58,-1
 722 603 l 1,59,-1
 714 603 l 2,60,61
 694 603 694 603 679.5 593.5 c 128,-1,62
 665 584 665 584 646 558 c 2,63,-1
 480 335 l 1,49,-1
EndSplineSet
EndChar

StartChar: a
Encoding: 97 97 322
Width: 661
GlyphClass: 2
Flags: W
AnchorPoint: "Anchor-2" 496 -10 basechar 0
AnchorPoint: "Anchor-1" 340 0 basechar 0
AnchorPoint: "Anchor-0" 306 569 basechar 0
LayerCount: 2
Fore
SplineSet
409 355 m 1,0,-1
 409 274 l 1,1,2
 353 264 353 264 316 253.5 c 128,-1,3
 279 243 279 243 257.5 232 c 128,-1,4
 236 221 236 221 226 209.5 c 128,-1,5
 216 198 216 198 213 184 c 128,-1,6
 210 170 210 170 210 155 c 0,7,8
 210 130 210 130 218 116.5 c 128,-1,9
 226 103 226 103 241.5 98 c 128,-1,10
 257 93 257 93 278 93 c 256,11,12
 299 93 299 93 319 100 c 128,-1,13
 339 107 339 107 361.5 124.5 c 128,-1,14
 384 142 384 142 408 174 c 1,15,-1
 421 134 l 1,16,17
 396 81 396 81 368 49.5 c 128,-1,18
 340 18 340 18 305 3 c 128,-1,19
 270 -12 270 -12 224 -12 c 0,20,21
 165 -12 165 -12 126.5 3.5 c 128,-1,22
 88 19 88 19 69.5 51.5 c 128,-1,23
 51 84 51 84 51 136 c 0,24,25
 51 182 51 182 67 215.5 c 128,-1,26
 83 249 83 249 122.5 274 c 128,-1,27
 162 299 162 299 231.5 318.5 c 128,-1,28
 301 338 301 338 409 355 c 1,0,-1
433 0 m 1,29,-1
 409 120 l 1,30,-1
 401 120 l 1,31,-1
 401 412 l 2,32,33
 401 430 401 430 395.5 443.5 c 128,-1,34
 390 457 390 457 371 464.5 c 128,-1,35
 352 472 352 472 311 472 c 0,36,37
 255 472 255 472 217.5 462.5 c 128,-1,38
 180 453 180 453 168 445 c 1,39,40
 163 448 163 448 164 458 c 128,-1,41
 165 468 165 468 172 480 c 128,-1,42
 179 492 179 492 192 500.5 c 128,-1,43
 205 509 205 509 223 507 c 1,44,-1
 223 378 l 1,45,-1
 80 378 l 1,46,-1
 80 524 l 1,47,48
 96 533 96 533 129 546 c 128,-1,49
 162 559 162 559 211 569.5 c 128,-1,50
 260 580 260 580 325 580 c 0,51,52
 384 580 384 580 429.5 570 c 128,-1,53
 475 560 475 560 506.5 540 c 128,-1,54
 538 520 538 520 554 489.5 c 128,-1,55
 570 459 570 459 570 417 c 2,56,-1
 570 141 l 2,57,58
 570 130 570 130 575.5 123 c 128,-1,59
 581 116 581 116 593 112.5 c 128,-1,60
 605 109 605 109 624 104 c 2,61,-1
 633 102 l 1,62,-1
 633 0 l 1,63,-1
 433 0 l 1,29,-1
EndSplineSet
Substitution2: "'ss06' Style Set 6 lookup 66 subtable" a.alt
EndChar

StartChar: aogonek
Encoding: 261 261 331
Width: 661
GlyphClass: 1
Flags: W
LayerCount: 2
Fore
SplineSet
234 -151 m 0,0,1
 234 -125 234 -125 245.5 -106 c 128,-1,2
 257 -87 257 -87 286 -67.5 c 128,-1,3
 315 -48 315 -48 365.5 -22 c 128,-1,4
 416 4 416 4 492 42 c 1,5,-1
 530 3 l 1,6,7
 487 -27 487 -27 459.5 -46 c 128,-1,8
 432 -65 432 -65 417 -78 c 128,-1,9
 402 -91 402 -91 396 -102 c 128,-1,10
 390 -113 390 -113 390 -129 c 0,11,12
 390 -147 390 -147 402 -158 c 128,-1,13
 414 -169 414 -169 438 -169 c 0,14,15
 464 -169 464 -169 483 -156.5 c 128,-1,16
 502 -144 502 -144 517 -130 c 1,17,-1
 565 -183 l 1,18,19
 536 -214 536 -214 497 -233 c 128,-1,20
 458 -252 458 -252 390 -252 c 0,21,22
 319 -252 319 -252 276.5 -229 c 128,-1,23
 234 -206 234 -206 234 -151 c 0,0,1
633 0 m 1,24,-1
 433 0 l 1,25,-1
 409 120 l 1,26,-1
 400 120 l 1,27,-1
 400 415 l 2,28,29
 400 432 400 432 394.5 445 c 128,-1,30
 389 458 389 458 370.5 465.5 c 128,-1,31
 352 473 352 473 311 473 c 0,32,33
 254 473 254 473 216.5 467.5 c 128,-1,34
 179 462 179 462 167 458 c 0,35,36
 162 460 162 460 163 468 c 128,-1,37
 164 476 164 476 171.5 485.5 c 128,-1,38
 179 495 179 495 191.5 502 c 128,-1,39
 204 509 204 509 222 507 c 1,40,-1
 222 378 l 1,41,-1
 79 378 l 1,42,-1
 79 524 l 1,43,44
 95 534 95 534 128.5 547 c 128,-1,45
 162 560 162 560 211 570 c 128,-1,46
 260 580 260 580 325 580 c 0,47,48
 384 580 384 580 429.5 570 c 128,-1,49
 475 560 475 560 506 540 c 128,-1,50
 537 520 537 520 553 489.5 c 128,-1,51
 569 459 569 459 569 417 c 2,52,-1
 569 138 l 2,53,54
 569 128 569 128 574.5 122 c 128,-1,55
 580 116 580 116 592.5 112.5 c 128,-1,56
 605 109 605 109 624 104 c 2,57,-1
 633 102 l 1,58,-1
 633 0 l 1,24,-1
49 136 m 0,59,60
 49 184 49 184 65.5 218 c 128,-1,61
 82 252 82 252 122 276.5 c 128,-1,62
 162 301 162 301 231.5 320 c 128,-1,63
 301 339 301 339 407 356 c 1,64,-1
 407 274 l 1,65,66
 350 264 350 264 312.5 253.5 c 128,-1,67
 275 243 275 243 253.5 232 c 128,-1,68
 232 221 232 221 222.5 209.5 c 128,-1,69
 213 198 213 198 210.5 185 c 128,-1,70
 208 172 208 172 208 157 c 0,71,72
 208 130 208 130 216.5 116 c 128,-1,73
 225 102 225 102 240.5 97 c 128,-1,74
 256 92 256 92 278 92 c 0,75,76
 298 92 298 92 317.5 97 c 128,-1,77
 337 102 337 102 359 117.5 c 128,-1,78
 381 133 381 133 407 166 c 1,79,-1
 423 136 l 1,80,81
 398 82 398 82 369 49.5 c 128,-1,82
 340 17 340 17 304.5 2.5 c 128,-1,83
 269 -12 269 -12 222 -12 c 0,84,85
 164 -12 164 -12 125.5 3.5 c 128,-1,86
 87 19 87 19 68 51.5 c 128,-1,87
 49 84 49 84 49 136 c 0,59,60
EndSplineSet
Substitution2: "'ss06' Style Set 6 lookup 66 subtable" aogonek.alt
EndChar

StartChar: acaron
Encoding: 462 462 332
Width: 661
GlyphClass: 1
Flags: W
LayerCount: 2
Fore
SplineSet
265 640 m 1,0,-1
 379 640 l 1,1,-1
 528 823 l 1,2,-1
 528 865 l 1,3,-1
 455 865 l 1,4,-1
 284 737 l 1,5,-1
 368 739 l 1,6,-1
 193 865 l 1,7,-1
 116 865 l 1,8,-1
 116 823 l 1,9,-1
 265 640 l 1,0,-1
409 355 m 1,10,-1
 409 274 l 1,11,12
 353 264 353 264 316 253.5 c 128,-1,13
 279 243 279 243 257.5 232 c 128,-1,14
 236 221 236 221 226 209.5 c 128,-1,15
 216 198 216 198 213 184 c 128,-1,16
 210 170 210 170 210 155 c 0,17,18
 210 130 210 130 218 116.5 c 128,-1,19
 226 103 226 103 241.5 98 c 128,-1,20
 257 93 257 93 278 93 c 256,21,22
 299 93 299 93 319 100 c 128,-1,23
 339 107 339 107 361.5 124.5 c 128,-1,24
 384 142 384 142 408 174 c 1,25,-1
 421 134 l 1,26,27
 396 81 396 81 368 49.5 c 128,-1,28
 340 18 340 18 305 3 c 128,-1,29
 270 -12 270 -12 224 -12 c 0,30,31
 165 -12 165 -12 126.5 3.5 c 128,-1,32
 88 19 88 19 69.5 51.5 c 128,-1,33
 51 84 51 84 51 136 c 0,34,35
 51 182 51 182 67 215.5 c 128,-1,36
 83 249 83 249 122.5 274 c 128,-1,37
 162 299 162 299 231.5 318.5 c 128,-1,38
 301 338 301 338 409 355 c 1,10,-1
433 0 m 1,39,-1
 409 120 l 1,40,-1
 401 120 l 1,41,-1
 401 412 l 2,42,43
 401 430 401 430 395.5 443.5 c 128,-1,44
 390 457 390 457 371 464.5 c 128,-1,45
 352 472 352 472 311 472 c 0,46,47
 255 472 255 472 217.5 462.5 c 128,-1,48
 180 453 180 453 168 445 c 1,49,50
 163 448 163 448 164 458 c 128,-1,51
 165 468 165 468 172 480 c 128,-1,52
 179 492 179 492 192 500.5 c 128,-1,53
 205 509 205 509 223 507 c 1,54,-1
 223 378 l 1,55,-1
 80 378 l 1,56,-1
 80 524 l 1,57,58
 96 533 96 533 129 546 c 128,-1,59
 162 559 162 559 211 569.5 c 128,-1,60
 260 580 260 580 325 580 c 0,61,62
 384 580 384 580 429.5 570 c 128,-1,63
 475 560 475 560 506.5 540 c 128,-1,64
 538 520 538 520 554 489.5 c 128,-1,65
 570 459 570 459 570 417 c 2,66,-1
 570 141 l 2,67,68
 570 130 570 130 575.5 123 c 128,-1,69
 581 116 581 116 593 112.5 c 128,-1,70
 605 109 605 109 624 104 c 2,71,-1
 633 102 l 1,72,-1
 633 0 l 1,73,-1
 433 0 l 1,39,-1
EndSplineSet
Substitution2: "'ss06' Style Set 6 lookup 66 subtable" acaron.alt
EndChar

StartChar: adblgrave
Encoding: 513 513 334
Width: 661
GlyphClass: 1
Flags: W
LayerCount: 2
Fore
SplineSet
459 799 m 2,0,-1
 488 683 l 1,1,-1
 487 644 l 1,2,-1
 429 644 l 1,3,-1
 349 717 l 2,4,5
 323 742 323 742 307.5 762.5 c 128,-1,6
 292 783 292 783 292 813 c 256,7,8
 292 843 292 843 311 863 c 128,-1,9
 330 883 330 883 367 883 c 0,10,11
 408 883 408 883 428.5 859 c 128,-1,12
 449 835 449 835 459 799 c 2,0,-1
236 799 m 2,13,-1
 265 683 l 1,14,-1
 265 644 l 1,15,-1
 207 644 l 1,16,-1
 127 717 l 2,17,18
 100 742 100 742 84.5 762.5 c 128,-1,19
 69 783 69 783 69 813 c 256,20,21
 69 843 69 843 88 863 c 128,-1,22
 107 883 107 883 145 883 c 0,23,24
 185 883 185 883 206 859 c 128,-1,25
 227 835 227 835 236 799 c 2,13,-1
409 355 m 1,26,-1
 409 274 l 1,27,28
 353 264 353 264 316 253.5 c 128,-1,29
 279 243 279 243 257.5 232 c 128,-1,30
 236 221 236 221 226 209.5 c 128,-1,31
 216 198 216 198 213 184 c 128,-1,32
 210 170 210 170 210 155 c 0,33,34
 210 130 210 130 218 116.5 c 128,-1,35
 226 103 226 103 241.5 98 c 128,-1,36
 257 93 257 93 278 93 c 256,37,38
 299 93 299 93 319 100 c 128,-1,39
 339 107 339 107 361.5 124.5 c 128,-1,40
 384 142 384 142 408 174 c 1,41,-1
 421 134 l 1,42,43
 396 81 396 81 368 49.5 c 128,-1,44
 340 18 340 18 305 3 c 128,-1,45
 270 -12 270 -12 224 -12 c 0,46,47
 165 -12 165 -12 126.5 3.5 c 128,-1,48
 88 19 88 19 69.5 51.5 c 128,-1,49
 51 84 51 84 51 136 c 0,50,51
 51 182 51 182 67 215.5 c 128,-1,52
 83 249 83 249 122.5 274 c 128,-1,53
 162 299 162 299 231.5 318.5 c 128,-1,54
 301 338 301 338 409 355 c 1,26,-1
433 0 m 1,55,-1
 409 120 l 1,56,-1
 401 120 l 1,57,-1
 401 412 l 2,58,59
 401 430 401 430 395.5 443.5 c 128,-1,60
 390 457 390 457 371 464.5 c 128,-1,61
 352 472 352 472 311 472 c 0,62,63
 255 472 255 472 217.5 462.5 c 128,-1,64
 180 453 180 453 168 445 c 1,65,66
 163 448 163 448 164 458 c 128,-1,67
 165 468 165 468 172 480 c 128,-1,68
 179 492 179 492 192 500.5 c 128,-1,69
 205 509 205 509 223 507 c 1,70,-1
 223 378 l 1,71,-1
 80 378 l 1,72,-1
 80 524 l 1,73,74
 96 533 96 533 129 546 c 128,-1,75
 162 559 162 559 211 569.5 c 128,-1,76
 260 580 260 580 325 580 c 0,77,78
 384 580 384 580 429.5 570 c 128,-1,79
 475 560 475 560 506.5 540 c 128,-1,80
 538 520 538 520 554 489.5 c 128,-1,81
 570 459 570 459 570 417 c 2,82,-1
 570 141 l 2,83,84
 570 130 570 130 575.5 123 c 128,-1,85
 581 116 581 116 593 112.5 c 128,-1,86
 605 109 605 109 624 104 c 2,87,-1
 633 102 l 1,88,-1
 633 0 l 1,89,-1
 433 0 l 1,55,-1
EndSplineSet
Substitution2: "'ss06' Style Set 6 lookup 66 subtable" adblgrave.alt
EndChar

StartChar: ainvertedbreve
Encoding: 515 515 335
Width: 661
GlyphClass: 1
Flags: W
LayerCount: 2
Fore
SplineSet
320 838 m 256,0,1
 251 838 251 838 207 817.5 c 128,-1,2
 163 797 163 797 142.5 753.5 c 128,-1,3
 122 710 122 710 122 641 c 1,4,-1
 225 641 l 1,5,6
 227 675 227 675 234.5 692.5 c 128,-1,7
 242 710 242 710 261.5 716.5 c 128,-1,8
 281 723 281 723 317 723 c 0,9,10
 354 723 354 723 373.5 716.5 c 128,-1,11
 393 710 393 710 401 692.5 c 128,-1,12
 409 675 409 675 410 641 c 1,13,-1
 518 641 l 1,14,15
 519 710 519 710 498 753.5 c 128,-1,16
 477 797 477 797 433 817.5 c 128,-1,17
 389 838 389 838 320 838 c 256,0,1
409 355 m 1,18,-1
 409 274 l 1,19,20
 353 264 353 264 316 253.5 c 128,-1,21
 279 243 279 243 257.5 232 c 128,-1,22
 236 221 236 221 226 209.5 c 128,-1,23
 216 198 216 198 213 184 c 128,-1,24
 210 170 210 170 210 155 c 0,25,26
 210 130 210 130 218 116.5 c 128,-1,27
 226 103 226 103 241.5 98 c 128,-1,28
 257 93 257 93 278 93 c 256,29,30
 299 93 299 93 319 100 c 128,-1,31
 339 107 339 107 361.5 124.5 c 128,-1,32
 384 142 384 142 408 174 c 1,33,-1
 421 134 l 1,34,35
 396 81 396 81 368 49.5 c 128,-1,36
 340 18 340 18 305 3 c 128,-1,37
 270 -12 270 -12 224 -12 c 0,38,39
 165 -12 165 -12 126.5 3.5 c 128,-1,40
 88 19 88 19 69.5 51.5 c 128,-1,41
 51 84 51 84 51 136 c 0,42,43
 51 182 51 182 67 215.5 c 128,-1,44
 83 249 83 249 122.5 274 c 128,-1,45
 162 299 162 299 231.5 318.5 c 128,-1,46
 301 338 301 338 409 355 c 1,18,-1
433 0 m 1,47,-1
 409 120 l 1,48,-1
 401 120 l 1,49,-1
 401 412 l 2,50,51
 401 430 401 430 395.5 443.5 c 128,-1,52
 390 457 390 457 371 464.5 c 128,-1,53
 352 472 352 472 311 472 c 0,54,55
 255 472 255 472 217.5 462.5 c 128,-1,56
 180 453 180 453 168 445 c 1,57,58
 163 448 163 448 164 458 c 128,-1,59
 165 468 165 468 172 480 c 128,-1,60
 179 492 179 492 192 500.5 c 128,-1,61
 205 509 205 509 223 507 c 1,62,-1
 223 378 l 1,63,-1
 80 378 l 1,64,-1
 80 524 l 1,65,66
 96 533 96 533 129 546 c 128,-1,67
 162 559 162 559 211 569.5 c 128,-1,68
 260 580 260 580 325 580 c 0,69,70
 384 580 384 580 429.5 570 c 128,-1,71
 475 560 475 560 506.5 540 c 128,-1,72
 538 520 538 520 554 489.5 c 128,-1,73
 570 459 570 459 570 417 c 2,74,-1
 570 141 l 2,75,76
 570 130 570 130 575.5 123 c 128,-1,77
 581 116 581 116 593 112.5 c 128,-1,78
 605 109 605 109 624 104 c 2,79,-1
 633 102 l 1,80,-1
 633 0 l 1,81,-1
 433 0 l 1,47,-1
EndSplineSet
Substitution2: "'ss06' Style Set 6 lookup 66 subtable" ainvertedbreve.alt
EndChar

StartChar: b
Encoding: 98 98 348
Width: 730
GlyphClass: 2
Flags: W
AnchorPoint: "Anchor-1" 349 0 basechar 0
AnchorPoint: "Anchor-0" 329 755 basechar 0
LayerCount: 2
Fore
SplineSet
436 -12 m 0,0,1
 376 -12 376 -12 334 10 c 128,-1,2
 292 32 292 32 264 72.5 c 128,-1,3
 236 113 236 113 216 168 c 1,4,-1
 224 207 l 1,5,6
 252 174 252 174 277 153 c 128,-1,7
 302 132 302 132 328.5 122 c 128,-1,8
 355 112 355 112 389 112 c 0,9,10
 420 112 420 112 443 122 c 128,-1,11
 466 132 466 132 481 153 c 128,-1,12
 496 174 496 174 503.5 208 c 128,-1,13
 511 242 511 242 511 289 c 0,14,15
 511 333 511 333 505 364 c 128,-1,16
 499 395 499 395 486 415 c 128,-1,17
 473 435 473 435 451.5 444.5 c 128,-1,18
 430 454 430 454 399 454 c 0,19,20
 366 454 366 454 338 445 c 128,-1,21
 310 436 310 436 282.5 412.5 c 128,-1,22
 255 389 255 389 223 346 c 1,23,-1
 222 394 l 1,24,25
 247 451 247 451 278 492.5 c 128,-1,26
 309 534 309 534 351 556.5 c 128,-1,27
 393 579 393 579 448 579 c 0,28,29
 529 579 529 579 582 542 c 128,-1,30
 635 505 635 505 661.5 440 c 128,-1,31
 688 375 688 375 688 289 c 0,32,33
 688 204 688 204 659 135.5 c 128,-1,34
 630 67 630 67 573.5 27.5 c 128,-1,35
 517 -12 517 -12 436 -12 c 0,0,1
88 642 m 2,36,37
 88 653 88 653 81.5 659 c 128,-1,38
 75 665 75 665 63 668.5 c 128,-1,39
 51 672 51 672 34 676 c 2,40,-1
 25 678 l 1,41,-1
 25 780 l 1,42,-1
 259 780 l 1,43,-1
 259 132 l 1,44,-1
 264 130 l 1,45,-1
 202 -19 l 1,46,-1
 88 -19 l 1,47,-1
 88 642 l 2,36,37
EndSplineSet
EndChar

StartChar: c
Encoding: 99 99 349
Width: 618
GlyphClass: 2
Flags: W
AnchorPoint: "Anchor-1" 342 0 basechar 0
AnchorPoint: "Anchor-0" 331 569 basechar 0
LayerCount: 2
Fore
SplineSet
372 101 m 0,0,1
 405 101 405 101 429 109.5 c 128,-1,2
 453 118 453 118 471 136 c 128,-1,3
 489 154 489 154 503 180 c 1,4,-1
 586 128 l 1,5,6
 568 84 568 84 534 52.5 c 128,-1,7
 500 21 500 21 454 4.5 c 128,-1,8
 408 -12 408 -12 352 -12 c 0,9,10
 257 -12 257 -12 187.5 21 c 128,-1,11
 118 54 118 54 80 120 c 128,-1,12
 42 186 42 186 42 284 c 256,13,14
 42 382 42 382 78.5 447.5 c 128,-1,15
 115 513 115 513 184 546 c 128,-1,16
 253 579 253 579 353 579 c 0,17,18
 408 579 408 579 450.5 573.5 c 128,-1,19
 493 568 493 568 522 561 c 128,-1,20
 551 554 551 554 565 548 c 1,21,-1
 565 343 l 1,22,-1
 425 343 l 1,23,-1
 425 519 l 1,24,25
 437 519 437 519 445.5 509 c 128,-1,26
 454 499 454 499 459 485.5 c 128,-1,27
 464 472 464 472 467 461 c 128,-1,28
 470 450 470 450 470 446 c 1,29,30
 450 456 450 456 423.5 462 c 128,-1,31
 397 468 397 468 360 468 c 0,32,33
 308 468 308 468 277 450.5 c 128,-1,34
 246 433 246 433 232.5 392.5 c 128,-1,35
 219 352 219 352 219 284 c 0,36,37
 219 231 219 231 227 195 c 128,-1,38
 235 159 235 159 253 138.5 c 128,-1,39
 271 118 271 118 300.5 109.5 c 128,-1,40
 330 101 330 101 372 101 c 0,0,1
EndSplineSet
EndChar

StartChar: ccaron
Encoding: 269 269 354
Width: 618
GlyphClass: 1
Flags: W
LayerCount: 2
Fore
SplineSet
280 640 m 1,0,-1
 393 640 l 1,1,-1
 542 823 l 1,2,-1
 542 865 l 1,3,-1
 470 865 l 1,4,-1
 299 737 l 1,5,-1
 382 739 l 1,6,-1
 207 865 l 1,7,-1
 130 865 l 1,8,-1
 130 823 l 1,9,-1
 280 640 l 1,0,-1
372 101 m 0,10,11
 405 101 405 101 429 109.5 c 128,-1,12
 453 118 453 118 471 136 c 128,-1,13
 489 154 489 154 503 180 c 1,14,-1
 586 128 l 1,15,16
 568 84 568 84 534 52.5 c 128,-1,17
 500 21 500 21 454 4.5 c 128,-1,18
 408 -12 408 -12 352 -12 c 0,19,20
 257 -12 257 -12 187.5 21 c 128,-1,21
 118 54 118 54 80 120 c 128,-1,22
 42 186 42 186 42 284 c 256,23,24
 42 382 42 382 78.5 447.5 c 128,-1,25
 115 513 115 513 184 546 c 128,-1,26
 253 579 253 579 353 579 c 0,27,28
 408 579 408 579 450.5 573.5 c 128,-1,29
 493 568 493 568 522 561 c 128,-1,30
 551 554 551 554 565 548 c 1,31,-1
 565 343 l 1,32,-1
 425 343 l 1,33,-1
 425 519 l 1,34,35
 437 519 437 519 445.5 509 c 128,-1,36
 454 499 454 499 459 485.5 c 128,-1,37
 464 472 464 472 467 461 c 128,-1,38
 470 450 470 450 470 446 c 1,39,40
 450 456 450 456 423.5 462 c 128,-1,41
 397 468 397 468 360 468 c 0,42,43
 308 468 308 468 277 450.5 c 128,-1,44
 246 433 246 433 232.5 392.5 c 128,-1,45
 219 352 219 352 219 284 c 0,46,47
 219 231 219 231 227 195 c 128,-1,48
 235 159 235 159 253 138.5 c 128,-1,49
 271 118 271 118 300.5 109.5 c 128,-1,50
 330 101 330 101 372 101 c 0,10,11
EndSplineSet
EndChar

StartChar: d
Encoding: 100 100 356
Width: 734
GlyphClass: 2
Flags: W
AnchorPoint: "Anchor-2" 696 735 basechar 0
AnchorPoint: "Anchor-1" 343 0 basechar 0
LayerCount: 2
Fore
SplineSet
643 136 m 2,0,1
 643 120 643 120 657 114.5 c 128,-1,2
 671 109 671 109 697 103 c 2,3,-1
 706 101 l 1,4,-1
 706 0 l 1,5,-1
 508 0 l 1,6,-1
 481 130 l 1,7,-1
 471 116 l 1,8,-1
 471 642 l 2,9,10
 471 653 471 653 464.5 658.5 c 128,-1,11
 458 664 458 664 445 667.5 c 128,-1,12
 432 671 432 671 413 676 c 2,13,-1
 405 678 l 1,14,-1
 405 780 l 1,15,-1
 643 780 l 1,16,-1
 643 136 l 2,0,1
294 579 m 0,17,18
 346 579 346 579 386.5 557 c 128,-1,19
 427 535 427 535 457 494.5 c 128,-1,20
 487 454 487 454 508 398 c 1,21,-1
 505 369 l 1,22,23
 477 399 477 399 452.5 417.5 c 128,-1,24
 428 436 428 436 402.5 445 c 128,-1,25
 377 454 377 454 346 454 c 256,26,27
 315 454 315 454 291 445 c 128,-1,28
 267 436 267 436 251 415 c 128,-1,29
 235 394 235 394 227 360 c 128,-1,30
 219 326 219 326 219 278 c 0,31,32
 219 233 219 233 225 201.5 c 128,-1,33
 231 170 231 170 244 150.5 c 128,-1,34
 257 131 257 131 278 121.5 c 128,-1,35
 299 112 299 112 330 112 c 0,36,37
 364 112 364 112 392.5 121.5 c 128,-1,38
 421 131 421 131 448.5 153.5 c 128,-1,39
 476 176 476 176 507 216 c 1,40,-1
 508 173 l 1,41,42
 484 116 484 116 453 74.5 c 128,-1,43
 422 33 422 33 380.5 10.5 c 128,-1,44
 339 -12 339 -12 282 -12 c 0,45,46
 201 -12 201 -12 147.5 25 c 128,-1,47
 94 62 94 62 68 127.5 c 128,-1,48
 42 193 42 193 42 278 c 0,49,50
 42 364 42 364 71 432 c 128,-1,51
 100 500 100 500 156.5 539.5 c 128,-1,52
 213 579 213 579 294 579 c 0,17,18
EndSplineSet
EndChar

StartChar: e
Encoding: 101 101 360
Width: 646
GlyphClass: 2
Flags: W
AnchorPoint: "Anchor-2" 511 1 basechar 0
AnchorPoint: "Anchor-1" 354 0 basechar 0
AnchorPoint: "Anchor-0" 330 569 basechar 0
LayerCount: 2
Fore
SplineSet
207 280 m 0,0,1
 207 223 207 223 218 187 c 128,-1,2
 229 151 229 151 249.5 131.5 c 128,-1,3
 270 112 270 112 299 105 c 128,-1,4
 328 98 328 98 363 98 c 0,5,6
 403 98 403 98 430 104.5 c 128,-1,7
 457 111 457 111 478 126.5 c 128,-1,8
 499 142 499 142 518 168 c 1,9,-1
 602 112 l 1,10,11
 580 71 580 71 544.5 42.5 c 128,-1,12
 509 14 509 14 461.5 0 c 128,-1,13
 414 -14 414 -14 353 -14 c 0,14,15
 257 -14 257 -14 187 18 c 128,-1,16
 117 50 117 50 79.5 115 c 128,-1,17
 42 180 42 180 42 278 c 0,18,19
 42 370 42 370 77.5 437.5 c 128,-1,20
 113 505 113 505 179 542.5 c 128,-1,21
 245 580 245 580 335 580 c 0,22,23
 407 580 407 580 458 559 c 128,-1,24
 509 538 509 538 541 496.5 c 128,-1,25
 573 455 573 455 588.5 392 c 128,-1,26
 604 329 604 329 605 245 c 1,27,-1
 138 245 l 1,28,-1
 138 328 l 1,29,-1
 468 328 l 1,30,-1
 450 295 l 1,31,32
 448 353 448 353 441 390 c 128,-1,33
 434 427 434 427 421 448 c 128,-1,34
 408 469 408 469 387 477 c 128,-1,35
 366 485 366 485 337 485 c 0,36,37
 306 485 306 485 282 475.5 c 128,-1,38
 258 466 258 466 241.5 443 c 128,-1,39
 225 420 225 420 216 380 c 128,-1,40
 207 340 207 340 207 280 c 0,0,1
EndSplineSet
EndChar

